<ttFont>
    <TTGlyph name="A" xMin="-45" yMin="0" xMax="629" yMax="690">
      <contour>
        <pt x="425" y="161" on="1"/>
        <pt x="214" y="161" on="1"/>
        <pt x="151" y="0" on="1"/>
        <pt x="-45" y="0" on="1"/>
        <pt x="232" y="645" on="1"/>
        <pt x="251" y="690" on="0"/>
        <pt x="299" y="690" on="1"/>
        <pt x="471" y="690" on="1"/>
        <pt x="494" y="690" on="0"/>
        <pt x="529" y="660" on="0"/>
        <pt x="531" y="638" on="1"/>
        <pt x="629" y="0" on="1"/>
        <pt x="441" y="0" on="1"/>
      </contour>
      <contour>
        <pt x="410" y="303" on="1"/>
        <pt x="392" y="479" on="1"/>
        <pt x="389" y="503" on="0"/>
        <pt x="389" y="551" on="1"/>
        <pt x="360" y="551" on="1"/>
        <pt x="351" y="514" on="0"/>
        <pt x="339" y="480" on="1"/>
        <pt x="269" y="303" on="1"/>
      </contour>
    </TTGlyph>
    <TTGlyph name="AE" xMin="-55" yMin="-3" xMax="962" yMax="692">
      <contour>
        <pt x="939" y="549" on="1"/>
        <pt x="703" y="549" on="1"/>
        <pt x="676" y="549" on="0"/>
        <pt x="652" y="529" on="0"/>
        <pt x="648" y="503" on="1"/>
        <pt x="635" y="416" on="1"/>
        <pt x="884" y="416" on="1"/>
        <pt x="869" y="295" on="1"/>
        <pt x="618" y="295" on="1"/>
        <pt x="602" y="186" on="1"/>
        <pt x="600" y="162" on="0"/>
        <pt x="617" y="141" on="0"/>
        <pt x="642" y="141" on="1"/>
        <pt x="880" y="141" on="1"/>
        <pt x="877" y="7" on="1"/>
        <pt x="785" y="-3" on="0"/>
        <pt x="560" y="-3" on="1"/>
        <pt x="488" y="-3" on="0"/>
        <pt x="414" y="84" on="0"/>
        <pt x="424" y="155" on="1"/>
        <pt x="426" y="170" on="1"/>
        <pt x="242" y="170" on="1"/>
        <pt x="140" y="0" on="1"/>
        <pt x="-55" y="0" on="1"/>
        <pt x="284" y="548" on="1"/>
        <pt x="318" y="604" on="0"/>
        <pt x="392" y="663" on="0"/>
        <pt x="518" y="692" on="0"/>
        <pt x="621" y="692" on="1"/>
        <pt x="836" y="692" on="0"/>
        <pt x="962" y="682" on="1"/>
      </contour>
      <contour>
        <pt x="446" y="311" on="1"/>
        <pt x="475" y="515" on="1"/>
        <pt x="480" y="551" on="0"/>
        <pt x="500" y="579" on="1"/>
        <pt x="490" y="579" on="1"/>
        <pt x="486" y="573" on="0"/>
        <pt x="454" y="524" on="1"/>
        <pt x="326" y="311" on="1"/>
      </contour>
    </TTGlyph>
    <TTGlyph name="Aacute" xMin="-45" yMin="0" xMax="629" yMax="951">
      <contour>
        <pt x="351" y="721" on="1"/>
        <pt x="308" y="797" on="1"/>
        <pt x="542" y="951" on="1"/>
        <pt x="604" y="822" on="1"/>
      </contour>
      <contour>
        <pt x="425" y="161" on="1"/>
        <pt x="214" y="161" on="1"/>
        <pt x="151" y="0" on="1"/>
        <pt x="-45" y="0" on="1"/>
        <pt x="232" y="645" on="1"/>
        <pt x="251" y="690" on="0"/>
        <pt x="299" y="690" on="1"/>
        <pt x="471" y="690" on="1"/>
        <pt x="494" y="690" on="0"/>
        <pt x="529" y="660" on="0"/>
        <pt x="531" y="638" on="1"/>
        <pt x="629" y="0" on="1"/>
        <pt x="441" y="0" on="1"/>
      </contour>
      <contour>
        <pt x="410" y="303" on="1"/>
        <pt x="392" y="479" on="1"/>
        <pt x="389" y="503" on="0"/>
        <pt x="389" y="551" on="1"/>
        <pt x="360" y="551" on="1"/>
        <pt x="351" y="514" on="0"/>
        <pt x="339" y="480" on="1"/>
        <pt x="269" y="303" on="1"/>
      </contour>
    </TTGlyph>
    <TTGlyph name="Abreve" xMin="-45" yMin="0" xMax="629" yMax="912">
      <contour>
        <pt x="504" y="912" on="1"/>
        <pt x="587" y="898" on="1"/>
        <pt x="587" y="830" on="0"/>
        <pt x="485" y="738" on="0"/>
        <pt x="400" y="738" on="1"/>
        <pt x="313" y="738" on="0"/>
        <pt x="223" y="838" on="0"/>
        <pt x="243" y="904" on="1"/>
        <pt x="329" y="909" on="1"/>
        <pt x="324" y="878" on="0"/>
        <pt x="362" y="851" on="0"/>
        <pt x="406" y="851" on="1"/>
        <pt x="498" y="851" on="0"/>
      </contour>
      <contour>
        <pt x="425" y="161" on="1"/>
        <pt x="214" y="161" on="1"/>
        <pt x="151" y="0" on="1"/>
        <pt x="-45" y="0" on="1"/>
        <pt x="232" y="645" on="1"/>
        <pt x="251" y="690" on="0"/>
        <pt x="299" y="690" on="1"/>
        <pt x="471" y="690" on="1"/>
        <pt x="494" y="690" on="0"/>
        <pt x="529" y="660" on="0"/>
        <pt x="531" y="638" on="1"/>
        <pt x="629" y="0" on="1"/>
        <pt x="441" y="0" on="1"/>
      </contour>
      <contour>
        <pt x="410" y="303" on="1"/>
        <pt x="392" y="479" on="1"/>
        <pt x="389" y="503" on="0"/>
        <pt x="389" y="551" on="1"/>
        <pt x="360" y="551" on="1"/>
        <pt x="351" y="514" on="0"/>
        <pt x="339" y="480" on="1"/>
        <pt x="269" y="303" on="1"/>
      </contour>
    </TTGlyph>
    <TTGlyph name="Acircumflex" xMin="-45" yMin="0" xMax="629" yMax="920">
      <contour>
        <pt x="238" y="721" on="1"/>
        <pt x="195" y="785" on="1"/>
        <pt x="345" y="920" on="1"/>
        <pt x="468" y="920" on="1"/>
        <pt x="597" y="781" on="1"/>
        <pt x="546" y="720" on="1"/>
        <pt x="407" y="816" on="1"/>
        <pt x="399" y="816" on="1"/>
      </contour>
      <contour>
        <pt x="425" y="161" on="1"/>
        <pt x="214" y="161" on="1"/>
        <pt x="151" y="0" on="1"/>
        <pt x="-45" y="0" on="1"/>
        <pt x="232" y="645" on="1"/>
        <pt x="251" y="690" on="0"/>
        <pt x="299" y="690" on="1"/>
        <pt x="471" y="690" on="1"/>
        <pt x="494" y="690" on="0"/>
        <pt x="529" y="660" on="0"/>
        <pt x="531" y="638" on="1"/>
        <pt x="629" y="0" on="1"/>
        <pt x="441" y="0" on="1"/>
      </contour>
      <contour>
        <pt x="410" y="303" on="1"/>
        <pt x="392" y="479" on="1"/>
        <pt x="389" y="503" on="0"/>
        <pt x="389" y="551" on="1"/>
        <pt x="360" y="551" on="1"/>
        <pt x="351" y="514" on="0"/>
        <pt x="339" y="480" on="1"/>
        <pt x="269" y="303" on="1"/>
      </contour>
    </TTGlyph>
    <TTGlyph name="Adieresis" xMin="-45" yMin="0" xMax="629" yMax="896">
      <contour>
        <pt x="340" y="763" on="1"/>
        <pt x="271" y="763" on="1"/>
        <pt x="237" y="763" on="0"/>
        <pt x="243" y="794" on="1"/>
        <pt x="253" y="863" on="1"/>
        <pt x="257" y="896" on="0"/>
        <pt x="291" y="896" on="1"/>
        <pt x="355" y="896" on="1"/>
        <pt x="390" y="896" on="0"/>
        <pt x="384" y="864" on="1"/>
        <pt x="374" y="794" on="1"/>
        <pt x="370" y="763" on="0"/>
      </contour>
      <contour>
        <pt x="523" y="763" on="1"/>
        <pt x="454" y="763" on="1"/>
        <pt x="421" y="763" on="0"/>
        <pt x="425" y="794" on="1"/>
        <pt x="436" y="863" on="1"/>
        <pt x="440" y="896" on="0"/>
        <pt x="471" y="896" on="1"/>
        <pt x="538" y="896" on="1"/>
        <pt x="573" y="896" on="0"/>
        <pt x="567" y="864" on="1"/>
        <pt x="557" y="795" on="1"/>
        <pt x="553" y="763" on="0"/>
      </contour>
      <contour>
        <pt x="425" y="161" on="1"/>
        <pt x="214" y="161" on="1"/>
        <pt x="151" y="0" on="1"/>
        <pt x="-45" y="0" on="1"/>
        <pt x="232" y="645" on="1"/>
        <pt x="251" y="690" on="0"/>
        <pt x="299" y="690" on="1"/>
        <pt x="471" y="690" on="1"/>
        <pt x="494" y="690" on="0"/>
        <pt x="529" y="660" on="0"/>
        <pt x="531" y="638" on="1"/>
        <pt x="629" y="0" on="1"/>
        <pt x="441" y="0" on="1"/>
      </contour>
      <contour>
        <pt x="410" y="303" on="1"/>
        <pt x="392" y="479" on="1"/>
        <pt x="389" y="503" on="0"/>
        <pt x="389" y="551" on="1"/>
        <pt x="360" y="551" on="1"/>
        <pt x="351" y="514" on="0"/>
        <pt x="339" y="480" on="1"/>
        <pt x="269" y="303" on="1"/>
      </contour>
    </TTGlyph>
    <TTGlyph name="Agrave" xMin="-45" yMin="0" xMax="629" yMax="946">
      <contour>
        <pt x="430" y="721" on="1"/>
        <pt x="194" y="831" on="1"/>
        <pt x="268" y="946" on="1"/>
        <pt x="489" y="797" on="1"/>
      </contour>
      <contour>
        <pt x="425" y="161" on="1"/>
        <pt x="214" y="161" on="1"/>
        <pt x="151" y="0" on="1"/>
        <pt x="-45" y="0" on="1"/>
        <pt x="232" y="645" on="1"/>
        <pt x="251" y="690" on="0"/>
        <pt x="299" y="690" on="1"/>
        <pt x="471" y="690" on="1"/>
        <pt x="494" y="690" on="0"/>
        <pt x="529" y="660" on="0"/>
        <pt x="531" y="638" on="1"/>
        <pt x="629" y="0" on="1"/>
        <pt x="441" y="0" on="1"/>
      </contour>
      <contour>
        <pt x="410" y="303" on="1"/>
        <pt x="392" y="479" on="1"/>
        <pt x="389" y="503" on="0"/>
        <pt x="389" y="551" on="1"/>
        <pt x="360" y="551" on="1"/>
        <pt x="351" y="514" on="0"/>
        <pt x="339" y="480" on="1"/>
        <pt x="269" y="303" on="1"/>
      </contour>
    </TTGlyph>
    <TTGlyph name="Amacron" xMin="-45" yMin="0" xMax="629" yMax="885">
      <contour>
        <pt x="551" y="774" on="1"/>
        <pt x="241" y="774" on="1"/>
        <pt x="256" y="885" on="1"/>
        <pt x="567" y="885" on="1"/>
      </contour>
      <contour>
        <pt x="425" y="161" on="1"/>
        <pt x="214" y="161" on="1"/>
        <pt x="151" y="0" on="1"/>
        <pt x="-45" y="0" on="1"/>
        <pt x="232" y="645" on="1"/>
        <pt x="251" y="690" on="0"/>
        <pt x="299" y="690" on="1"/>
        <pt x="471" y="690" on="1"/>
        <pt x="494" y="690" on="0"/>
        <pt x="529" y="660" on="0"/>
        <pt x="531" y="638" on="1"/>
        <pt x="629" y="0" on="1"/>
        <pt x="441" y="0" on="1"/>
      </contour>
      <contour>
        <pt x="410" y="303" on="1"/>
        <pt x="392" y="479" on="1"/>
        <pt x="389" y="503" on="0"/>
        <pt x="389" y="551" on="1"/>
        <pt x="360" y="551" on="1"/>
        <pt x="351" y="514" on="0"/>
        <pt x="339" y="480" on="1"/>
        <pt x="269" y="303" on="1"/>
      </contour>
    </TTGlyph>
    <TTGlyph name="Aogonek" xMin="-45" yMin="-211" xMax="630" yMax="690">
      <contour>
        <pt x="531" y="638" on="1"/>
        <pt x="630" y="0" on="1"/>
        <pt x="589" y="-44" on="0"/>
        <pt x="566" y="-97" on="1"/>
        <pt x="557" y="-118" on="0"/>
        <pt x="577" y="-131" on="0"/>
        <pt x="606" y="-124" on="1"/>
        <pt x="620" y="-190" on="1"/>
        <pt x="573" y="-207" on="0"/>
        <pt x="497" y="-214" on="0"/>
        <pt x="453" y="-195" on="0"/>
        <pt x="425" y="-163" on="0"/>
        <pt x="429" y="-120" on="0"/>
        <pt x="438" y="-98" on="1"/>
        <pt x="464" y="-47" on="0"/>
        <pt x="542" y="0" on="1"/>
        <pt x="441" y="0" on="1"/>
        <pt x="425" y="161" on="1"/>
        <pt x="214" y="161" on="1"/>
        <pt x="151" y="0" on="1"/>
        <pt x="-45" y="0" on="1"/>
        <pt x="232" y="645" on="1"/>
        <pt x="251" y="690" on="0"/>
        <pt x="299" y="690" on="1"/>
        <pt x="471" y="690" on="1"/>
        <pt x="494" y="690" on="0"/>
        <pt x="529" y="660" on="0"/>
      </contour>
      <contour>
        <pt x="410" y="303" on="1"/>
        <pt x="392" y="479" on="1"/>
        <pt x="389" y="503" on="0"/>
        <pt x="389" y="551" on="1"/>
        <pt x="360" y="551" on="1"/>
        <pt x="351" y="514" on="0"/>
        <pt x="339" y="480" on="1"/>
        <pt x="269" y="303" on="1"/>
      </contour>
    </TTGlyph>
    <TTGlyph name="Aring" xMin="-45" yMin="0" xMax="629" yMax="951">
      <contour>
        <pt x="401" y="716" on="1"/>
        <pt x="346" y="716" on="0"/>
        <pt x="277" y="788" on="0"/>
        <pt x="284" y="840" on="1"/>
        <pt x="290" y="887" on="0"/>
        <pt x="359" y="951" on="0"/>
        <pt x="412" y="951" on="1"/>
        <pt x="466" y="951" on="0"/>
        <pt x="537" y="878" on="0"/>
        <pt x="530" y="826" on="1"/>
        <pt x="524" y="780" on="0"/>
        <pt x="455" y="716" on="0"/>
      </contour>
      <contour>
        <pt x="360" y="836" on="1"/>
        <pt x="358" y="812" on="0"/>
        <pt x="382" y="785" on="0"/>
        <pt x="403" y="785" on="1"/>
        <pt x="425" y="785" on="0"/>
        <pt x="453" y="813" on="0"/>
        <pt x="454" y="836" on="1"/>
        <pt x="455" y="857" on="0"/>
        <pt x="431" y="882" on="0"/>
        <pt x="410" y="882" on="1"/>
        <pt x="390" y="882" on="0"/>
        <pt x="362" y="856" on="0"/>
      </contour>
      <contour>
        <pt x="425" y="161" on="1"/>
        <pt x="214" y="161" on="1"/>
        <pt x="151" y="0" on="1"/>
        <pt x="-45" y="0" on="1"/>
        <pt x="232" y="645" on="1"/>
        <pt x="251" y="690" on="0"/>
        <pt x="299" y="690" on="1"/>
        <pt x="471" y="690" on="1"/>
        <pt x="494" y="690" on="0"/>
        <pt x="529" y="660" on="0"/>
        <pt x="531" y="638" on="1"/>
        <pt x="629" y="0" on="1"/>
        <pt x="441" y="0" on="1"/>
      </contour>
      <contour>
        <pt x="410" y="303" on="1"/>
        <pt x="392" y="479" on="1"/>
        <pt x="389" y="503" on="0"/>
        <pt x="389" y="551" on="1"/>
        <pt x="360" y="551" on="1"/>
        <pt x="351" y="514" on="0"/>
        <pt x="339" y="480" on="1"/>
        <pt x="269" y="303" on="1"/>
      </contour>
    </TTGlyph>
    <TTGlyph name="Atilde" xMin="-45" yMin="0" xMax="629" yMax="910">
      <contour>
        <pt x="288" y="750" on="1"/>
        <pt x="213" y="757" on="1"/>
        <pt x="212" y="834" on="0"/>
        <pt x="264" y="911" on="0"/>
        <pt x="309" y="910" on="1"/>
        <pt x="340" y="909" on="0"/>
        <pt x="455" y="866" on="0"/>
        <pt x="465" y="864" on="1"/>
        <pt x="490" y="859" on="0"/>
        <pt x="511" y="881" on="0"/>
        <pt x="515" y="909" on="1"/>
        <pt x="590" y="902" on="1"/>
        <pt x="592" y="825" on="0"/>
        <pt x="540" y="748" on="0"/>
        <pt x="496" y="749" on="1"/>
        <pt x="463" y="750" on="0"/>
        <pt x="348" y="794" on="0"/>
        <pt x="337" y="796" on="1"/>
        <pt x="312" y="800" on="0"/>
        <pt x="292" y="778" on="0"/>
      </contour>
      <contour>
        <pt x="425" y="161" on="1"/>
        <pt x="214" y="161" on="1"/>
        <pt x="151" y="0" on="1"/>
        <pt x="-45" y="0" on="1"/>
        <pt x="232" y="645" on="1"/>
        <pt x="251" y="690" on="0"/>
        <pt x="299" y="690" on="1"/>
        <pt x="471" y="690" on="1"/>
        <pt x="494" y="690" on="0"/>
        <pt x="529" y="660" on="0"/>
        <pt x="531" y="638" on="1"/>
        <pt x="629" y="0" on="1"/>
        <pt x="441" y="0" on="1"/>
      </contour>
      <contour>
        <pt x="410" y="303" on="1"/>
        <pt x="392" y="479" on="1"/>
        <pt x="389" y="503" on="0"/>
        <pt x="389" y="551" on="1"/>
        <pt x="360" y="551" on="1"/>
        <pt x="351" y="514" on="0"/>
        <pt x="339" y="480" on="1"/>
        <pt x="269" y="303" on="1"/>
      </contour>
    </TTGlyph>
    <TTGlyph name="B" xMin="19" yMin="-8" xMax="615" yMax="698">
      <contour>
        <pt x="19" y="0" on="1"/>
        <pt x="116" y="690" on="1"/>
        <pt x="210" y="698" on="0"/>
        <pt x="384" y="698" on="1"/>
        <pt x="522" y="698" on="0"/>
        <pt x="629" y="617" on="0"/>
        <pt x="615" y="511" on="1"/>
        <pt x="605" y="437" on="0"/>
        <pt x="542" y="366" on="0"/>
        <pt x="474" y="360" on="1"/>
        <pt x="473" y="355" on="1"/>
        <pt x="622" y="342" on="0"/>
        <pt x="597" y="165" on="1"/>
        <pt x="582" y="64" on="0"/>
        <pt x="468" y="-8" on="0"/>
        <pt x="338" y="-8" on="1"/>
        <pt x="125" y="-8" on="0"/>
      </contour>
      <contour>
        <pt x="261" y="417" on="1"/>
        <pt x="345" y="417" on="1"/>
        <pt x="392" y="417" on="0"/>
        <pt x="429" y="449" on="0"/>
        <pt x="436" y="499" on="1"/>
        <pt x="441" y="537" on="0"/>
        <pt x="417" y="563" on="0"/>
        <pt x="378" y="563" on="1"/>
        <pt x="282" y="564" on="1"/>
      </contour>
      <contour>
        <pt x="220" y="127" on="1"/>
        <pt x="303" y="127" on="1"/>
        <pt x="360" y="127" on="0"/>
        <pt x="402" y="162" on="0"/>
        <pt x="410" y="216" on="1"/>
        <pt x="417" y="266" on="0"/>
        <pt x="389" y="298" on="0"/>
        <pt x="341" y="298" on="1"/>
        <pt x="244" y="298" on="1"/>
      </contour>
    </TTGlyph>
    <TTGlyph name="C" xMin="47" yMin="-12" xMax="606" yMax="702">
      <contour>
        <pt x="532" y="156" on="1"/>
        <pt x="539" y="18" on="1"/>
        <pt x="442" y="-12" on="0"/>
        <pt x="308" y="-12" on="1"/>
        <pt x="140" y="-12" on="0"/>
        <pt x="19" y="154" on="0"/>
        <pt x="47" y="352" on="1"/>
        <pt x="75" y="555" on="0"/>
        <pt x="221" y="702" on="0"/>
        <pt x="389" y="702" on="1"/>
        <pt x="514" y="702" on="0"/>
        <pt x="606" y="676" on="1"/>
        <pt x="584" y="539" on="1"/>
        <pt x="479" y="542" on="0"/>
        <pt x="380" y="542" on="1"/>
        <pt x="335" y="542" on="0"/>
        <pt x="288" y="514" on="0"/>
        <pt x="255" y="427" on="0"/>
        <pt x="243" y="338" on="1"/>
        <pt x="226" y="224" on="0"/>
        <pt x="253" y="148" on="0"/>
        <pt x="316" y="148" on="1"/>
        <pt x="448" y="148" on="0"/>
      </contour>
    </TTGlyph>
    <TTGlyph name="Cacute" xMin="47" yMin="-12" xMax="609" yMax="951">
      <contour>
        <pt x="609" y="823" on="1"/>
        <pt x="356" y="722" on="1"/>
        <pt x="313" y="798" on="1"/>
        <pt x="547" y="951" on="1"/>
      </contour>
      <contour>
        <pt x="532" y="156" on="1"/>
        <pt x="539" y="18" on="1"/>
        <pt x="442" y="-12" on="0"/>
        <pt x="308" y="-12" on="1"/>
        <pt x="140" y="-12" on="0"/>
        <pt x="19" y="154" on="0"/>
        <pt x="47" y="352" on="1"/>
        <pt x="75" y="555" on="0"/>
        <pt x="221" y="702" on="0"/>
        <pt x="389" y="702" on="1"/>
        <pt x="514" y="702" on="0"/>
        <pt x="606" y="676" on="1"/>
        <pt x="584" y="539" on="1"/>
        <pt x="479" y="542" on="0"/>
        <pt x="380" y="542" on="1"/>
        <pt x="335" y="542" on="0"/>
        <pt x="288" y="514" on="0"/>
        <pt x="255" y="427" on="0"/>
        <pt x="243" y="338" on="1"/>
        <pt x="226" y="224" on="0"/>
        <pt x="253" y="148" on="0"/>
        <pt x="316" y="148" on="1"/>
        <pt x="448" y="148" on="0"/>
      </contour>
    </TTGlyph>
    <TTGlyph name="Ccaron" xMin="47" yMin="-12" xMax="611" yMax="940">
      <contour>
        <pt x="611" y="870" on="1"/>
        <pt x="441" y="739" on="1"/>
        <pt x="360" y="739" on="1"/>
        <pt x="210" y="881" on="1"/>
        <pt x="264" y="940" on="1"/>
        <pt x="401" y="854" on="1"/>
        <pt x="409" y="854" on="1"/>
        <pt x="573" y="937" on="1"/>
      </contour>
      <contour>
        <pt x="532" y="156" on="1"/>
        <pt x="539" y="18" on="1"/>
        <pt x="442" y="-12" on="0"/>
        <pt x="308" y="-12" on="1"/>
        <pt x="140" y="-12" on="0"/>
        <pt x="19" y="154" on="0"/>
        <pt x="47" y="352" on="1"/>
        <pt x="75" y="555" on="0"/>
        <pt x="221" y="702" on="0"/>
        <pt x="389" y="702" on="1"/>
        <pt x="514" y="702" on="0"/>
        <pt x="606" y="676" on="1"/>
        <pt x="584" y="539" on="1"/>
        <pt x="479" y="542" on="0"/>
        <pt x="380" y="542" on="1"/>
        <pt x="335" y="542" on="0"/>
        <pt x="288" y="514" on="0"/>
        <pt x="255" y="427" on="0"/>
        <pt x="243" y="338" on="1"/>
        <pt x="226" y="224" on="0"/>
        <pt x="253" y="148" on="0"/>
        <pt x="316" y="148" on="1"/>
        <pt x="448" y="148" on="0"/>
      </contour>
    </TTGlyph>
    <TTGlyph name="Ccedilla" xMin="47" yMin="-267" xMax="606" yMax="702">
      <contour>
        <pt x="532" y="156" on="1"/>
        <pt x="539" y="18" on="1"/>
        <pt x="442" y="-12" on="0"/>
        <pt x="308" y="-12" on="1"/>
        <pt x="140" y="-12" on="0"/>
        <pt x="19" y="154" on="0"/>
        <pt x="47" y="352" on="1"/>
        <pt x="75" y="555" on="0"/>
        <pt x="221" y="702" on="0"/>
        <pt x="389" y="702" on="1"/>
        <pt x="514" y="702" on="0"/>
        <pt x="606" y="676" on="1"/>
        <pt x="584" y="539" on="1"/>
        <pt x="479" y="542" on="0"/>
        <pt x="380" y="542" on="1"/>
        <pt x="335" y="542" on="0"/>
        <pt x="288" y="514" on="0"/>
        <pt x="255" y="427" on="0"/>
        <pt x="243" y="338" on="1"/>
        <pt x="226" y="224" on="0"/>
        <pt x="253" y="148" on="0"/>
        <pt x="316" y="148" on="1"/>
        <pt x="448" y="148" on="0"/>
      </contour>
      <contour>
        <pt x="189" y="-128" on="1"/>
        <pt x="206" y="-62" on="1"/>
        <pt x="257" y="-56" on="0"/>
        <pt x="332" y="-58" on="0"/>
        <pt x="369" y="-96" on="0"/>
        <pt x="362" y="-134" on="1"/>
        <pt x="349" y="-210" on="0"/>
        <pt x="220" y="-279" on="0"/>
        <pt x="130" y="-267" on="1"/>
        <pt x="150" y="-196" on="1"/>
        <pt x="237" y="-198" on="0"/>
        <pt x="249" y="-145" on="1"/>
        <pt x="250" y="-139" on="0"/>
        <pt x="248" y="-133" on="0"/>
        <pt x="235" y="-129" on="0"/>
        <pt x="211" y="-128" on="0"/>
      </contour>
    </TTGlyph>
    <TTGlyph name="Cdotaccent" xMin="47" yMin="-12" xMax="606" yMax="902">
      <contour>
        <pt x="389" y="902" on="1"/>
        <pt x="442" y="902" on="1"/>
        <pt x="466" y="902" on="0"/>
        <pt x="494" y="875" on="0"/>
        <pt x="491" y="850" on="1"/>
        <pt x="485" y="799" on="1"/>
        <pt x="479" y="753" on="0"/>
        <pt x="433" y="753" on="1"/>
        <pt x="378" y="753" on="1"/>
        <pt x="321" y="753" on="0"/>
        <pt x="329" y="806" on="1"/>
        <pt x="336" y="855" on="1"/>
        <pt x="342" y="902" on="0"/>
      </contour>
      <contour>
        <pt x="532" y="156" on="1"/>
        <pt x="539" y="18" on="1"/>
        <pt x="442" y="-12" on="0"/>
        <pt x="308" y="-12" on="1"/>
        <pt x="140" y="-12" on="0"/>
        <pt x="19" y="154" on="0"/>
        <pt x="47" y="352" on="1"/>
        <pt x="75" y="555" on="0"/>
        <pt x="221" y="702" on="0"/>
        <pt x="389" y="702" on="1"/>
        <pt x="514" y="702" on="0"/>
        <pt x="606" y="676" on="1"/>
        <pt x="584" y="539" on="1"/>
        <pt x="479" y="542" on="0"/>
        <pt x="380" y="542" on="1"/>
        <pt x="335" y="542" on="0"/>
        <pt x="288" y="514" on="0"/>
        <pt x="255" y="427" on="0"/>
        <pt x="243" y="338" on="1"/>
        <pt x="226" y="224" on="0"/>
        <pt x="253" y="148" on="0"/>
        <pt x="316" y="148" on="1"/>
        <pt x="448" y="148" on="0"/>
      </contour>
    </TTGlyph>
    <TTGlyph name="D" xMin="19" yMin="-10" xMax="658" yMax="700">
      <contour>
        <pt x="19" y="0" on="1"/>
        <pt x="116" y="690" on="1"/>
        <pt x="239" y="700" on="0"/>
        <pt x="381" y="700" on="1"/>
        <pt x="497" y="700" on="0"/>
        <pt x="627" y="637" on="0"/>
        <pt x="677" y="477" on="0"/>
        <pt x="658" y="338" on="1"/>
        <pt x="642" y="229" on="0"/>
        <pt x="595" y="96" on="0"/>
        <pt x="509" y="18" on="0"/>
        <pt x="396" y="-10" on="0"/>
        <pt x="306" y="-10" on="1"/>
        <pt x="164" y="-10" on="0"/>
      </contour>
      <contour>
        <pt x="225" y="132" on="1"/>
        <pt x="304" y="131" on="1"/>
        <pt x="353" y="131" on="0"/>
        <pt x="408" y="163" on="0"/>
        <pt x="449" y="259" on="0"/>
        <pt x="461" y="352" on="1"/>
        <pt x="478" y="482" on="0"/>
        <pt x="446" y="560" on="0"/>
        <pt x="375" y="560" on="1"/>
        <pt x="285" y="559" on="1"/>
      </contour>
    </TTGlyph>
    <TTGlyph name="Dcaron" xMin="19" yMin="-10" xMax="658" yMax="939">
      <contour>
        <pt x="354" y="738" on="1"/>
        <pt x="204" y="880" on="1"/>
        <pt x="258" y="939" on="1"/>
        <pt x="395" y="853" on="1"/>
        <pt x="403" y="853" on="1"/>
        <pt x="568" y="936" on="1"/>
        <pt x="606" y="869" on="1"/>
        <pt x="435" y="738" on="1"/>
      </contour>
      <contour>
        <pt x="19" y="0" on="1"/>
        <pt x="116" y="690" on="1"/>
        <pt x="239" y="700" on="0"/>
        <pt x="381" y="700" on="1"/>
        <pt x="497" y="700" on="0"/>
        <pt x="627" y="637" on="0"/>
        <pt x="677" y="477" on="0"/>
        <pt x="658" y="338" on="1"/>
        <pt x="642" y="229" on="0"/>
        <pt x="595" y="96" on="0"/>
        <pt x="509" y="18" on="0"/>
        <pt x="396" y="-10" on="0"/>
        <pt x="306" y="-10" on="1"/>
        <pt x="164" y="-10" on="0"/>
      </contour>
      <contour>
        <pt x="225" y="132" on="1"/>
        <pt x="304" y="131" on="1"/>
        <pt x="353" y="131" on="0"/>
        <pt x="408" y="163" on="0"/>
        <pt x="449" y="259" on="0"/>
        <pt x="461" y="352" on="1"/>
        <pt x="478" y="482" on="0"/>
        <pt x="446" y="560" on="0"/>
        <pt x="375" y="560" on="1"/>
        <pt x="285" y="559" on="1"/>
      </contour>
    </TTGlyph>
    <TTGlyph name="Dcroat" xMin="13" yMin="-10" xMax="658" yMax="700">
      <contour>
        <pt x="76" y="408" on="1"/>
        <pt x="116" y="690" on="1"/>
        <pt x="239" y="700" on="0"/>
        <pt x="381" y="700" on="1"/>
        <pt x="497" y="700" on="0"/>
        <pt x="627" y="637" on="0"/>
        <pt x="677" y="477" on="0"/>
        <pt x="658" y="338" on="1"/>
        <pt x="642" y="229" on="0"/>
        <pt x="595" y="96" on="0"/>
        <pt x="509" y="18" on="0"/>
        <pt x="396" y="-10" on="0"/>
        <pt x="306" y="-10" on="1"/>
        <pt x="164" y="-10" on="0"/>
        <pt x="19" y="0" on="1"/>
        <pt x="64" y="319" on="1"/>
        <pt x="13" y="319" on="1"/>
        <pt x="25" y="408" on="1"/>
      </contour>
      <contour>
        <pt x="225" y="132" on="1"/>
        <pt x="304" y="131" on="1"/>
        <pt x="353" y="131" on="0"/>
        <pt x="408" y="163" on="0"/>
        <pt x="449" y="259" on="0"/>
        <pt x="461" y="352" on="1"/>
        <pt x="478" y="482" on="0"/>
        <pt x="446" y="560" on="0"/>
        <pt x="375" y="560" on="1"/>
        <pt x="285" y="559" on="1"/>
        <pt x="264" y="408" on="1"/>
        <pt x="367" y="408" on="1"/>
        <pt x="354" y="319" on="1"/>
        <pt x="251" y="319" on="1"/>
      </contour>
    </TTGlyph>
    <TTGlyph name="Delta" xMin="-18" yMin="0" xMax="636" yMax="690">
      <contour>
        <pt x="636" y="61" on="1"/>
        <pt x="629" y="0" on="1"/>
        <pt x="-18" y="0" on="1"/>
        <pt x="-12" y="61" on="1"/>
        <pt x="308" y="690" on="1"/>
        <pt x="494" y="690" on="1"/>
      </contour>
      <contour>
        <pt x="441" y="135" on="1"/>
        <pt x="388" y="419" on="1"/>
        <pt x="381" y="472" on="0"/>
        <pt x="381" y="512" on="1"/>
        <pt x="362" y="447" on="0"/>
        <pt x="349" y="419" on="1"/>
        <pt x="212" y="135" on="1"/>
      </contour>
    </TTGlyph>
    <TTGlyph name="E" xMin="38" yMin="-3" xMax="596" yMax="693">
      <contour>
        <pt x="574" y="547" on="1"/>
        <pt x="326" y="547" on="1"/>
        <pt x="299" y="547" on="0"/>
        <pt x="275" y="527" on="0"/>
        <pt x="272" y="501" on="1"/>
        <pt x="261" y="419" on="1"/>
        <pt x="520" y="419" on="1"/>
        <pt x="504" y="291" on="1"/>
        <pt x="243" y="291" on="1"/>
        <pt x="229" y="187" on="1"/>
        <pt x="225" y="164" on="0"/>
        <pt x="244" y="143" on="0"/>
        <pt x="269" y="143" on="1"/>
        <pt x="516" y="143" on="1"/>
        <pt x="512" y="7" on="1"/>
        <pt x="427" y="-3" on="0"/>
        <pt x="192" y="-3" on="1"/>
        <pt x="107" y="-3" on="0"/>
        <pt x="27" y="93" on="0"/>
        <pt x="38" y="174" on="1"/>
        <pt x="90" y="548" on="1"/>
        <pt x="100" y="616" on="0"/>
        <pt x="188" y="693" on="0"/>
        <pt x="262" y="693" on="1"/>
        <pt x="504" y="693" on="0"/>
        <pt x="596" y="681" on="1"/>
      </contour>
    </TTGlyph>
    <TTGlyph name="Eacute" xMin="38" yMin="-3" xMax="596" yMax="956">
      <contour>
        <pt x="337" y="727" on="1"/>
        <pt x="294" y="802" on="1"/>
        <pt x="528" y="956" on="1"/>
        <pt x="590" y="827" on="1"/>
      </contour>
      <contour>
        <pt x="574" y="547" on="1"/>
        <pt x="326" y="547" on="1"/>
        <pt x="299" y="547" on="0"/>
        <pt x="275" y="527" on="0"/>
        <pt x="272" y="501" on="1"/>
        <pt x="261" y="419" on="1"/>
        <pt x="520" y="419" on="1"/>
        <pt x="504" y="291" on="1"/>
        <pt x="243" y="291" on="1"/>
        <pt x="229" y="187" on="1"/>
        <pt x="225" y="164" on="0"/>
        <pt x="244" y="143" on="0"/>
        <pt x="269" y="143" on="1"/>
        <pt x="516" y="143" on="1"/>
        <pt x="512" y="7" on="1"/>
        <pt x="427" y="-3" on="0"/>
        <pt x="192" y="-3" on="1"/>
        <pt x="107" y="-3" on="0"/>
        <pt x="27" y="93" on="0"/>
        <pt x="38" y="174" on="1"/>
        <pt x="90" y="548" on="1"/>
        <pt x="100" y="616" on="0"/>
        <pt x="188" y="693" on="0"/>
        <pt x="262" y="693" on="1"/>
        <pt x="504" y="693" on="0"/>
        <pt x="596" y="681" on="1"/>
      </contour>
    </TTGlyph>
    <TTGlyph name="Ecaron" xMin="38" yMin="-3" xMax="596" yMax="944">
      <contour>
        <pt x="340" y="743" on="1"/>
        <pt x="190" y="886" on="1"/>
        <pt x="244" y="944" on="1"/>
        <pt x="382" y="858" on="1"/>
        <pt x="390" y="858" on="1"/>
        <pt x="554" y="941" on="1"/>
        <pt x="592" y="874" on="1"/>
        <pt x="421" y="743" on="1"/>
      </contour>
      <contour>
        <pt x="574" y="547" on="1"/>
        <pt x="326" y="547" on="1"/>
        <pt x="299" y="547" on="0"/>
        <pt x="275" y="527" on="0"/>
        <pt x="272" y="501" on="1"/>
        <pt x="261" y="419" on="1"/>
        <pt x="520" y="419" on="1"/>
        <pt x="504" y="291" on="1"/>
        <pt x="243" y="291" on="1"/>
        <pt x="229" y="187" on="1"/>
        <pt x="225" y="164" on="0"/>
        <pt x="244" y="143" on="0"/>
        <pt x="269" y="143" on="1"/>
        <pt x="516" y="143" on="1"/>
        <pt x="512" y="7" on="1"/>
        <pt x="427" y="-3" on="0"/>
        <pt x="192" y="-3" on="1"/>
        <pt x="107" y="-3" on="0"/>
        <pt x="27" y="93" on="0"/>
        <pt x="38" y="174" on="1"/>
        <pt x="90" y="548" on="1"/>
        <pt x="100" y="616" on="0"/>
        <pt x="188" y="693" on="0"/>
        <pt x="262" y="693" on="1"/>
        <pt x="504" y="693" on="0"/>
        <pt x="596" y="681" on="1"/>
      </contour>
    </TTGlyph>
    <TTGlyph name="Ecircumflex" xMin="38" yMin="-3" xMax="596" yMax="925">
      <contour>
        <pt x="224" y="726" on="1"/>
        <pt x="181" y="791" on="1"/>
        <pt x="330" y="925" on="1"/>
        <pt x="453" y="925" on="1"/>
        <pt x="583" y="786" on="1"/>
        <pt x="532" y="725" on="1"/>
        <pt x="392" y="821" on="1"/>
        <pt x="384" y="821" on="1"/>
      </contour>
      <contour>
        <pt x="574" y="547" on="1"/>
        <pt x="326" y="547" on="1"/>
        <pt x="299" y="547" on="0"/>
        <pt x="275" y="527" on="0"/>
        <pt x="272" y="501" on="1"/>
        <pt x="261" y="419" on="1"/>
        <pt x="520" y="419" on="1"/>
        <pt x="504" y="291" on="1"/>
        <pt x="243" y="291" on="1"/>
        <pt x="229" y="187" on="1"/>
        <pt x="225" y="164" on="0"/>
        <pt x="244" y="143" on="0"/>
        <pt x="269" y="143" on="1"/>
        <pt x="516" y="143" on="1"/>
        <pt x="512" y="7" on="1"/>
        <pt x="427" y="-3" on="0"/>
        <pt x="192" y="-3" on="1"/>
        <pt x="107" y="-3" on="0"/>
        <pt x="27" y="93" on="0"/>
        <pt x="38" y="174" on="1"/>
        <pt x="90" y="548" on="1"/>
        <pt x="100" y="616" on="0"/>
        <pt x="188" y="693" on="0"/>
        <pt x="262" y="693" on="1"/>
        <pt x="504" y="693" on="0"/>
        <pt x="596" y="681" on="1"/>
      </contour>
    </TTGlyph>
    <TTGlyph name="Edieresis" xMin="38" yMin="-3" xMax="596" yMax="901">
      <contour>
        <pt x="508" y="768" on="1"/>
        <pt x="440" y="768" on="1"/>
        <pt x="405" y="768" on="0"/>
        <pt x="411" y="800" on="1"/>
        <pt x="421" y="869" on="1"/>
        <pt x="427" y="901" on="0"/>
        <pt x="457" y="901" on="1"/>
        <pt x="523" y="901" on="1"/>
        <pt x="557" y="901" on="0"/>
        <pt x="553" y="869" on="1"/>
        <pt x="542" y="800" on="1"/>
        <pt x="538" y="768" on="0"/>
      </contour>
      <contour>
        <pt x="326" y="768" on="1"/>
        <pt x="257" y="768" on="1"/>
        <pt x="224" y="768" on="0"/>
        <pt x="228" y="800" on="1"/>
        <pt x="239" y="868" on="1"/>
        <pt x="243" y="901" on="0"/>
        <pt x="276" y="901" on="1"/>
        <pt x="341" y="901" on="1"/>
        <pt x="376" y="901" on="0"/>
        <pt x="370" y="869" on="1"/>
        <pt x="359" y="799" on="1"/>
        <pt x="356" y="768" on="0"/>
      </contour>
      <contour>
        <pt x="574" y="547" on="1"/>
        <pt x="326" y="547" on="1"/>
        <pt x="299" y="547" on="0"/>
        <pt x="275" y="527" on="0"/>
        <pt x="272" y="501" on="1"/>
        <pt x="261" y="419" on="1"/>
        <pt x="520" y="419" on="1"/>
        <pt x="504" y="291" on="1"/>
        <pt x="243" y="291" on="1"/>
        <pt x="229" y="187" on="1"/>
        <pt x="225" y="164" on="0"/>
        <pt x="244" y="143" on="0"/>
        <pt x="269" y="143" on="1"/>
        <pt x="516" y="143" on="1"/>
        <pt x="512" y="7" on="1"/>
        <pt x="427" y="-3" on="0"/>
        <pt x="192" y="-3" on="1"/>
        <pt x="107" y="-3" on="0"/>
        <pt x="27" y="93" on="0"/>
        <pt x="38" y="174" on="1"/>
        <pt x="90" y="548" on="1"/>
        <pt x="100" y="616" on="0"/>
        <pt x="188" y="693" on="0"/>
        <pt x="262" y="693" on="1"/>
        <pt x="504" y="693" on="0"/>
        <pt x="596" y="681" on="1"/>
      </contour>
    </TTGlyph>
    <TTGlyph name="Edotaccent" xMin="38" yMin="-3" xMax="596" yMax="906">
      <contour>
        <pt x="414" y="758" on="1"/>
        <pt x="359" y="758" on="1"/>
        <pt x="302" y="758" on="0"/>
        <pt x="310" y="811" on="1"/>
        <pt x="316" y="860" on="1"/>
        <pt x="323" y="906" on="0"/>
        <pt x="370" y="906" on="1"/>
        <pt x="422" y="906" on="1"/>
        <pt x="447" y="906" on="0"/>
        <pt x="474" y="880" on="0"/>
        <pt x="472" y="855" on="1"/>
        <pt x="466" y="804" on="1"/>
        <pt x="460" y="758" on="0"/>
      </contour>
      <contour>
        <pt x="574" y="547" on="1"/>
        <pt x="326" y="547" on="1"/>
        <pt x="299" y="547" on="0"/>
        <pt x="275" y="527" on="0"/>
        <pt x="272" y="501" on="1"/>
        <pt x="261" y="419" on="1"/>
        <pt x="520" y="419" on="1"/>
        <pt x="504" y="291" on="1"/>
        <pt x="243" y="291" on="1"/>
        <pt x="229" y="187" on="1"/>
        <pt x="225" y="164" on="0"/>
        <pt x="244" y="143" on="0"/>
        <pt x="269" y="143" on="1"/>
        <pt x="516" y="143" on="1"/>
        <pt x="512" y="7" on="1"/>
        <pt x="427" y="-3" on="0"/>
        <pt x="192" y="-3" on="1"/>
        <pt x="107" y="-3" on="0"/>
        <pt x="27" y="93" on="0"/>
        <pt x="38" y="174" on="1"/>
        <pt x="90" y="548" on="1"/>
        <pt x="100" y="616" on="0"/>
        <pt x="188" y="693" on="0"/>
        <pt x="262" y="693" on="1"/>
        <pt x="504" y="693" on="0"/>
        <pt x="596" y="681" on="1"/>
      </contour>
    </TTGlyph>
    <TTGlyph name="Egrave" xMin="38" yMin="-3" xMax="596" yMax="951">
      <contour>
        <pt x="416" y="727" on="1"/>
        <pt x="180" y="836" on="1"/>
        <pt x="254" y="951" on="1"/>
        <pt x="474" y="802" on="1"/>
      </contour>
      <contour>
        <pt x="574" y="547" on="1"/>
        <pt x="326" y="547" on="1"/>
        <pt x="299" y="547" on="0"/>
        <pt x="275" y="527" on="0"/>
        <pt x="272" y="501" on="1"/>
        <pt x="261" y="419" on="1"/>
        <pt x="520" y="419" on="1"/>
        <pt x="504" y="291" on="1"/>
        <pt x="243" y="291" on="1"/>
        <pt x="229" y="187" on="1"/>
        <pt x="225" y="164" on="0"/>
        <pt x="244" y="143" on="0"/>
        <pt x="269" y="143" on="1"/>
        <pt x="516" y="143" on="1"/>
        <pt x="512" y="7" on="1"/>
        <pt x="427" y="-3" on="0"/>
        <pt x="192" y="-3" on="1"/>
        <pt x="107" y="-3" on="0"/>
        <pt x="27" y="93" on="0"/>
        <pt x="38" y="174" on="1"/>
        <pt x="90" y="548" on="1"/>
        <pt x="100" y="616" on="0"/>
        <pt x="188" y="693" on="0"/>
        <pt x="262" y="693" on="1"/>
        <pt x="504" y="693" on="0"/>
        <pt x="596" y="681" on="1"/>
      </contour>
    </TTGlyph>
    <TTGlyph name="Emacron" xMin="38" yMin="-3" xMax="596" yMax="890">
      <contour>
        <pt x="537" y="779" on="1"/>
        <pt x="226" y="779" on="1"/>
        <pt x="241" y="890" on="1"/>
        <pt x="552" y="890" on="1"/>
      </contour>
      <contour>
        <pt x="574" y="547" on="1"/>
        <pt x="326" y="547" on="1"/>
        <pt x="299" y="547" on="0"/>
        <pt x="275" y="527" on="0"/>
        <pt x="272" y="501" on="1"/>
        <pt x="261" y="419" on="1"/>
        <pt x="520" y="419" on="1"/>
        <pt x="504" y="291" on="1"/>
        <pt x="243" y="291" on="1"/>
        <pt x="229" y="187" on="1"/>
        <pt x="225" y="164" on="0"/>
        <pt x="244" y="143" on="0"/>
        <pt x="269" y="143" on="1"/>
        <pt x="516" y="143" on="1"/>
        <pt x="512" y="7" on="1"/>
        <pt x="427" y="-3" on="0"/>
        <pt x="192" y="-3" on="1"/>
        <pt x="107" y="-3" on="0"/>
        <pt x="27" y="93" on="0"/>
        <pt x="38" y="174" on="1"/>
        <pt x="90" y="548" on="1"/>
        <pt x="100" y="616" on="0"/>
        <pt x="188" y="693" on="0"/>
        <pt x="262" y="693" on="1"/>
        <pt x="504" y="693" on="0"/>
        <pt x="596" y="681" on="1"/>
      </contour>
    </TTGlyph>
    <TTGlyph name="Eng" xMin="19" yMin="-207" xMax="724" yMax="690">
      <contour>
        <pt x="724" y="690" on="1"/>
        <pt x="620" y="-47" on="1"/>
        <pt x="609" y="-124" on="0"/>
        <pt x="526" y="-207" on="0"/>
        <pt x="466" y="-207" on="1"/>
        <pt x="386" y="-207" on="0"/>
        <pt x="331" y="-182" on="1"/>
        <pt x="363" y="-66" on="1"/>
        <pt x="397" y="-66" on="1"/>
        <pt x="450" y="-66" on="0"/>
        <pt x="458" y="-25" on="1"/>
        <pt x="464" y="10" on="1"/>
        <pt x="454" y="9" on="1"/>
        <pt x="450" y="9" on="0"/>
        <pt x="443" y="15" on="0"/>
        <pt x="436" y="27" on="0"/>
        <pt x="432" y="36" on="0"/>
        <pt x="424" y="54" on="0"/>
        <pt x="423" y="57" on="1"/>
        <pt x="291" y="349" on="1"/>
        <pt x="275" y="384" on="0"/>
        <pt x="260" y="459" on="1"/>
        <pt x="252" y="459" on="1"/>
        <pt x="252" y="400" on="0"/>
        <pt x="243" y="341" on="1"/>
        <pt x="194" y="0" on="1"/>
        <pt x="19" y="0" on="1"/>
        <pt x="107" y="628" on="1"/>
        <pt x="116" y="690" on="0"/>
        <pt x="176" y="690" on="1"/>
        <pt x="257" y="690" on="1"/>
        <pt x="285" y="690" on="0"/>
        <pt x="312" y="663" on="0"/>
        <pt x="324" y="632" on="1"/>
        <pt x="446" y="352" on="1"/>
        <pt x="474" y="289" on="0"/>
        <pt x="485" y="237" on="1"/>
        <pt x="493" y="237" on="1"/>
        <pt x="492" y="287" on="0"/>
        <pt x="501" y="361" on="1"/>
        <pt x="549" y="690" on="1"/>
      </contour>
    </TTGlyph>
    <TTGlyph name="Eogonek" xMin="38" yMin="-204" xMax="596" yMax="693">
      <contour>
        <pt x="574" y="547" on="1"/>
        <pt x="326" y="547" on="1"/>
        <pt x="299" y="547" on="0"/>
        <pt x="275" y="527" on="0"/>
        <pt x="272" y="501" on="1"/>
        <pt x="261" y="419" on="1"/>
        <pt x="520" y="419" on="1"/>
        <pt x="504" y="291" on="1"/>
        <pt x="243" y="291" on="1"/>
        <pt x="229" y="187" on="1"/>
        <pt x="225" y="164" on="0"/>
        <pt x="244" y="143" on="0"/>
        <pt x="269" y="143" on="1"/>
        <pt x="516" y="143" on="1"/>
        <pt x="512" y="7" on="1"/>
        <pt x="471" y="-37" on="0"/>
        <pt x="448" y="-90" on="1"/>
        <pt x="439" y="-110" on="0"/>
        <pt x="459" y="-124" on="0"/>
        <pt x="488" y="-117" on="1"/>
        <pt x="503" y="-183" on="1"/>
        <pt x="456" y="-200" on="0"/>
        <pt x="379" y="-207" on="0"/>
        <pt x="336" y="-188" on="0"/>
        <pt x="307" y="-156" on="0"/>
        <pt x="311" y="-112" on="0"/>
        <pt x="320" y="-91" on="1"/>
        <pt x="344" y="-45" on="0"/>
        <pt x="412" y="0" on="1"/>
        <pt x="357" y="-3" on="0"/>
        <pt x="192" y="-3" on="1"/>
        <pt x="107" y="-3" on="0"/>
        <pt x="27" y="93" on="0"/>
        <pt x="38" y="174" on="1"/>
        <pt x="90" y="548" on="1"/>
        <pt x="100" y="616" on="0"/>
        <pt x="188" y="693" on="0"/>
        <pt x="262" y="693" on="1"/>
        <pt x="504" y="693" on="0"/>
        <pt x="596" y="681" on="1"/>
      </contour>
    </TTGlyph>
    <TTGlyph name="Eth" xMin="13" yMin="-10" xMax="658" yMax="700">
      <contour>
        <pt x="76" y="408" on="1"/>
        <pt x="116" y="690" on="1"/>
        <pt x="239" y="700" on="0"/>
        <pt x="381" y="700" on="1"/>
        <pt x="497" y="700" on="0"/>
        <pt x="627" y="637" on="0"/>
        <pt x="677" y="477" on="0"/>
        <pt x="658" y="338" on="1"/>
        <pt x="642" y="229" on="0"/>
        <pt x="595" y="96" on="0"/>
        <pt x="509" y="18" on="0"/>
        <pt x="396" y="-10" on="0"/>
        <pt x="306" y="-10" on="1"/>
        <pt x="164" y="-10" on="0"/>
        <pt x="19" y="0" on="1"/>
        <pt x="64" y="319" on="1"/>
        <pt x="13" y="319" on="1"/>
        <pt x="25" y="408" on="1"/>
      </contour>
      <contour>
        <pt x="225" y="132" on="1"/>
        <pt x="304" y="131" on="1"/>
        <pt x="353" y="131" on="0"/>
        <pt x="408" y="163" on="0"/>
        <pt x="449" y="259" on="0"/>
        <pt x="461" y="352" on="1"/>
        <pt x="478" y="482" on="0"/>
        <pt x="446" y="560" on="0"/>
        <pt x="375" y="560" on="1"/>
        <pt x="285" y="559" on="1"/>
        <pt x="264" y="408" on="1"/>
        <pt x="367" y="408" on="1"/>
        <pt x="354" y="319" on="1"/>
        <pt x="251" y="319" on="1"/>
      </contour>
    </TTGlyph>
    <TTGlyph name="Euro" xMin="24" yMin="-12" xMax="638" yMax="702">
      <contour>
        <pt x="59" y="467" on="1"/>
        <pt x="127" y="467" on="1"/>
        <pt x="161" y="589" on="0"/>
        <pt x="315" y="702" on="0"/>
        <pt x="457" y="702" on="1"/>
        <pt x="556" y="702" on="0"/>
        <pt x="638" y="676" on="1"/>
        <pt x="615" y="546" on="1"/>
        <pt x="593" y="549" on="0"/>
        <pt x="485" y="551" on="0"/>
        <pt x="443" y="548" on="1"/>
        <pt x="397" y="543" on="0"/>
        <pt x="343" y="507" on="0"/>
        <pt x="327" y="467" on="1"/>
        <pt x="535" y="467" on="1"/>
        <pt x="511" y="365" on="1"/>
        <pt x="44" y="365" on="1"/>
      </contour>
      <contour>
        <pt x="471" y="228" on="1"/>
        <pt x="291" y="228" on="1"/>
        <pt x="298" y="147" on="0"/>
        <pt x="370" y="139" on="1"/>
        <pt x="447" y="130" on="0"/>
        <pt x="565" y="150" on="1"/>
        <pt x="573" y="17" on="1"/>
        <pt x="491" y="-12" on="0"/>
        <pt x="377" y="-12" on="1"/>
        <pt x="240" y="-12" on="0"/>
        <pt x="103" y="106" on="0"/>
        <pt x="97" y="228" on="1"/>
        <pt x="24" y="228" on="1"/>
        <pt x="38" y="331" on="1"/>
        <pt x="494" y="331" on="1"/>
      </contour>
    </TTGlyph>
    <TTGlyph name="F" xMin="17" yMin="0" xMax="591" yMax="693">
      <contour>
        <pt x="570" y="547" on="1"/>
        <pt x="334" y="547" on="1"/>
        <pt x="304" y="547" on="0"/>
        <pt x="279" y="528" on="0"/>
        <pt x="275" y="501" on="1"/>
        <pt x="262" y="405" on="1"/>
        <pt x="513" y="405" on="1"/>
        <pt x="496" y="278" on="1"/>
        <pt x="244" y="278" on="1"/>
        <pt x="205" y="0" on="1"/>
        <pt x="17" y="0" on="1"/>
        <pt x="93" y="547" on="1"/>
        <pt x="103" y="616" on="0"/>
        <pt x="194" y="693" on="0"/>
        <pt x="264" y="693" on="1"/>
        <pt x="501" y="693" on="0"/>
        <pt x="591" y="680" on="1"/>
      </contour>
    </TTGlyph>
    <TTGlyph name="G" xMin="48" yMin="-14" xMax="636" yMax="704">
      <contour>
        <pt x="450" y="398" on="1"/>
        <pt x="629" y="398" on="1"/>
        <pt x="573" y="0" on="1"/>
        <pt x="436" y="0" on="1"/>
        <pt x="429" y="82" on="1"/>
        <pt x="337" y="-14" on="0"/>
        <pt x="225" y="-14" on="1"/>
        <pt x="-1" y="-14" on="0"/>
        <pt x="48" y="352" on="1"/>
        <pt x="63" y="460" on="0"/>
        <pt x="117" y="597" on="0"/>
        <pt x="210" y="675" on="0"/>
        <pt x="327" y="704" on="0"/>
        <pt x="414" y="704" on="1"/>
        <pt x="539" y="704" on="0"/>
        <pt x="636" y="676" on="1"/>
        <pt x="614" y="541" on="1"/>
        <pt x="508" y="544" on="0"/>
        <pt x="407" y="544" on="1"/>
        <pt x="327" y="544" on="0"/>
        <pt x="261" y="461" on="0"/>
        <pt x="243" y="338" on="1"/>
        <pt x="228" y="225" on="0"/>
        <pt x="254" y="147" on="0"/>
        <pt x="309" y="147" on="1"/>
        <pt x="335" y="147" on="0"/>
        <pt x="379" y="163" on="0"/>
        <pt x="401" y="179" on="0"/>
        <pt x="421" y="195" on="1"/>
      </contour>
    </TTGlyph>
    <TTGlyph name="Gbreve" xMin="48" yMin="-14" xMax="636" yMax="912">
      <contour>
        <pt x="517" y="912" on="1"/>
        <pt x="600" y="898" on="1"/>
        <pt x="601" y="830" on="0"/>
        <pt x="499" y="738" on="0"/>
        <pt x="413" y="738" on="1"/>
        <pt x="326" y="738" on="0"/>
        <pt x="237" y="838" on="0"/>
        <pt x="257" y="904" on="1"/>
        <pt x="342" y="909" on="1"/>
        <pt x="338" y="878" on="0"/>
        <pt x="375" y="851" on="0"/>
        <pt x="419" y="851" on="1"/>
        <pt x="511" y="851" on="0"/>
      </contour>
      <contour>
        <pt x="450" y="398" on="1"/>
        <pt x="629" y="398" on="1"/>
        <pt x="573" y="0" on="1"/>
        <pt x="436" y="0" on="1"/>
        <pt x="429" y="82" on="1"/>
        <pt x="337" y="-14" on="0"/>
        <pt x="225" y="-14" on="1"/>
        <pt x="-1" y="-14" on="0"/>
        <pt x="48" y="352" on="1"/>
        <pt x="63" y="460" on="0"/>
        <pt x="117" y="597" on="0"/>
        <pt x="210" y="675" on="0"/>
        <pt x="327" y="704" on="0"/>
        <pt x="414" y="704" on="1"/>
        <pt x="539" y="704" on="0"/>
        <pt x="636" y="676" on="1"/>
        <pt x="614" y="541" on="1"/>
        <pt x="508" y="544" on="0"/>
        <pt x="407" y="544" on="1"/>
        <pt x="327" y="544" on="0"/>
        <pt x="261" y="461" on="0"/>
        <pt x="243" y="338" on="1"/>
        <pt x="228" y="225" on="0"/>
        <pt x="254" y="147" on="0"/>
        <pt x="309" y="147" on="1"/>
        <pt x="335" y="147" on="0"/>
        <pt x="379" y="163" on="0"/>
        <pt x="401" y="179" on="0"/>
        <pt x="421" y="195" on="1"/>
      </contour>
    </TTGlyph>
    <TTGlyph name="Gcommaaccent" xMin="48" yMin="-304" xMax="636" yMax="704">
      <contour>
        <pt x="450" y="398" on="1"/>
        <pt x="629" y="398" on="1"/>
        <pt x="573" y="0" on="1"/>
        <pt x="436" y="0" on="1"/>
        <pt x="429" y="82" on="1"/>
        <pt x="337" y="-14" on="0"/>
        <pt x="225" y="-14" on="1"/>
        <pt x="-1" y="-14" on="0"/>
        <pt x="48" y="352" on="1"/>
        <pt x="63" y="460" on="0"/>
        <pt x="117" y="597" on="0"/>
        <pt x="210" y="675" on="0"/>
        <pt x="327" y="704" on="0"/>
        <pt x="414" y="704" on="1"/>
        <pt x="539" y="704" on="0"/>
        <pt x="636" y="676" on="1"/>
        <pt x="614" y="541" on="1"/>
        <pt x="508" y="544" on="0"/>
        <pt x="407" y="544" on="1"/>
        <pt x="327" y="544" on="0"/>
        <pt x="261" y="461" on="0"/>
        <pt x="243" y="338" on="1"/>
        <pt x="228" y="225" on="0"/>
        <pt x="254" y="147" on="0"/>
        <pt x="309" y="147" on="1"/>
        <pt x="335" y="147" on="0"/>
        <pt x="379" y="163" on="0"/>
        <pt x="401" y="179" on="0"/>
        <pt x="421" y="195" on="1"/>
      </contour>
      <contour>
        <pt x="299" y="-50" on="1"/>
        <pt x="331" y="-50" on="1"/>
        <pt x="363" y="-50" on="0"/>
        <pt x="387" y="-74" on="0"/>
        <pt x="383" y="-101" on="1"/>
        <pt x="375" y="-151" on="1"/>
        <pt x="369" y="-189" on="0"/>
        <pt x="327" y="-274" on="0"/>
        <pt x="300" y="-304" on="1"/>
        <pt x="231" y="-282" on="1"/>
        <pt x="249" y="-247" on="0"/>
        <pt x="268" y="-179" on="1"/>
        <pt x="242" y="-180" on="0"/>
        <pt x="223" y="-158" on="0"/>
        <pt x="226" y="-135" on="1"/>
        <pt x="232" y="-97" on="1"/>
        <pt x="237" y="-70" on="0"/>
        <pt x="267" y="-50" on="0"/>
      </contour>
    </TTGlyph>
    <TTGlyph name="Gdotaccent" xMin="48" yMin="-14" xMax="636" yMax="901">
      <contour>
        <pt x="441" y="752" on="1"/>
        <pt x="386" y="752" on="1"/>
        <pt x="330" y="752" on="0"/>
        <pt x="338" y="806" on="1"/>
        <pt x="344" y="855" on="1"/>
        <pt x="351" y="901" on="0"/>
        <pt x="398" y="901" on="1"/>
        <pt x="450" y="901" on="1"/>
        <pt x="475" y="901" on="0"/>
        <pt x="502" y="874" on="0"/>
        <pt x="499" y="849" on="1"/>
        <pt x="494" y="799" on="1"/>
        <pt x="488" y="752" on="0"/>
      </contour>
      <contour>
        <pt x="450" y="398" on="1"/>
        <pt x="629" y="398" on="1"/>
        <pt x="573" y="0" on="1"/>
        <pt x="436" y="0" on="1"/>
        <pt x="429" y="82" on="1"/>
        <pt x="337" y="-14" on="0"/>
        <pt x="225" y="-14" on="1"/>
        <pt x="-1" y="-14" on="0"/>
        <pt x="48" y="352" on="1"/>
        <pt x="63" y="460" on="0"/>
        <pt x="117" y="597" on="0"/>
        <pt x="210" y="675" on="0"/>
        <pt x="327" y="704" on="0"/>
        <pt x="414" y="704" on="1"/>
        <pt x="539" y="704" on="0"/>
        <pt x="636" y="676" on="1"/>
        <pt x="614" y="541" on="1"/>
        <pt x="508" y="544" on="0"/>
        <pt x="407" y="544" on="1"/>
        <pt x="327" y="544" on="0"/>
        <pt x="261" y="461" on="0"/>
        <pt x="243" y="338" on="1"/>
        <pt x="228" y="225" on="0"/>
        <pt x="254" y="147" on="0"/>
        <pt x="309" y="147" on="1"/>
        <pt x="335" y="147" on="0"/>
        <pt x="379" y="163" on="0"/>
        <pt x="401" y="179" on="0"/>
        <pt x="421" y="195" on="1"/>
      </contour>
    </TTGlyph>
    <TTGlyph name="H" xMin="19" yMin="0" xMax="691" yMax="690">
      <contour>
        <pt x="691" y="690" on="1"/>
        <pt x="594" y="0" on="1"/>
        <pt x="406" y="0" on="1"/>
        <pt x="448" y="297" on="1"/>
        <pt x="249" y="297" on="1"/>
        <pt x="207" y="0" on="1"/>
        <pt x="19" y="0" on="1"/>
        <pt x="116" y="690" on="1"/>
        <pt x="304" y="690" on="1"/>
        <pt x="269" y="435" on="1"/>
        <pt x="467" y="435" on="1"/>
        <pt x="503" y="690" on="1"/>
      </contour>
    </TTGlyph>
    <TTGlyph name="Hbar" xMin="19" yMin="0" xMax="735" yMax="690">
      <contour>
        <pt x="723" y="511" on="1"/>
        <pt x="666" y="511" on="1"/>
        <pt x="594" y="0" on="1"/>
        <pt x="406" y="0" on="1"/>
        <pt x="448" y="297" on="1"/>
        <pt x="249" y="297" on="1"/>
        <pt x="207" y="0" on="1"/>
        <pt x="19" y="0" on="1"/>
        <pt x="91" y="511" on="1"/>
        <pt x="36" y="511" on="1"/>
        <pt x="48" y="594" on="1"/>
        <pt x="103" y="594" on="1"/>
        <pt x="116" y="690" on="1"/>
        <pt x="304" y="690" on="1"/>
        <pt x="291" y="594" on="1"/>
        <pt x="490" y="594" on="1"/>
        <pt x="503" y="690" on="1"/>
        <pt x="691" y="690" on="1"/>
        <pt x="677" y="594" on="1"/>
        <pt x="735" y="594" on="1"/>
      </contour>
      <contour>
        <pt x="478" y="511" on="1"/>
        <pt x="279" y="511" on="1"/>
        <pt x="269" y="435" on="1"/>
        <pt x="467" y="435" on="1"/>
      </contour>
    </TTGlyph>
    <TTGlyph name="I" xMin="19" yMin="0" xMax="304" yMax="690">
      <contour>
        <pt x="207" y="0" on="1"/>
        <pt x="19" y="0" on="1"/>
        <pt x="116" y="690" on="1"/>
        <pt x="304" y="690" on="1"/>
      </contour>
    </TTGlyph>
    <TTGlyph name="IJ" xMin="19" yMin="-13" xMax="687" yMax="690">
      <contour>
        <pt x="207" y="0" on="1"/>
        <pt x="19" y="0" on="1"/>
        <pt x="116" y="690" on="1"/>
        <pt x="304" y="690" on="1"/>
      </contour>
      <contour>
        <pt x="687" y="690" on="1"/>
        <pt x="610" y="132" on="1"/>
        <pt x="600" y="62" on="0"/>
        <pt x="507" y="-13" on="0"/>
        <pt x="434" y="-13" on="1"/>
        <pt x="397" y="-13" on="0"/>
        <pt x="308" y="1" on="0"/>
        <pt x="288" y="12" on="1"/>
        <pt x="318" y="131" on="1"/>
        <pt x="357" y="131" on="1"/>
        <pt x="421" y="131" on="0"/>
        <pt x="426" y="178" on="1"/>
        <pt x="500" y="690" on="1"/>
      </contour>
    </TTGlyph>
    <TTGlyph name="Iacute" xMin="19" yMin="0" xMax="429" yMax="951">
      <contour>
        <pt x="429" y="822" on="1"/>
        <pt x="176" y="721" on="1"/>
        <pt x="133" y="797" on="1"/>
        <pt x="367" y="951" on="1"/>
      </contour>
      <contour>
        <pt x="207" y="0" on="1"/>
        <pt x="19" y="0" on="1"/>
        <pt x="116" y="690" on="1"/>
        <pt x="304" y="690" on="1"/>
      </contour>
    </TTGlyph>
    <TTGlyph name="Icircumflex" xMin="19" yMin="0" xMax="422" yMax="920">
      <contour>
        <pt x="422" y="781" on="1"/>
        <pt x="371" y="720" on="1"/>
        <pt x="231" y="816" on="1"/>
        <pt x="223" y="816" on="1"/>
        <pt x="63" y="721" on="1"/>
        <pt x="20" y="785" on="1"/>
        <pt x="169" y="920" on="1"/>
        <pt x="292" y="920" on="1"/>
      </contour>
      <contour>
        <pt x="207" y="0" on="1"/>
        <pt x="19" y="0" on="1"/>
        <pt x="116" y="690" on="1"/>
        <pt x="304" y="690" on="1"/>
      </contour>
    </TTGlyph>
    <TTGlyph name="Idieresis" xMin="19" yMin="0" xMax="392" yMax="896">
      <contour>
        <pt x="296" y="896" on="1"/>
        <pt x="363" y="896" on="1"/>
        <pt x="396" y="896" on="0"/>
        <pt x="392" y="864" on="1"/>
        <pt x="381" y="795" on="1"/>
        <pt x="378" y="763" on="0"/>
        <pt x="347" y="763" on="1"/>
        <pt x="279" y="763" on="1"/>
        <pt x="246" y="763" on="0"/>
        <pt x="250" y="794" on="1"/>
        <pt x="260" y="863" on="1"/>
        <pt x="263" y="881" on="0"/>
        <pt x="279" y="896" on="0"/>
      </contour>
      <contour>
        <pt x="115" y="896" on="1"/>
        <pt x="180" y="896" on="1"/>
        <pt x="215" y="896" on="0"/>
        <pt x="209" y="864" on="1"/>
        <pt x="199" y="794" on="1"/>
        <pt x="195" y="763" on="0"/>
        <pt x="165" y="763" on="1"/>
        <pt x="96" y="763" on="1"/>
        <pt x="63" y="763" on="0"/>
        <pt x="67" y="794" on="1"/>
        <pt x="78" y="863" on="1"/>
        <pt x="82" y="896" on="0"/>
      </contour>
      <contour>
        <pt x="207" y="0" on="1"/>
        <pt x="19" y="0" on="1"/>
        <pt x="116" y="690" on="1"/>
        <pt x="304" y="690" on="1"/>
      </contour>
    </TTGlyph>
    <TTGlyph name="Idotaccent" xMin="19" yMin="0" xMax="311" yMax="901">
      <contour>
        <pt x="209" y="901" on="1"/>
        <pt x="261" y="901" on="1"/>
        <pt x="286" y="901" on="0"/>
        <pt x="314" y="874" on="0"/>
        <pt x="311" y="849" on="1"/>
        <pt x="305" y="799" on="1"/>
        <pt x="299" y="752" on="0"/>
        <pt x="253" y="752" on="1"/>
        <pt x="198" y="752" on="1"/>
        <pt x="141" y="752" on="0"/>
        <pt x="149" y="806" on="1"/>
        <pt x="156" y="855" on="1"/>
        <pt x="162" y="901" on="0"/>
      </contour>
      <contour>
        <pt x="207" y="0" on="1"/>
        <pt x="19" y="0" on="1"/>
        <pt x="116" y="690" on="1"/>
        <pt x="304" y="690" on="1"/>
      </contour>
    </TTGlyph>
    <TTGlyph name="Igrave" xMin="19" yMin="0" xMax="314" yMax="946">
      <contour>
        <pt x="314" y="797" on="1"/>
        <pt x="255" y="721" on="1"/>
        <pt x="19" y="831" on="1"/>
        <pt x="93" y="946" on="1"/>
      </contour>
      <contour>
        <pt x="207" y="0" on="1"/>
        <pt x="19" y="0" on="1"/>
        <pt x="116" y="690" on="1"/>
        <pt x="304" y="690" on="1"/>
      </contour>
    </TTGlyph>
    <TTGlyph name="Imacron" xMin="19" yMin="0" xMax="391" yMax="885">
      <contour>
        <pt x="376" y="774" on="1"/>
        <pt x="65" y="774" on="1"/>
        <pt x="81" y="885" on="1"/>
        <pt x="391" y="885" on="1"/>
      </contour>
      <contour>
        <pt x="207" y="0" on="1"/>
        <pt x="19" y="0" on="1"/>
        <pt x="116" y="690" on="1"/>
        <pt x="304" y="690" on="1"/>
      </contour>
    </TTGlyph>
    <TTGlyph name="Iogonek" xMin="-21" yMin="-211" xMax="304" yMax="690">
      <contour>
        <pt x="304" y="690" on="1"/>
        <pt x="207" y="0" on="1"/>
        <pt x="182" y="0" on="1"/>
        <pt x="141" y="-44" on="0"/>
        <pt x="118" y="-97" on="1"/>
        <pt x="109" y="-118" on="0"/>
        <pt x="129" y="-131" on="0"/>
        <pt x="158" y="-124" on="1"/>
        <pt x="172" y="-190" on="1"/>
        <pt x="125" y="-207" on="0"/>
        <pt x="49" y="-214" on="0"/>
        <pt x="5" y="-195" on="0"/>
        <pt x="-23" y="-163" on="0"/>
        <pt x="-19" y="-120" on="0"/>
        <pt x="-10" y="-98" on="1"/>
        <pt x="16" y="-48" on="0"/>
        <pt x="94" y="0" on="1"/>
        <pt x="19" y="0" on="1"/>
        <pt x="116" y="690" on="1"/>
      </contour>
    </TTGlyph>
    <TTGlyph name="J" xMin="-20" yMin="-13" xMax="379" yMax="690">
      <contour>
        <pt x="379" y="690" on="1"/>
        <pt x="302" y="132" on="1"/>
        <pt x="292" y="62" on="0"/>
        <pt x="199" y="-13" on="0"/>
        <pt x="126" y="-13" on="1"/>
        <pt x="88" y="-13" on="0"/>
        <pt x="0" y="1" on="0"/>
        <pt x="-20" y="12" on="1"/>
        <pt x="10" y="131" on="1"/>
        <pt x="49" y="131" on="1"/>
        <pt x="112" y="131" on="0"/>
        <pt x="118" y="178" on="1"/>
        <pt x="192" y="690" on="1"/>
      </contour>
    </TTGlyph>
    <TTGlyph name="K" xMin="19" yMin="0" xMax="700" yMax="690">
      <contour>
        <pt x="431" y="348" on="1"/>
        <pt x="430" y="343" on="1"/>
        <pt x="459" y="327" on="0"/>
        <pt x="480" y="277" on="1"/>
        <pt x="611" y="0" on="1"/>
        <pt x="407" y="0" on="1"/>
        <pt x="284" y="295" on="1"/>
        <pt x="241" y="295" on="1"/>
        <pt x="244" y="257" on="0"/>
        <pt x="240" y="227" on="1"/>
        <pt x="208" y="0" on="1"/>
        <pt x="19" y="0" on="1"/>
        <pt x="116" y="690" on="1"/>
        <pt x="305" y="690" on="1"/>
        <pt x="277" y="494" on="1"/>
        <pt x="272" y="456" on="0"/>
        <pt x="261" y="421" on="1"/>
        <pt x="305" y="421" on="1"/>
        <pt x="489" y="690" on="1"/>
        <pt x="700" y="690" on="1"/>
        <pt x="497" y="404" on="1"/>
        <pt x="472" y="365" on="0"/>
      </contour>
    </TTGlyph>
    <TTGlyph name="Kcommaaccent" xMin="19" yMin="-304" xMax="700" yMax="690">
      <contour>
        <pt x="431" y="348" on="1"/>
        <pt x="430" y="343" on="1"/>
        <pt x="459" y="327" on="0"/>
        <pt x="480" y="277" on="1"/>
        <pt x="611" y="0" on="1"/>
        <pt x="407" y="0" on="1"/>
        <pt x="284" y="295" on="1"/>
        <pt x="241" y="295" on="1"/>
        <pt x="244" y="257" on="0"/>
        <pt x="240" y="227" on="1"/>
        <pt x="208" y="0" on="1"/>
        <pt x="19" y="0" on="1"/>
        <pt x="116" y="690" on="1"/>
        <pt x="305" y="690" on="1"/>
        <pt x="277" y="494" on="1"/>
        <pt x="272" y="456" on="0"/>
        <pt x="261" y="421" on="1"/>
        <pt x="305" y="421" on="1"/>
        <pt x="489" y="690" on="1"/>
        <pt x="700" y="690" on="1"/>
        <pt x="497" y="404" on="1"/>
        <pt x="472" y="365" on="0"/>
      </contour>
      <contour>
        <pt x="284" y="-50" on="1"/>
        <pt x="315" y="-50" on="1"/>
        <pt x="347" y="-50" on="0"/>
        <pt x="372" y="-74" on="0"/>
        <pt x="368" y="-101" on="1"/>
        <pt x="360" y="-151" on="1"/>
        <pt x="353" y="-189" on="0"/>
        <pt x="312" y="-274" on="0"/>
        <pt x="285" y="-304" on="1"/>
        <pt x="216" y="-282" on="1"/>
        <pt x="235" y="-241" on="0"/>
        <pt x="253" y="-179" on="1"/>
        <pt x="227" y="-180" on="0"/>
        <pt x="207" y="-158" on="0"/>
        <pt x="210" y="-135" on="1"/>
        <pt x="217" y="-97" on="1"/>
        <pt x="222" y="-70" on="0"/>
        <pt x="252" y="-50" on="0"/>
      </contour>
    </TTGlyph>
    <TTGlyph name="L" xMin="39" yMin="-3" xMax="501" yMax="690">
      <contour>
        <pt x="301" y="690" on="1"/>
        <pt x="229" y="195" on="1"/>
        <pt x="227" y="171" on="0"/>
        <pt x="244" y="150" on="0"/>
        <pt x="269" y="150" on="1"/>
        <pt x="501" y="150" on="1"/>
        <pt x="497" y="8" on="1"/>
        <pt x="407" y="-3" on="0"/>
        <pt x="185" y="-3" on="1"/>
        <pt x="111" y="-3" on="0"/>
        <pt x="29" y="85" on="0"/>
        <pt x="39" y="157" on="1"/>
        <pt x="113" y="690" on="1"/>
      </contour>
    </TTGlyph>
    <TTGlyph name="Lacute" xMin="39" yMin="-3" xMax="501" yMax="941">
      <contour>
        <pt x="427" y="812" on="1"/>
        <pt x="174" y="711" on="1"/>
        <pt x="131" y="787" on="1"/>
        <pt x="365" y="941" on="1"/>
      </contour>
      <contour>
        <pt x="301" y="690" on="1"/>
        <pt x="229" y="195" on="1"/>
        <pt x="227" y="171" on="0"/>
        <pt x="244" y="150" on="0"/>
        <pt x="269" y="150" on="1"/>
        <pt x="501" y="150" on="1"/>
        <pt x="497" y="8" on="1"/>
        <pt x="407" y="-3" on="0"/>
        <pt x="185" y="-3" on="1"/>
        <pt x="111" y="-3" on="0"/>
        <pt x="29" y="85" on="0"/>
        <pt x="39" y="157" on="1"/>
        <pt x="113" y="690" on="1"/>
      </contour>
    </TTGlyph>
    <TTGlyph name="Lcaron" xMin="39" yMin="-3" xMax="501" yMax="691">
      <contour>
        <pt x="417" y="691" on="1"/>
        <pt x="448" y="691" on="1"/>
        <pt x="480" y="691" on="0"/>
        <pt x="505" y="666" on="0"/>
        <pt x="501" y="639" on="1"/>
        <pt x="493" y="589" on="1"/>
        <pt x="487" y="551" on="0"/>
        <pt x="445" y="466" on="0"/>
        <pt x="418" y="436" on="1"/>
        <pt x="349" y="458" on="1"/>
        <pt x="369" y="500" on="0"/>
        <pt x="386" y="562" on="1"/>
        <pt x="360" y="561" on="0"/>
        <pt x="341" y="583" on="0"/>
        <pt x="343" y="605" on="1"/>
        <pt x="350" y="643" on="1"/>
        <pt x="355" y="670" on="0"/>
        <pt x="386" y="691" on="0"/>
      </contour>
      <contour>
        <pt x="301" y="690" on="1"/>
        <pt x="229" y="195" on="1"/>
        <pt x="227" y="171" on="0"/>
        <pt x="244" y="150" on="0"/>
        <pt x="269" y="150" on="1"/>
        <pt x="501" y="150" on="1"/>
        <pt x="497" y="8" on="1"/>
        <pt x="407" y="-3" on="0"/>
        <pt x="185" y="-3" on="1"/>
        <pt x="111" y="-3" on="0"/>
        <pt x="29" y="85" on="0"/>
        <pt x="39" y="157" on="1"/>
        <pt x="113" y="690" on="1"/>
      </contour>
    </TTGlyph>
    <TTGlyph name="Lcommaaccent" xMin="39" yMin="-304" xMax="501" yMax="690">
      <contour>
        <pt x="301" y="690" on="1"/>
        <pt x="229" y="195" on="1"/>
        <pt x="227" y="171" on="0"/>
        <pt x="244" y="150" on="0"/>
        <pt x="269" y="150" on="1"/>
        <pt x="501" y="150" on="1"/>
        <pt x="497" y="8" on="1"/>
        <pt x="407" y="-3" on="0"/>
        <pt x="185" y="-3" on="1"/>
        <pt x="111" y="-3" on="0"/>
        <pt x="29" y="85" on="0"/>
        <pt x="39" y="157" on="1"/>
        <pt x="113" y="690" on="1"/>
      </contour>
      <contour>
        <pt x="244" y="-50" on="1"/>
        <pt x="276" y="-50" on="1"/>
        <pt x="308" y="-50" on="0"/>
        <pt x="332" y="-74" on="0"/>
        <pt x="328" y="-101" on="1"/>
        <pt x="320" y="-151" on="1"/>
        <pt x="314" y="-189" on="0"/>
        <pt x="272" y="-274" on="0"/>
        <pt x="245" y="-304" on="1"/>
        <pt x="176" y="-282" on="1"/>
        <pt x="194" y="-247" on="0"/>
        <pt x="213" y="-179" on="1"/>
        <pt x="187" y="-180" on="0"/>
        <pt x="168" y="-158" on="0"/>
        <pt x="171" y="-135" on="1"/>
        <pt x="177" y="-97" on="1"/>
        <pt x="182" y="-70" on="0"/>
        <pt x="212" y="-50" on="0"/>
      </contour>
    </TTGlyph>
    <TTGlyph name="Ldot" xMin="39" yMin="-3" xMax="517" yMax="690">
      <contour>
        <pt x="301" y="690" on="1"/>
        <pt x="229" y="195" on="1"/>
        <pt x="227" y="171" on="0"/>
        <pt x="244" y="150" on="0"/>
        <pt x="269" y="150" on="1"/>
        <pt x="501" y="150" on="1"/>
        <pt x="497" y="8" on="1"/>
        <pt x="407" y="-3" on="0"/>
        <pt x="185" y="-3" on="1"/>
        <pt x="111" y="-3" on="0"/>
        <pt x="29" y="85" on="0"/>
        <pt x="39" y="157" on="1"/>
        <pt x="113" y="690" on="1"/>
      </contour>
      <contour>
        <pt x="457" y="342" on="1"/>
        <pt x="405" y="342" on="1"/>
        <pt x="381" y="342" on="0"/>
        <pt x="353" y="369" on="0"/>
        <pt x="356" y="394" on="1"/>
        <pt x="361" y="445" on="1"/>
        <pt x="367" y="491" on="0"/>
        <pt x="414" y="491" on="1"/>
        <pt x="469" y="491" on="1"/>
        <pt x="525" y="491" on="0"/>
        <pt x="517" y="438" on="1"/>
        <pt x="511" y="389" on="1"/>
        <pt x="503" y="342" on="0"/>
      </contour>
    </TTGlyph>
    <TTGlyph name="Lslash" xMin="8" yMin="-3" xMax="504" yMax="690">
      <contour>
        <pt x="504" y="150" on="1"/>
        <pt x="500" y="8" on="1"/>
        <pt x="410" y="-3" on="0"/>
        <pt x="188" y="-3" on="1"/>
        <pt x="113" y="-3" on="0"/>
        <pt x="31" y="85" on="0"/>
        <pt x="42" y="157" on="1"/>
        <pt x="61" y="297" on="1"/>
        <pt x="8" y="277" on="1"/>
        <pt x="20" y="371" on="1"/>
        <pt x="74" y="391" on="1"/>
        <pt x="115" y="690" on="1"/>
        <pt x="304" y="690" on="1"/>
        <pt x="271" y="464" on="1"/>
        <pt x="380" y="505" on="1"/>
        <pt x="367" y="411" on="1"/>
        <pt x="257" y="370" on="1"/>
        <pt x="232" y="195" on="1"/>
        <pt x="229" y="171" on="0"/>
        <pt x="246" y="150" on="0"/>
        <pt x="272" y="150" on="1"/>
      </contour>
    </TTGlyph>
    <TTGlyph name="M" xMin="7" yMin="0" xMax="903" yMax="690">
      <contour>
        <pt x="668" y="690" on="1"/>
        <pt x="840" y="690" on="1"/>
        <pt x="873" y="690" on="0"/>
        <pt x="907" y="652" on="0"/>
        <pt x="903" y="620" on="1"/>
        <pt x="841" y="0" on="1"/>
        <pt x="669" y="0" on="1"/>
        <pt x="726" y="547" on="1"/>
        <pt x="711" y="547" on="1"/>
        <pt x="573" y="158" on="1"/>
        <pt x="556" y="103" on="0"/>
        <pt x="496" y="103" on="1"/>
        <pt x="391" y="103" on="1"/>
        <pt x="360" y="103" on="0"/>
        <pt x="325" y="136" on="0"/>
        <pt x="323" y="165" on="1"/>
        <pt x="290" y="547" on="1"/>
        <pt x="274" y="547" on="1"/>
        <pt x="179" y="0" on="1"/>
        <pt x="7" y="0" on="1"/>
        <pt x="120" y="627" on="1"/>
        <pt x="126" y="660" on="0"/>
        <pt x="158" y="690" on="0"/>
        <pt x="190" y="690" on="1"/>
        <pt x="356" y="690" on="1"/>
        <pt x="385" y="690" on="0"/>
        <pt x="420" y="657" on="0"/>
        <pt x="421" y="628" on="1"/>
        <pt x="446" y="322" on="1"/>
        <pt x="449" y="289" on="0"/>
        <pt x="447" y="221" on="1"/>
        <pt x="459" y="221" on="1"/>
        <pt x="468" y="260" on="0"/>
        <pt x="487" y="320" on="1"/>
        <pt x="592" y="634" on="1"/>
        <pt x="607" y="690" on="0"/>
      </contour>
    </TTGlyph>
    <TTGlyph name="N" xMin="19" yMin="0" xMax="720" yMax="690">
      <contour>
        <pt x="720" y="690" on="1"/>
        <pt x="632" y="62" on="1"/>
        <pt x="627" y="30" on="0"/>
        <pt x="595" y="0" on="0"/>
        <pt x="563" y="0" on="1"/>
        <pt x="485" y="0" on="1"/>
        <pt x="458" y="0" on="0"/>
        <pt x="431" y="27" on="0"/>
        <pt x="417" y="58" on="1"/>
        <pt x="291" y="355" on="1"/>
        <pt x="273" y="394" on="0"/>
        <pt x="258" y="464" on="1"/>
        <pt x="249" y="464" on="1"/>
        <pt x="250" y="406" on="0"/>
        <pt x="243" y="345" on="1"/>
        <pt x="193" y="0" on="1"/>
        <pt x="19" y="0" on="1"/>
        <pt x="107" y="628" on="1"/>
        <pt x="116" y="690" on="0"/>
        <pt x="176" y="690" on="1"/>
        <pt x="254" y="690" on="1"/>
        <pt x="281" y="690" on="0"/>
        <pt x="307" y="663" on="0"/>
        <pt x="321" y="632" on="1"/>
        <pt x="445" y="347" on="1"/>
        <pt x="470" y="290" on="0"/>
        <pt x="484" y="231" on="1"/>
        <pt x="494" y="231" on="1"/>
        <pt x="490" y="286" on="0"/>
        <pt x="498" y="346" on="1"/>
        <pt x="546" y="690" on="1"/>
      </contour>
    </TTGlyph>
    <TTGlyph name="Nacute" xMin="19" yMin="0" xMax="720" yMax="951">
      <contour>
        <pt x="634" y="822" on="1"/>
        <pt x="381" y="721" on="1"/>
        <pt x="339" y="797" on="1"/>
        <pt x="573" y="951" on="1"/>
      </contour>
      <contour>
        <pt x="720" y="690" on="1"/>
        <pt x="632" y="62" on="1"/>
        <pt x="627" y="30" on="0"/>
        <pt x="595" y="0" on="0"/>
        <pt x="563" y="0" on="1"/>
        <pt x="485" y="0" on="1"/>
        <pt x="458" y="0" on="0"/>
        <pt x="431" y="27" on="0"/>
        <pt x="417" y="58" on="1"/>
        <pt x="291" y="355" on="1"/>
        <pt x="273" y="394" on="0"/>
        <pt x="258" y="464" on="1"/>
        <pt x="249" y="464" on="1"/>
        <pt x="250" y="406" on="0"/>
        <pt x="243" y="345" on="1"/>
        <pt x="193" y="0" on="1"/>
        <pt x="19" y="0" on="1"/>
        <pt x="107" y="628" on="1"/>
        <pt x="116" y="690" on="0"/>
        <pt x="176" y="690" on="1"/>
        <pt x="254" y="690" on="1"/>
        <pt x="281" y="690" on="0"/>
        <pt x="307" y="663" on="0"/>
        <pt x="321" y="632" on="1"/>
        <pt x="445" y="347" on="1"/>
        <pt x="470" y="290" on="0"/>
        <pt x="484" y="231" on="1"/>
        <pt x="494" y="231" on="1"/>
        <pt x="490" y="286" on="0"/>
        <pt x="498" y="346" on="1"/>
        <pt x="546" y="690" on="1"/>
      </contour>
    </TTGlyph>
    <TTGlyph name="Ncaron" xMin="19" yMin="0" xMax="720" yMax="939">
      <contour>
        <pt x="636" y="869" on="1"/>
        <pt x="466" y="738" on="1"/>
        <pt x="385" y="738" on="1"/>
        <pt x="235" y="880" on="1"/>
        <pt x="289" y="939" on="1"/>
        <pt x="426" y="853" on="1"/>
        <pt x="434" y="853" on="1"/>
        <pt x="599" y="936" on="1"/>
      </contour>
      <contour>
        <pt x="720" y="690" on="1"/>
        <pt x="632" y="62" on="1"/>
        <pt x="627" y="30" on="0"/>
        <pt x="595" y="0" on="0"/>
        <pt x="563" y="0" on="1"/>
        <pt x="485" y="0" on="1"/>
        <pt x="458" y="0" on="0"/>
        <pt x="431" y="27" on="0"/>
        <pt x="417" y="58" on="1"/>
        <pt x="291" y="355" on="1"/>
        <pt x="273" y="394" on="0"/>
        <pt x="258" y="464" on="1"/>
        <pt x="249" y="464" on="1"/>
        <pt x="250" y="406" on="0"/>
        <pt x="243" y="345" on="1"/>
        <pt x="193" y="0" on="1"/>
        <pt x="19" y="0" on="1"/>
        <pt x="107" y="628" on="1"/>
        <pt x="116" y="690" on="0"/>
        <pt x="176" y="690" on="1"/>
        <pt x="254" y="690" on="1"/>
        <pt x="281" y="690" on="0"/>
        <pt x="307" y="663" on="0"/>
        <pt x="321" y="632" on="1"/>
        <pt x="445" y="347" on="1"/>
        <pt x="470" y="290" on="0"/>
        <pt x="484" y="231" on="1"/>
        <pt x="494" y="231" on="1"/>
        <pt x="490" y="286" on="0"/>
        <pt x="498" y="346" on="1"/>
        <pt x="546" y="690" on="1"/>
      </contour>
    </TTGlyph>
    <TTGlyph name="Ncommaaccent" xMin="19" yMin="-304" xMax="720" yMax="690">
      <contour>
        <pt x="720" y="690" on="1"/>
        <pt x="632" y="62" on="1"/>
        <pt x="627" y="30" on="0"/>
        <pt x="595" y="0" on="0"/>
        <pt x="563" y="0" on="1"/>
        <pt x="485" y="0" on="1"/>
        <pt x="458" y="0" on="0"/>
        <pt x="431" y="27" on="0"/>
        <pt x="417" y="58" on="1"/>
        <pt x="291" y="355" on="1"/>
        <pt x="273" y="394" on="0"/>
        <pt x="258" y="464" on="1"/>
        <pt x="249" y="464" on="1"/>
        <pt x="250" y="406" on="0"/>
        <pt x="243" y="345" on="1"/>
        <pt x="193" y="0" on="1"/>
        <pt x="19" y="0" on="1"/>
        <pt x="107" y="628" on="1"/>
        <pt x="116" y="690" on="0"/>
        <pt x="176" y="690" on="1"/>
        <pt x="254" y="690" on="1"/>
        <pt x="281" y="690" on="0"/>
        <pt x="307" y="663" on="0"/>
        <pt x="321" y="632" on="1"/>
        <pt x="445" y="347" on="1"/>
        <pt x="470" y="290" on="0"/>
        <pt x="484" y="231" on="1"/>
        <pt x="494" y="231" on="1"/>
        <pt x="490" y="286" on="0"/>
        <pt x="498" y="346" on="1"/>
        <pt x="546" y="690" on="1"/>
      </contour>
      <contour>
        <pt x="326" y="-50" on="1"/>
        <pt x="357" y="-50" on="1"/>
        <pt x="389" y="-50" on="0"/>
        <pt x="414" y="-73" on="0"/>
        <pt x="410" y="-101" on="1"/>
        <pt x="402" y="-151" on="1"/>
        <pt x="387" y="-235" on="0"/>
        <pt x="327" y="-304" on="1"/>
        <pt x="258" y="-282" on="1"/>
        <pt x="277" y="-241" on="0"/>
        <pt x="295" y="-179" on="1"/>
        <pt x="269" y="-180" on="0"/>
        <pt x="249" y="-158" on="0"/>
        <pt x="252" y="-135" on="1"/>
        <pt x="259" y="-97" on="1"/>
        <pt x="264" y="-70" on="0"/>
        <pt x="294" y="-50" on="0"/>
      </contour>
    </TTGlyph>
    <TTGlyph name="Ntilde" xMin="19" yMin="0" xMax="720" yMax="910">
      <contour>
        <pt x="318" y="750" on="1"/>
        <pt x="243" y="757" on="1"/>
        <pt x="242" y="834" on="0"/>
        <pt x="295" y="911" on="0"/>
        <pt x="339" y="910" on="1"/>
        <pt x="370" y="909" on="0"/>
        <pt x="485" y="866" on="0"/>
        <pt x="495" y="864" on="1"/>
        <pt x="520" y="859" on="0"/>
        <pt x="542" y="882" on="0"/>
        <pt x="545" y="909" on="1"/>
        <pt x="620" y="902" on="1"/>
        <pt x="622" y="825" on="0"/>
        <pt x="571" y="748" on="0"/>
        <pt x="526" y="749" on="1"/>
        <pt x="493" y="750" on="0"/>
        <pt x="378" y="794" on="0"/>
        <pt x="367" y="796" on="1"/>
        <pt x="342" y="800" on="0"/>
        <pt x="322" y="778" on="0"/>
      </contour>
      <contour>
        <pt x="720" y="690" on="1"/>
        <pt x="632" y="62" on="1"/>
        <pt x="627" y="30" on="0"/>
        <pt x="595" y="0" on="0"/>
        <pt x="563" y="0" on="1"/>
        <pt x="485" y="0" on="1"/>
        <pt x="458" y="0" on="0"/>
        <pt x="431" y="27" on="0"/>
        <pt x="417" y="58" on="1"/>
        <pt x="291" y="355" on="1"/>
        <pt x="273" y="394" on="0"/>
        <pt x="258" y="464" on="1"/>
        <pt x="249" y="464" on="1"/>
        <pt x="250" y="406" on="0"/>
        <pt x="243" y="345" on="1"/>
        <pt x="193" y="0" on="1"/>
        <pt x="19" y="0" on="1"/>
        <pt x="107" y="628" on="1"/>
        <pt x="116" y="690" on="0"/>
        <pt x="176" y="690" on="1"/>
        <pt x="254" y="690" on="1"/>
        <pt x="281" y="690" on="0"/>
        <pt x="307" y="663" on="0"/>
        <pt x="321" y="632" on="1"/>
        <pt x="445" y="347" on="1"/>
        <pt x="470" y="290" on="0"/>
        <pt x="484" y="231" on="1"/>
        <pt x="494" y="231" on="1"/>
        <pt x="490" y="286" on="0"/>
        <pt x="498" y="346" on="1"/>
        <pt x="546" y="690" on="1"/>
      </contour>
    </TTGlyph>
    <TTGlyph name="O" xMin="47" yMin="-14" xMax="660" yMax="704">
      <contour>
        <pt x="388" y="704" on="1"/>
        <pt x="558" y="704" on="0"/>
        <pt x="688" y="543" on="0"/>
        <pt x="660" y="338" on="1"/>
        <pt x="646" y="233" on="0"/>
        <pt x="595" y="97" on="0"/>
        <pt x="510" y="17" on="0"/>
        <pt x="399" y="-14" on="0"/>
        <pt x="316" y="-14" on="1"/>
        <pt x="143" y="-14" on="0"/>
        <pt x="19" y="145" on="0"/>
        <pt x="47" y="352" on="1"/>
        <pt x="75" y="555" on="0"/>
        <pt x="225" y="704" on="0"/>
      </contour>
      <contour>
        <pt x="385" y="560" on="1"/>
        <pt x="319" y="560" on="0"/>
        <pt x="264" y="473" on="0"/>
        <pt x="243" y="338" on="1"/>
        <pt x="225" y="212" on="0"/>
        <pt x="256" y="130" on="0"/>
        <pt x="320" y="130" on="1"/>
        <pt x="387" y="130" on="0"/>
        <pt x="443" y="217" on="0"/>
        <pt x="463" y="352" on="1"/>
        <pt x="481" y="480" on="0"/>
        <pt x="450" y="560" on="0"/>
      </contour>
    </TTGlyph>
    <TTGlyph name="OE" xMin="47" yMin="-14" xMax="979" yMax="704">
      <contour>
        <pt x="956" y="547" on="1"/>
        <pt x="713" y="547" on="1"/>
        <pt x="692" y="547" on="0"/>
        <pt x="662" y="522" on="0"/>
        <pt x="660" y="501" on="1"/>
        <pt x="648" y="416" on="1"/>
        <pt x="902" y="416" on="1"/>
        <pt x="887" y="295" on="1"/>
        <pt x="631" y="295" on="1"/>
        <pt x="615" y="182" on="1"/>
        <pt x="609" y="143" on="0"/>
        <pt x="649" y="143" on="1"/>
        <pt x="898" y="143" on="1"/>
        <pt x="895" y="7" on="1"/>
        <pt x="810" y="-3" on="0"/>
        <pt x="570" y="-3" on="1"/>
        <pt x="517" y="-3" on="0"/>
        <pt x="479" y="19" on="1"/>
        <pt x="405" y="-14" on="0"/>
        <pt x="311" y="-14" on="1"/>
        <pt x="135" y="-14" on="0"/>
        <pt x="17" y="142" on="0"/>
        <pt x="47" y="352" on="1"/>
        <pt x="76" y="557" on="0"/>
        <pt x="224" y="704" on="0"/>
        <pt x="391" y="704" on="1"/>
        <pt x="490" y="704" on="0"/>
        <pt x="565" y="677" on="1"/>
        <pt x="597" y="693" on="0"/>
        <pt x="641" y="693" on="1"/>
        <pt x="886" y="693" on="0"/>
        <pt x="979" y="681" on="1"/>
      </contour>
      <contour>
        <pt x="478" y="548" on="1"/>
        <pt x="479" y="553" on="1"/>
        <pt x="447" y="560" on="0"/>
        <pt x="391" y="560" on="1"/>
        <pt x="324" y="560" on="0"/>
        <pt x="262" y="467" on="0"/>
        <pt x="243" y="338" on="1"/>
        <pt x="225" y="213" on="0"/>
        <pt x="252" y="130" on="0"/>
        <pt x="310" y="130" on="1"/>
        <pt x="382" y="130" on="0"/>
        <pt x="422" y="144" on="1"/>
        <pt x="423" y="155" on="1"/>
      </contour>
    </TTGlyph>
    <TTGlyph name="Oacute" xMin="47" yMin="-14" xMax="660" yMax="951">
      <contour>
        <pt x="621" y="822" on="1"/>
        <pt x="368" y="721" on="1"/>
        <pt x="325" y="797" on="1"/>
        <pt x="559" y="951" on="1"/>
      </contour>
      <contour>
        <pt x="388" y="704" on="1"/>
        <pt x="558" y="704" on="0"/>
        <pt x="688" y="543" on="0"/>
        <pt x="660" y="338" on="1"/>
        <pt x="646" y="233" on="0"/>
        <pt x="595" y="97" on="0"/>
        <pt x="510" y="17" on="0"/>
        <pt x="399" y="-14" on="0"/>
        <pt x="316" y="-14" on="1"/>
        <pt x="143" y="-14" on="0"/>
        <pt x="19" y="145" on="0"/>
        <pt x="47" y="352" on="1"/>
        <pt x="75" y="555" on="0"/>
        <pt x="225" y="704" on="0"/>
      </contour>
      <contour>
        <pt x="385" y="560" on="1"/>
        <pt x="319" y="560" on="0"/>
        <pt x="264" y="473" on="0"/>
        <pt x="243" y="338" on="1"/>
        <pt x="225" y="212" on="0"/>
        <pt x="256" y="130" on="0"/>
        <pt x="320" y="130" on="1"/>
        <pt x="387" y="130" on="0"/>
        <pt x="443" y="217" on="0"/>
        <pt x="463" y="352" on="1"/>
        <pt x="481" y="480" on="0"/>
        <pt x="450" y="560" on="0"/>
      </contour>
    </TTGlyph>
    <TTGlyph name="Ocircumflex" xMin="47" yMin="-14" xMax="660" yMax="920">
      <contour>
        <pt x="614" y="781" on="1"/>
        <pt x="563" y="720" on="1"/>
        <pt x="423" y="816" on="1"/>
        <pt x="415" y="816" on="1"/>
        <pt x="255" y="721" on="1"/>
        <pt x="212" y="785" on="1"/>
        <pt x="361" y="920" on="1"/>
        <pt x="484" y="920" on="1"/>
      </contour>
      <contour>
        <pt x="388" y="704" on="1"/>
        <pt x="558" y="704" on="0"/>
        <pt x="688" y="543" on="0"/>
        <pt x="660" y="338" on="1"/>
        <pt x="646" y="233" on="0"/>
        <pt x="595" y="97" on="0"/>
        <pt x="510" y="17" on="0"/>
        <pt x="399" y="-14" on="0"/>
        <pt x="316" y="-14" on="1"/>
        <pt x="143" y="-14" on="0"/>
        <pt x="19" y="145" on="0"/>
        <pt x="47" y="352" on="1"/>
        <pt x="75" y="555" on="0"/>
        <pt x="225" y="704" on="0"/>
      </contour>
      <contour>
        <pt x="385" y="560" on="1"/>
        <pt x="319" y="560" on="0"/>
        <pt x="264" y="473" on="0"/>
        <pt x="243" y="338" on="1"/>
        <pt x="225" y="212" on="0"/>
        <pt x="256" y="130" on="0"/>
        <pt x="320" y="130" on="1"/>
        <pt x="387" y="130" on="0"/>
        <pt x="443" y="217" on="0"/>
        <pt x="463" y="352" on="1"/>
        <pt x="481" y="480" on="0"/>
        <pt x="450" y="560" on="0"/>
      </contour>
    </TTGlyph>
    <TTGlyph name="Odieresis" xMin="47" yMin="-14" xMax="660" yMax="896">
      <contour>
        <pt x="488" y="896" on="1"/>
        <pt x="555" y="896" on="1"/>
        <pt x="588" y="896" on="0"/>
        <pt x="584" y="864" on="1"/>
        <pt x="573" y="795" on="1"/>
        <pt x="570" y="763" on="0"/>
        <pt x="539" y="763" on="1"/>
        <pt x="471" y="763" on="1"/>
        <pt x="436" y="763" on="0"/>
        <pt x="442" y="794" on="1"/>
        <pt x="452" y="863" on="1"/>
        <pt x="455" y="881" on="0"/>
        <pt x="471" y="896" on="0"/>
      </contour>
      <contour>
        <pt x="307" y="896" on="1"/>
        <pt x="372" y="896" on="1"/>
        <pt x="407" y="896" on="0"/>
        <pt x="401" y="864" on="1"/>
        <pt x="391" y="794" on="1"/>
        <pt x="387" y="763" on="0"/>
        <pt x="357" y="763" on="1"/>
        <pt x="288" y="763" on="1"/>
        <pt x="255" y="763" on="0"/>
        <pt x="259" y="794" on="1"/>
        <pt x="270" y="863" on="1"/>
        <pt x="274" y="896" on="0"/>
      </contour>
      <contour>
        <pt x="388" y="704" on="1"/>
        <pt x="558" y="704" on="0"/>
        <pt x="688" y="543" on="0"/>
        <pt x="660" y="338" on="1"/>
        <pt x="646" y="233" on="0"/>
        <pt x="595" y="97" on="0"/>
        <pt x="510" y="17" on="0"/>
        <pt x="399" y="-14" on="0"/>
        <pt x="316" y="-14" on="1"/>
        <pt x="143" y="-14" on="0"/>
        <pt x="19" y="145" on="0"/>
        <pt x="47" y="352" on="1"/>
        <pt x="75" y="555" on="0"/>
        <pt x="225" y="704" on="0"/>
      </contour>
      <contour>
        <pt x="385" y="560" on="1"/>
        <pt x="319" y="560" on="0"/>
        <pt x="264" y="473" on="0"/>
        <pt x="243" y="338" on="1"/>
        <pt x="225" y="212" on="0"/>
        <pt x="256" y="130" on="0"/>
        <pt x="320" y="130" on="1"/>
        <pt x="387" y="130" on="0"/>
        <pt x="443" y="217" on="0"/>
        <pt x="463" y="352" on="1"/>
        <pt x="481" y="480" on="0"/>
        <pt x="450" y="560" on="0"/>
      </contour>
    </TTGlyph>
    <TTGlyph name="Ograve" xMin="47" yMin="-14" xMax="660" yMax="946">
      <contour>
        <pt x="506" y="797" on="1"/>
        <pt x="447" y="721" on="1"/>
        <pt x="211" y="831" on="1"/>
        <pt x="285" y="946" on="1"/>
      </contour>
      <contour>
        <pt x="388" y="704" on="1"/>
        <pt x="558" y="704" on="0"/>
        <pt x="688" y="543" on="0"/>
        <pt x="660" y="338" on="1"/>
        <pt x="646" y="233" on="0"/>
        <pt x="595" y="97" on="0"/>
        <pt x="510" y="17" on="0"/>
        <pt x="399" y="-14" on="0"/>
        <pt x="316" y="-14" on="1"/>
        <pt x="143" y="-14" on="0"/>
        <pt x="19" y="145" on="0"/>
        <pt x="47" y="352" on="1"/>
        <pt x="75" y="555" on="0"/>
        <pt x="225" y="704" on="0"/>
      </contour>
      <contour>
        <pt x="385" y="560" on="1"/>
        <pt x="319" y="560" on="0"/>
        <pt x="264" y="473" on="0"/>
        <pt x="243" y="338" on="1"/>
        <pt x="225" y="212" on="0"/>
        <pt x="256" y="130" on="0"/>
        <pt x="320" y="130" on="1"/>
        <pt x="387" y="130" on="0"/>
        <pt x="443" y="217" on="0"/>
        <pt x="463" y="352" on="1"/>
        <pt x="481" y="480" on="0"/>
        <pt x="450" y="560" on="0"/>
      </contour>
    </TTGlyph>
    <TTGlyph name="Ohungarumlaut" xMin="47" yMin="-14" xMax="682" yMax="956">
      <contour>
        <pt x="682" y="883" on="1"/>
        <pt x="504" y="722" on="1"/>
        <pt x="431" y="768" on="1"/>
        <pt x="576" y="956" on="1"/>
      </contour>
      <contour>
        <pt x="478" y="883" on="1"/>
        <pt x="301" y="722" on="1"/>
        <pt x="228" y="769" on="1"/>
        <pt x="373" y="956" on="1"/>
      </contour>
      <contour>
        <pt x="388" y="704" on="1"/>
        <pt x="558" y="704" on="0"/>
        <pt x="688" y="543" on="0"/>
        <pt x="660" y="338" on="1"/>
        <pt x="646" y="233" on="0"/>
        <pt x="595" y="97" on="0"/>
        <pt x="510" y="17" on="0"/>
        <pt x="399" y="-14" on="0"/>
        <pt x="316" y="-14" on="1"/>
        <pt x="143" y="-14" on="0"/>
        <pt x="19" y="145" on="0"/>
        <pt x="47" y="352" on="1"/>
        <pt x="75" y="555" on="0"/>
        <pt x="225" y="704" on="0"/>
      </contour>
      <contour>
        <pt x="385" y="560" on="1"/>
        <pt x="319" y="560" on="0"/>
        <pt x="264" y="473" on="0"/>
        <pt x="243" y="338" on="1"/>
        <pt x="225" y="212" on="0"/>
        <pt x="256" y="130" on="0"/>
        <pt x="320" y="130" on="1"/>
        <pt x="387" y="130" on="0"/>
        <pt x="443" y="217" on="0"/>
        <pt x="463" y="352" on="1"/>
        <pt x="481" y="480" on="0"/>
        <pt x="450" y="560" on="0"/>
      </contour>
    </TTGlyph>
    <TTGlyph name="Omacron" xMin="47" yMin="-14" xMax="660" yMax="885">
      <contour>
        <pt x="568" y="774" on="1"/>
        <pt x="257" y="774" on="1"/>
        <pt x="273" y="885" on="1"/>
        <pt x="583" y="885" on="1"/>
      </contour>
      <contour>
        <pt x="388" y="704" on="1"/>
        <pt x="558" y="704" on="0"/>
        <pt x="688" y="543" on="0"/>
        <pt x="660" y="338" on="1"/>
        <pt x="646" y="233" on="0"/>
        <pt x="595" y="97" on="0"/>
        <pt x="510" y="17" on="0"/>
        <pt x="399" y="-14" on="0"/>
        <pt x="316" y="-14" on="1"/>
        <pt x="143" y="-14" on="0"/>
        <pt x="19" y="145" on="0"/>
        <pt x="47" y="352" on="1"/>
        <pt x="75" y="555" on="0"/>
        <pt x="225" y="704" on="0"/>
      </contour>
      <contour>
        <pt x="385" y="560" on="1"/>
        <pt x="319" y="560" on="0"/>
        <pt x="264" y="473" on="0"/>
        <pt x="243" y="338" on="1"/>
        <pt x="225" y="212" on="0"/>
        <pt x="256" y="130" on="0"/>
        <pt x="320" y="130" on="1"/>
        <pt x="387" y="130" on="0"/>
        <pt x="443" y="217" on="0"/>
        <pt x="463" y="352" on="1"/>
        <pt x="481" y="480" on="0"/>
        <pt x="450" y="560" on="0"/>
      </contour>
    </TTGlyph>
    <TTGlyph name="Omega" xMin="-1" yMin="0" xMax="681" yMax="704">
      <contour>
        <pt x="19" y="144" on="1"/>
        <pt x="89" y="144" on="1"/>
        <pt x="128" y="144" on="0"/>
        <pt x="163" y="129" on="1"/>
        <pt x="99" y="195" on="0"/>
        <pt x="53" y="313" on="0"/>
        <pt x="66" y="405" on="1"/>
        <pt x="86" y="557" on="0"/>
        <pt x="246" y="704" on="0"/>
        <pt x="408" y="704" on="1"/>
        <pt x="568" y="704" on="0"/>
        <pt x="704" y="548" on="0"/>
        <pt x="681" y="387" on="1"/>
        <pt x="669" y="296" on="0"/>
        <pt x="596" y="190" on="0"/>
        <pt x="510" y="127" on="1"/>
        <pt x="544" y="144" on="0"/>
        <pt x="587" y="144" on="1"/>
        <pt x="657" y="144" on="1"/>
        <pt x="637" y="0" on="1"/>
        <pt x="345" y="0" on="1"/>
        <pt x="361" y="133" on="1"/>
        <pt x="419" y="179" on="0"/>
        <pt x="471" y="280" on="0"/>
        <pt x="484" y="369" on="1"/>
        <pt x="500" y="482" on="0"/>
        <pt x="464" y="561" on="0"/>
        <pt x="399" y="561" on="1"/>
        <pt x="331" y="561" on="0"/>
        <pt x="272" y="484" on="0"/>
        <pt x="257" y="376" on="1"/>
        <pt x="244" y="288" on="0"/>
        <pt x="265" y="181" on="0"/>
        <pt x="306" y="133" on="1"/>
        <pt x="291" y="0" on="1"/>
        <pt x="-1" y="0" on="1"/>
      </contour>
    </TTGlyph>
    <TTGlyph name="Oslash" xMin="38" yMin="-107" xMax="677" yMax="807">
      <contour>
        <pt x="677" y="740" on="1"/>
        <pt x="613" y="634" on="1"/>
        <pt x="689" y="552" on="0"/>
        <pt x="660" y="338" on="1"/>
        <pt x="646" y="233" on="0"/>
        <pt x="595" y="97" on="0"/>
        <pt x="510" y="17" on="0"/>
        <pt x="399" y="-14" on="0"/>
        <pt x="316" y="-14" on="1"/>
        <pt x="268" y="-14" on="0"/>
        <pt x="229" y="-8" on="1"/>
        <pt x="168" y="-107" on="1"/>
        <pt x="38" y="-40" on="1"/>
        <pt x="93" y="51" on="1"/>
        <pt x="17" y="132" on="0"/>
        <pt x="47" y="352" on="1"/>
        <pt x="75" y="555" on="0"/>
        <pt x="225" y="704" on="0"/>
        <pt x="388" y="704" on="1"/>
        <pt x="442" y="704" on="0"/>
        <pt x="481" y="697" on="1"/>
        <pt x="546" y="807" on="1"/>
      </contour>
      <contour>
        <pt x="463" y="352" on="1"/>
        <pt x="481" y="480" on="0"/>
        <pt x="450" y="560" on="0"/>
        <pt x="385" y="560" on="1"/>
        <pt x="319" y="560" on="0"/>
        <pt x="264" y="473" on="0"/>
        <pt x="243" y="338" on="1"/>
        <pt x="225" y="212" on="0"/>
        <pt x="256" y="130" on="0"/>
        <pt x="320" y="130" on="1"/>
        <pt x="387" y="130" on="0"/>
        <pt x="443" y="217" on="0"/>
      </contour>
    </TTGlyph>
    <TTGlyph name="Otilde" xMin="47" yMin="-14" xMax="660" yMax="910">
      <contour>
        <pt x="304" y="750" on="1"/>
        <pt x="229" y="757" on="1"/>
        <pt x="228" y="834" on="0"/>
        <pt x="281" y="911" on="0"/>
        <pt x="326" y="910" on="1"/>
        <pt x="357" y="909" on="0"/>
        <pt x="470" y="866" on="0"/>
        <pt x="481" y="864" on="1"/>
        <pt x="507" y="859" on="0"/>
        <pt x="528" y="882" on="0"/>
        <pt x="531" y="909" on="1"/>
        <pt x="606" y="902" on="1"/>
        <pt x="609" y="825" on="0"/>
        <pt x="557" y="748" on="0"/>
        <pt x="513" y="749" on="1"/>
        <pt x="480" y="750" on="0"/>
        <pt x="365" y="794" on="0"/>
        <pt x="353" y="796" on="1"/>
        <pt x="328" y="800" on="0"/>
        <pt x="308" y="778" on="0"/>
      </contour>
      <contour>
        <pt x="388" y="704" on="1"/>
        <pt x="558" y="704" on="0"/>
        <pt x="688" y="543" on="0"/>
        <pt x="660" y="338" on="1"/>
        <pt x="646" y="233" on="0"/>
        <pt x="595" y="97" on="0"/>
        <pt x="510" y="17" on="0"/>
        <pt x="399" y="-14" on="0"/>
        <pt x="316" y="-14" on="1"/>
        <pt x="143" y="-14" on="0"/>
        <pt x="19" y="145" on="0"/>
        <pt x="47" y="352" on="1"/>
        <pt x="75" y="555" on="0"/>
        <pt x="225" y="704" on="0"/>
      </contour>
      <contour>
        <pt x="385" y="560" on="1"/>
        <pt x="319" y="560" on="0"/>
        <pt x="264" y="473" on="0"/>
        <pt x="243" y="338" on="1"/>
        <pt x="225" y="212" on="0"/>
        <pt x="256" y="130" on="0"/>
        <pt x="320" y="130" on="1"/>
        <pt x="387" y="130" on="0"/>
        <pt x="443" y="217" on="0"/>
        <pt x="463" y="352" on="1"/>
        <pt x="481" y="480" on="0"/>
        <pt x="450" y="560" on="0"/>
      </contour>
    </TTGlyph>
    <TTGlyph name="P" xMin="19" yMin="0" xMax="626" yMax="700">
      <contour>
        <pt x="19" y="0" on="1"/>
        <pt x="116" y="690" on="1"/>
        <pt x="212" y="700" on="0"/>
        <pt x="383" y="700" on="1"/>
        <pt x="534" y="700" on="0"/>
        <pt x="644" y="596" on="0"/>
        <pt x="626" y="462" on="1"/>
        <pt x="608" y="330" on="0"/>
        <pt x="494" y="239" on="0"/>
        <pt x="360" y="239" on="1"/>
        <pt x="302" y="239" on="0"/>
        <pt x="240" y="247" on="1"/>
        <pt x="206" y="0" on="1"/>
      </contour>
      <contour>
        <pt x="259" y="376" on="1"/>
        <pt x="345" y="376" on="1"/>
        <pt x="395" y="376" on="0"/>
        <pt x="432" y="412" on="0"/>
        <pt x="441" y="476" on="1"/>
        <pt x="448" y="527" on="0"/>
        <pt x="422" y="563" on="0"/>
        <pt x="378" y="563" on="1"/>
        <pt x="285" y="562" on="1"/>
      </contour>
    </TTGlyph>
    <TTGlyph name="Q" xMin="47" yMin="-262" xMax="660" yMax="704">
      <contour>
        <pt x="388" y="704" on="1"/>
        <pt x="558" y="704" on="0"/>
        <pt x="688" y="543" on="0"/>
        <pt x="660" y="338" on="1"/>
        <pt x="646" y="233" on="0"/>
        <pt x="595" y="97" on="0"/>
        <pt x="510" y="17" on="0"/>
        <pt x="399" y="-14" on="0"/>
        <pt x="316" y="-14" on="1"/>
        <pt x="143" y="-14" on="0"/>
        <pt x="19" y="145" on="0"/>
        <pt x="47" y="352" on="1"/>
        <pt x="75" y="555" on="0"/>
        <pt x="225" y="704" on="0"/>
      </contour>
      <contour>
        <pt x="385" y="560" on="1"/>
        <pt x="319" y="560" on="0"/>
        <pt x="264" y="473" on="0"/>
        <pt x="243" y="338" on="1"/>
        <pt x="225" y="212" on="0"/>
        <pt x="256" y="130" on="0"/>
        <pt x="320" y="130" on="1"/>
        <pt x="387" y="130" on="0"/>
        <pt x="443" y="217" on="0"/>
        <pt x="463" y="352" on="1"/>
        <pt x="481" y="480" on="0"/>
        <pt x="450" y="560" on="0"/>
      </contour>
      <contour>
        <pt x="186" y="-124" on="1"/>
        <pt x="241" y="-31" on="1"/>
        <pt x="353" y="-75" on="0"/>
        <pt x="547" y="-105" on="1"/>
        <pt x="478" y="-262" on="1"/>
        <pt x="304" y="-212" on="0"/>
      </contour>
    </TTGlyph>
    <TTGlyph name="R" xMin="19" yMin="0" xMax="636" yMax="700">
      <contour>
        <pt x="19" y="0" on="1"/>
        <pt x="116" y="690" on="1"/>
        <pt x="212" y="700" on="0"/>
        <pt x="384" y="700" on="1"/>
        <pt x="525" y="700" on="0"/>
        <pt x="652" y="602" on="0"/>
        <pt x="636" y="485" on="1"/>
        <pt x="627" y="415" on="0"/>
        <pt x="557" y="333" on="0"/>
        <pt x="481" y="325" on="1"/>
        <pt x="480" y="318" on="1"/>
        <pt x="556" y="305" on="0"/>
        <pt x="567" y="210" on="1"/>
        <pt x="597" y="0" on="1"/>
        <pt x="404" y="0" on="1"/>
        <pt x="380" y="211" on="1"/>
        <pt x="378" y="241" on="0"/>
        <pt x="358" y="260" on="0"/>
        <pt x="332" y="260" on="1"/>
        <pt x="239" y="260" on="1"/>
        <pt x="202" y="0" on="1"/>
      </contour>
      <contour>
        <pt x="258" y="397" on="1"/>
        <pt x="348" y="397" on="1"/>
        <pt x="399" y="397" on="0"/>
        <pt x="441" y="433" on="0"/>
        <pt x="449" y="487" on="1"/>
        <pt x="455" y="531" on="0"/>
        <pt x="426" y="563" on="0"/>
        <pt x="381" y="563" on="1"/>
        <pt x="281" y="562" on="1"/>
      </contour>
    </TTGlyph>
    <TTGlyph name="Racute" xMin="19" yMin="0" xMax="636" yMax="951">
      <contour>
        <pt x="342" y="721" on="1"/>
        <pt x="299" y="797" on="1"/>
        <pt x="533" y="951" on="1"/>
        <pt x="595" y="822" on="1"/>
      </contour>
      <contour>
        <pt x="19" y="0" on="1"/>
        <pt x="116" y="690" on="1"/>
        <pt x="212" y="700" on="0"/>
        <pt x="384" y="700" on="1"/>
        <pt x="525" y="700" on="0"/>
        <pt x="652" y="602" on="0"/>
        <pt x="636" y="485" on="1"/>
        <pt x="627" y="415" on="0"/>
        <pt x="557" y="333" on="0"/>
        <pt x="481" y="325" on="1"/>
        <pt x="480" y="318" on="1"/>
        <pt x="556" y="305" on="0"/>
        <pt x="567" y="210" on="1"/>
        <pt x="597" y="0" on="1"/>
        <pt x="404" y="0" on="1"/>
        <pt x="380" y="211" on="1"/>
        <pt x="378" y="241" on="0"/>
        <pt x="358" y="260" on="0"/>
        <pt x="332" y="260" on="1"/>
        <pt x="239" y="260" on="1"/>
        <pt x="202" y="0" on="1"/>
      </contour>
      <contour>
        <pt x="258" y="397" on="1"/>
        <pt x="348" y="397" on="1"/>
        <pt x="399" y="397" on="0"/>
        <pt x="441" y="433" on="0"/>
        <pt x="449" y="487" on="1"/>
        <pt x="455" y="531" on="0"/>
        <pt x="426" y="563" on="0"/>
        <pt x="381" y="563" on="1"/>
        <pt x="281" y="562" on="1"/>
      </contour>
    </TTGlyph>
    <TTGlyph name="Rcaron" xMin="19" yMin="0" xMax="636" yMax="939">
      <contour>
        <pt x="346" y="738" on="1"/>
        <pt x="196" y="880" on="1"/>
        <pt x="250" y="939" on="1"/>
        <pt x="387" y="853" on="1"/>
        <pt x="395" y="853" on="1"/>
        <pt x="559" y="936" on="1"/>
        <pt x="597" y="869" on="1"/>
        <pt x="427" y="738" on="1"/>
      </contour>
      <contour>
        <pt x="19" y="0" on="1"/>
        <pt x="116" y="690" on="1"/>
        <pt x="212" y="700" on="0"/>
        <pt x="384" y="700" on="1"/>
        <pt x="525" y="700" on="0"/>
        <pt x="652" y="602" on="0"/>
        <pt x="636" y="485" on="1"/>
        <pt x="627" y="415" on="0"/>
        <pt x="557" y="333" on="0"/>
        <pt x="481" y="325" on="1"/>
        <pt x="480" y="318" on="1"/>
        <pt x="556" y="305" on="0"/>
        <pt x="567" y="210" on="1"/>
        <pt x="597" y="0" on="1"/>
        <pt x="404" y="0" on="1"/>
        <pt x="380" y="211" on="1"/>
        <pt x="378" y="241" on="0"/>
        <pt x="358" y="260" on="0"/>
        <pt x="332" y="260" on="1"/>
        <pt x="239" y="260" on="1"/>
        <pt x="202" y="0" on="1"/>
      </contour>
      <contour>
        <pt x="258" y="397" on="1"/>
        <pt x="348" y="397" on="1"/>
        <pt x="399" y="397" on="0"/>
        <pt x="441" y="433" on="0"/>
        <pt x="449" y="487" on="1"/>
        <pt x="455" y="531" on="0"/>
        <pt x="426" y="563" on="0"/>
        <pt x="381" y="563" on="1"/>
        <pt x="281" y="562" on="1"/>
      </contour>
    </TTGlyph>
    <TTGlyph name="Rcommaaccent" xMin="19" yMin="-304" xMax="636" yMax="700">
      <contour>
        <pt x="19" y="0" on="1"/>
        <pt x="116" y="690" on="1"/>
        <pt x="212" y="700" on="0"/>
        <pt x="384" y="700" on="1"/>
        <pt x="525" y="700" on="0"/>
        <pt x="652" y="602" on="0"/>
        <pt x="636" y="485" on="1"/>
        <pt x="627" y="415" on="0"/>
        <pt x="557" y="333" on="0"/>
        <pt x="481" y="325" on="1"/>
        <pt x="480" y="318" on="1"/>
        <pt x="556" y="305" on="0"/>
        <pt x="567" y="210" on="1"/>
        <pt x="597" y="0" on="1"/>
        <pt x="404" y="0" on="1"/>
        <pt x="380" y="211" on="1"/>
        <pt x="378" y="241" on="0"/>
        <pt x="358" y="260" on="0"/>
        <pt x="332" y="260" on="1"/>
        <pt x="239" y="260" on="1"/>
        <pt x="202" y="0" on="1"/>
      </contour>
      <contour>
        <pt x="258" y="397" on="1"/>
        <pt x="348" y="397" on="1"/>
        <pt x="399" y="397" on="0"/>
        <pt x="441" y="433" on="0"/>
        <pt x="449" y="487" on="1"/>
        <pt x="455" y="531" on="0"/>
        <pt x="426" y="563" on="0"/>
        <pt x="381" y="563" on="1"/>
        <pt x="281" y="562" on="1"/>
      </contour>
      <contour>
        <pt x="293" y="-50" on="1"/>
        <pt x="324" y="-50" on="1"/>
        <pt x="356" y="-50" on="0"/>
        <pt x="381" y="-73" on="0"/>
        <pt x="377" y="-101" on="1"/>
        <pt x="369" y="-151" on="1"/>
        <pt x="354" y="-235" on="0"/>
        <pt x="294" y="-304" on="1"/>
        <pt x="225" y="-282" on="1"/>
        <pt x="244" y="-241" on="0"/>
        <pt x="262" y="-179" on="1"/>
        <pt x="236" y="-180" on="0"/>
        <pt x="216" y="-158" on="0"/>
        <pt x="219" y="-135" on="1"/>
        <pt x="226" y="-97" on="1"/>
        <pt x="231" y="-70" on="0"/>
        <pt x="261" y="-50" on="0"/>
      </contour>
    </TTGlyph>
    <TTGlyph name="S" xMin="9" yMin="-13" xMax="587" yMax="703">
      <contour>
        <pt x="318" y="247" on="1"/>
        <pt x="190" y="305" on="1"/>
        <pt x="111" y="341" on="0"/>
        <pt x="58" y="441" on="0"/>
        <pt x="67" y="513" on="1"/>
        <pt x="81" y="623" on="0"/>
        <pt x="211" y="703" on="0"/>
        <pt x="350" y="703" on="1"/>
        <pt x="487" y="703" on="0"/>
        <pt x="587" y="671" on="1"/>
        <pt x="570" y="549" on="1"/>
        <pt x="390" y="552" on="0"/>
        <pt x="341" y="552" on="1"/>
        <pt x="294" y="552" on="0"/>
        <pt x="258" y="536" on="0"/>
        <pt x="253" y="506" on="1"/>
        <pt x="249" y="484" on="0"/>
        <pt x="268" y="461" on="0"/>
        <pt x="302" y="447" on="1"/>
        <pt x="421" y="395" on="1"/>
        <pt x="502" y="360" on="0"/>
        <pt x="553" y="265" on="0"/>
        <pt x="544" y="185" on="1"/>
        <pt x="530" y="69" on="0"/>
        <pt x="410" y="-13" on="0"/>
        <pt x="264" y="-13" on="1"/>
        <pt x="135" y="-13" on="0"/>
        <pt x="9" y="18" on="1"/>
        <pt x="27" y="150" on="1"/>
        <pt x="229" y="145" on="0"/>
        <pt x="255" y="145" on="1"/>
        <pt x="311" y="145" on="0"/>
        <pt x="354" y="164" on="0"/>
        <pt x="359" y="193" on="1"/>
        <pt x="363" y="215" on="0"/>
        <pt x="346" y="235" on="0"/>
      </contour>
    </TTGlyph>
    <TTGlyph name="Sacute" xMin="9" yMin="-13" xMax="587" yMax="951">
      <contour>
        <pt x="569" y="822" on="1"/>
        <pt x="316" y="721" on="1"/>
        <pt x="273" y="797" on="1"/>
        <pt x="507" y="951" on="1"/>
      </contour>
      <contour>
        <pt x="318" y="247" on="1"/>
        <pt x="190" y="305" on="1"/>
        <pt x="111" y="341" on="0"/>
        <pt x="58" y="441" on="0"/>
        <pt x="67" y="513" on="1"/>
        <pt x="81" y="623" on="0"/>
        <pt x="211" y="703" on="0"/>
        <pt x="350" y="703" on="1"/>
        <pt x="487" y="703" on="0"/>
        <pt x="587" y="671" on="1"/>
        <pt x="570" y="549" on="1"/>
        <pt x="390" y="552" on="0"/>
        <pt x="341" y="552" on="1"/>
        <pt x="294" y="552" on="0"/>
        <pt x="258" y="536" on="0"/>
        <pt x="253" y="506" on="1"/>
        <pt x="249" y="484" on="0"/>
        <pt x="268" y="461" on="0"/>
        <pt x="302" y="447" on="1"/>
        <pt x="421" y="395" on="1"/>
        <pt x="502" y="360" on="0"/>
        <pt x="553" y="265" on="0"/>
        <pt x="544" y="185" on="1"/>
        <pt x="530" y="69" on="0"/>
        <pt x="410" y="-13" on="0"/>
        <pt x="264" y="-13" on="1"/>
        <pt x="135" y="-13" on="0"/>
        <pt x="9" y="18" on="1"/>
        <pt x="27" y="150" on="1"/>
        <pt x="229" y="145" on="0"/>
        <pt x="255" y="145" on="1"/>
        <pt x="311" y="145" on="0"/>
        <pt x="354" y="164" on="0"/>
        <pt x="359" y="193" on="1"/>
        <pt x="363" y="215" on="0"/>
        <pt x="346" y="235" on="0"/>
      </contour>
    </TTGlyph>
    <TTGlyph name="Scaron" xMin="9" yMin="-13" xMax="587" yMax="939">
      <contour>
        <pt x="571" y="869" on="1"/>
        <pt x="400" y="738" on="1"/>
        <pt x="319" y="738" on="1"/>
        <pt x="169" y="880" on="1"/>
        <pt x="223" y="939" on="1"/>
        <pt x="361" y="853" on="1"/>
        <pt x="369" y="853" on="1"/>
        <pt x="533" y="936" on="1"/>
      </contour>
      <contour>
        <pt x="318" y="247" on="1"/>
        <pt x="190" y="305" on="1"/>
        <pt x="111" y="341" on="0"/>
        <pt x="58" y="441" on="0"/>
        <pt x="67" y="513" on="1"/>
        <pt x="81" y="623" on="0"/>
        <pt x="211" y="703" on="0"/>
        <pt x="350" y="703" on="1"/>
        <pt x="487" y="703" on="0"/>
        <pt x="587" y="671" on="1"/>
        <pt x="570" y="549" on="1"/>
        <pt x="390" y="552" on="0"/>
        <pt x="341" y="552" on="1"/>
        <pt x="294" y="552" on="0"/>
        <pt x="258" y="536" on="0"/>
        <pt x="253" y="506" on="1"/>
        <pt x="249" y="484" on="0"/>
        <pt x="268" y="461" on="0"/>
        <pt x="302" y="447" on="1"/>
        <pt x="421" y="395" on="1"/>
        <pt x="502" y="360" on="0"/>
        <pt x="553" y="265" on="0"/>
        <pt x="544" y="185" on="1"/>
        <pt x="530" y="69" on="0"/>
        <pt x="410" y="-13" on="0"/>
        <pt x="264" y="-13" on="1"/>
        <pt x="135" y="-13" on="0"/>
        <pt x="9" y="18" on="1"/>
        <pt x="27" y="150" on="1"/>
        <pt x="229" y="145" on="0"/>
        <pt x="255" y="145" on="1"/>
        <pt x="311" y="145" on="0"/>
        <pt x="354" y="164" on="0"/>
        <pt x="359" y="193" on="1"/>
        <pt x="363" y="215" on="0"/>
        <pt x="346" y="235" on="0"/>
      </contour>
    </TTGlyph>
    <TTGlyph name="Scedilla" xMin="9" yMin="-269" xMax="587" yMax="703">
      <contour>
        <pt x="318" y="247" on="1"/>
        <pt x="190" y="305" on="1"/>
        <pt x="111" y="341" on="0"/>
        <pt x="58" y="441" on="0"/>
        <pt x="67" y="513" on="1"/>
        <pt x="81" y="623" on="0"/>
        <pt x="211" y="703" on="0"/>
        <pt x="350" y="703" on="1"/>
        <pt x="487" y="703" on="0"/>
        <pt x="587" y="671" on="1"/>
        <pt x="570" y="549" on="1"/>
        <pt x="390" y="552" on="0"/>
        <pt x="341" y="552" on="1"/>
        <pt x="294" y="552" on="0"/>
        <pt x="258" y="536" on="0"/>
        <pt x="253" y="506" on="1"/>
        <pt x="249" y="484" on="0"/>
        <pt x="268" y="461" on="0"/>
        <pt x="302" y="447" on="1"/>
        <pt x="421" y="395" on="1"/>
        <pt x="502" y="360" on="0"/>
        <pt x="553" y="265" on="0"/>
        <pt x="544" y="185" on="1"/>
        <pt x="530" y="69" on="0"/>
        <pt x="410" y="-13" on="0"/>
        <pt x="264" y="-13" on="1"/>
        <pt x="135" y="-13" on="0"/>
        <pt x="9" y="18" on="1"/>
        <pt x="27" y="150" on="1"/>
        <pt x="229" y="145" on="0"/>
        <pt x="255" y="145" on="1"/>
        <pt x="311" y="145" on="0"/>
        <pt x="354" y="164" on="0"/>
        <pt x="359" y="193" on="1"/>
        <pt x="363" y="215" on="0"/>
        <pt x="346" y="235" on="0"/>
      </contour>
      <contour>
        <pt x="167" y="-129" on="1"/>
        <pt x="183" y="-63" on="1"/>
        <pt x="235" y="-58" on="0"/>
        <pt x="310" y="-60" on="0"/>
        <pt x="347" y="-97" on="0"/>
        <pt x="340" y="-135" on="1"/>
        <pt x="327" y="-211" on="0"/>
        <pt x="197" y="-281" on="0"/>
        <pt x="107" y="-269" on="1"/>
        <pt x="128" y="-198" on="1"/>
        <pt x="216" y="-198" on="0"/>
        <pt x="226" y="-146" on="1"/>
        <pt x="226" y="-142" on="0"/>
        <pt x="227" y="-137" on="0"/>
        <pt x="222" y="-133" on="0"/>
        <pt x="216" y="-131" on="0"/>
        <pt x="201" y="-130" on="0"/>
        <pt x="182" y="-129" on="0"/>
      </contour>
    </TTGlyph>
    <TTGlyph name="Scommaaccent" xMin="9" yMin="-304" xMax="587" yMax="703">
      <contour>
        <pt x="318" y="247" on="1"/>
        <pt x="190" y="305" on="1"/>
        <pt x="111" y="341" on="0"/>
        <pt x="58" y="441" on="0"/>
        <pt x="67" y="513" on="1"/>
        <pt x="81" y="623" on="0"/>
        <pt x="211" y="703" on="0"/>
        <pt x="350" y="703" on="1"/>
        <pt x="487" y="703" on="0"/>
        <pt x="587" y="671" on="1"/>
        <pt x="570" y="549" on="1"/>
        <pt x="390" y="552" on="0"/>
        <pt x="341" y="552" on="1"/>
        <pt x="294" y="552" on="0"/>
        <pt x="258" y="536" on="0"/>
        <pt x="253" y="506" on="1"/>
        <pt x="249" y="484" on="0"/>
        <pt x="268" y="461" on="0"/>
        <pt x="302" y="447" on="1"/>
        <pt x="421" y="395" on="1"/>
        <pt x="502" y="360" on="0"/>
        <pt x="553" y="265" on="0"/>
        <pt x="544" y="185" on="1"/>
        <pt x="530" y="69" on="0"/>
        <pt x="410" y="-13" on="0"/>
        <pt x="264" y="-13" on="1"/>
        <pt x="135" y="-13" on="0"/>
        <pt x="9" y="18" on="1"/>
        <pt x="27" y="150" on="1"/>
        <pt x="229" y="145" on="0"/>
        <pt x="255" y="145" on="1"/>
        <pt x="311" y="145" on="0"/>
        <pt x="354" y="164" on="0"/>
        <pt x="359" y="193" on="1"/>
        <pt x="363" y="215" on="0"/>
        <pt x="346" y="235" on="0"/>
      </contour>
      <contour>
        <pt x="246" y="-50" on="1"/>
        <pt x="278" y="-50" on="1"/>
        <pt x="310" y="-50" on="0"/>
        <pt x="334" y="-74" on="0"/>
        <pt x="330" y="-101" on="1"/>
        <pt x="322" y="-151" on="1"/>
        <pt x="316" y="-189" on="0"/>
        <pt x="274" y="-274" on="0"/>
        <pt x="247" y="-304" on="1"/>
        <pt x="178" y="-282" on="1"/>
        <pt x="193" y="-252" on="0"/>
        <pt x="216" y="-179" on="1"/>
        <pt x="190" y="-180" on="0"/>
        <pt x="170" y="-158" on="0"/>
        <pt x="173" y="-135" on="1"/>
        <pt x="180" y="-97" on="1"/>
        <pt x="184" y="-70" on="0"/>
        <pt x="214" y="-50" on="0"/>
      </contour>
    </TTGlyph>
    <TTGlyph name="T" xMin="48" yMin="0" xMax="650" yMax="690">
      <contour>
        <pt x="630" y="545" on="1"/>
        <pt x="433" y="545" on="1"/>
        <pt x="356" y="0" on="1"/>
        <pt x="168" y="0" on="1"/>
        <pt x="245" y="545" on="1"/>
        <pt x="48" y="545" on="1"/>
        <pt x="68" y="690" on="1"/>
        <pt x="650" y="690" on="1"/>
      </contour>
    </TTGlyph>
    <TTGlyph name="Tbar" xMin="48" yMin="0" xMax="650" yMax="690">
      <contour>
        <pt x="433" y="545" on="1"/>
        <pt x="413" y="405" on="1"/>
        <pt x="539" y="405" on="1"/>
        <pt x="528" y="320" on="1"/>
        <pt x="401" y="320" on="1"/>
        <pt x="356" y="0" on="1"/>
        <pt x="168" y="0" on="1"/>
        <pt x="213" y="320" on="1"/>
        <pt x="96" y="320" on="1"/>
        <pt x="108" y="405" on="1"/>
        <pt x="225" y="405" on="1"/>
        <pt x="245" y="545" on="1"/>
        <pt x="48" y="545" on="1"/>
        <pt x="68" y="690" on="1"/>
        <pt x="650" y="690" on="1"/>
        <pt x="630" y="545" on="1"/>
      </contour>
    </TTGlyph>
    <TTGlyph name="Tcaron" xMin="48" yMin="0" xMax="650" yMax="939">
      <contour>
        <pt x="325" y="738" on="1"/>
        <pt x="175" y="880" on="1"/>
        <pt x="229" y="939" on="1"/>
        <pt x="367" y="853" on="1"/>
        <pt x="375" y="853" on="1"/>
        <pt x="539" y="936" on="1"/>
        <pt x="577" y="869" on="1"/>
        <pt x="406" y="738" on="1"/>
      </contour>
      <contour>
        <pt x="630" y="545" on="1"/>
        <pt x="433" y="545" on="1"/>
        <pt x="356" y="0" on="1"/>
        <pt x="168" y="0" on="1"/>
        <pt x="245" y="545" on="1"/>
        <pt x="48" y="545" on="1"/>
        <pt x="68" y="690" on="1"/>
        <pt x="650" y="690" on="1"/>
      </contour>
    </TTGlyph>
    <TTGlyph name="Tcedilla" xMin="48" yMin="-248" xMax="650" yMax="690">
      <contour>
        <pt x="630" y="545" on="1"/>
        <pt x="433" y="545" on="1"/>
        <pt x="356" y="0" on="1"/>
        <pt x="168" y="0" on="1"/>
        <pt x="245" y="545" on="1"/>
        <pt x="48" y="545" on="1"/>
        <pt x="68" y="690" on="1"/>
        <pt x="650" y="690" on="1"/>
      </contour>
      <contour>
        <pt x="168" y="-108" on="1"/>
        <pt x="185" y="-42" on="1"/>
        <pt x="271" y="-32" on="0"/>
        <pt x="351" y="-59" on="0"/>
        <pt x="342" y="-114" on="1"/>
        <pt x="329" y="-190" on="0"/>
        <pt x="199" y="-260" on="0"/>
        <pt x="109" y="-248" on="1"/>
        <pt x="130" y="-177" on="1"/>
        <pt x="217" y="-177" on="0"/>
        <pt x="228" y="-125" on="1"/>
        <pt x="229" y="-119" on="0"/>
        <pt x="227" y="-113" on="0"/>
        <pt x="214" y="-109" on="0"/>
        <pt x="190" y="-108" on="0"/>
      </contour>
    </TTGlyph>
    <TTGlyph name="Thorn" xMin="19" yMin="0" xMax="608" yMax="690">
      <contour>
        <pt x="288" y="576" on="1"/>
        <pt x="364" y="576" on="1"/>
        <pt x="513" y="576" on="0"/>
        <pt x="626" y="473" on="0"/>
        <pt x="608" y="337" on="1"/>
        <pt x="590" y="207" on="0"/>
        <pt x="476" y="114" on="0"/>
        <pt x="345" y="114" on="1"/>
        <pt x="285" y="114" on="0"/>
        <pt x="224" y="122" on="1"/>
        <pt x="207" y="0" on="1"/>
        <pt x="19" y="0" on="1"/>
        <pt x="116" y="690" on="1"/>
        <pt x="304" y="690" on="1"/>
      </contour>
      <contour>
        <pt x="242" y="251" on="1"/>
        <pt x="327" y="251" on="1"/>
        <pt x="375" y="251" on="0"/>
        <pt x="412" y="288" on="0"/>
        <pt x="421" y="351" on="1"/>
        <pt x="429" y="404" on="0"/>
        <pt x="405" y="439" on="0"/>
        <pt x="361" y="439" on="1"/>
        <pt x="269" y="439" on="1"/>
      </contour>
    </TTGlyph>
    <TTGlyph name="U" xMin="52" yMin="-14" xMax="692" yMax="690">
      <contour>
        <pt x="692" y="690" on="1"/>
        <pt x="632" y="277" on="1"/>
        <pt x="609" y="114" on="0"/>
        <pt x="471" y="-14" on="0"/>
        <pt x="161" y="-14" on="0"/>
        <pt x="31" y="126" on="0"/>
        <pt x="52" y="284" on="1"/>
        <pt x="110" y="690" on="1"/>
        <pt x="298" y="690" on="1"/>
        <pt x="239" y="277" on="1"/>
        <pt x="226" y="191" on="0"/>
        <pt x="258" y="130" on="0"/>
        <pt x="319" y="130" on="1"/>
        <pt x="382" y="130" on="0"/>
        <pt x="432" y="194" on="0"/>
        <pt x="446" y="284" on="1"/>
        <pt x="504" y="690" on="1"/>
      </contour>
    </TTGlyph>
    <TTGlyph name="Uacute" xMin="52" yMin="-14" xMax="692" yMax="951">
      <contour>
        <pt x="618" y="822" on="1"/>
        <pt x="365" y="721" on="1"/>
        <pt x="322" y="797" on="1"/>
        <pt x="556" y="951" on="1"/>
      </contour>
      <contour>
        <pt x="692" y="690" on="1"/>
        <pt x="632" y="277" on="1"/>
        <pt x="609" y="114" on="0"/>
        <pt x="471" y="-14" on="0"/>
        <pt x="161" y="-14" on="0"/>
        <pt x="31" y="126" on="0"/>
        <pt x="52" y="284" on="1"/>
        <pt x="110" y="690" on="1"/>
        <pt x="298" y="690" on="1"/>
        <pt x="239" y="277" on="1"/>
        <pt x="226" y="191" on="0"/>
        <pt x="258" y="130" on="0"/>
        <pt x="319" y="130" on="1"/>
        <pt x="382" y="130" on="0"/>
        <pt x="432" y="194" on="0"/>
        <pt x="446" y="284" on="1"/>
        <pt x="504" y="690" on="1"/>
      </contour>
    </TTGlyph>
    <TTGlyph name="Ucircumflex" xMin="52" yMin="-14" xMax="692" yMax="920">
      <contour>
        <pt x="611" y="781" on="1"/>
        <pt x="560" y="720" on="1"/>
        <pt x="420" y="816" on="1"/>
        <pt x="412" y="816" on="1"/>
        <pt x="252" y="721" on="1"/>
        <pt x="209" y="785" on="1"/>
        <pt x="358" y="920" on="1"/>
        <pt x="481" y="920" on="1"/>
      </contour>
      <contour>
        <pt x="692" y="690" on="1"/>
        <pt x="632" y="277" on="1"/>
        <pt x="609" y="114" on="0"/>
        <pt x="471" y="-14" on="0"/>
        <pt x="161" y="-14" on="0"/>
        <pt x="31" y="126" on="0"/>
        <pt x="52" y="284" on="1"/>
        <pt x="110" y="690" on="1"/>
        <pt x="298" y="690" on="1"/>
        <pt x="239" y="277" on="1"/>
        <pt x="226" y="191" on="0"/>
        <pt x="258" y="130" on="0"/>
        <pt x="319" y="130" on="1"/>
        <pt x="382" y="130" on="0"/>
        <pt x="432" y="194" on="0"/>
        <pt x="446" y="284" on="1"/>
        <pt x="504" y="690" on="1"/>
      </contour>
    </TTGlyph>
    <TTGlyph name="Udieresis" xMin="52" yMin="-14" xMax="692" yMax="896">
      <contour>
        <pt x="485" y="896" on="1"/>
        <pt x="551" y="896" on="1"/>
        <pt x="585" y="896" on="0"/>
        <pt x="581" y="864" on="1"/>
        <pt x="570" y="795" on="1"/>
        <pt x="566" y="763" on="0"/>
        <pt x="536" y="763" on="1"/>
        <pt x="468" y="763" on="1"/>
        <pt x="433" y="763" on="0"/>
        <pt x="439" y="794" on="1"/>
        <pt x="449" y="863" on="1"/>
        <pt x="454" y="896" on="0"/>
      </contour>
      <contour>
        <pt x="304" y="896" on="1"/>
        <pt x="369" y="896" on="1"/>
        <pt x="404" y="896" on="0"/>
        <pt x="398" y="864" on="1"/>
        <pt x="387" y="794" on="1"/>
        <pt x="384" y="763" on="0"/>
        <pt x="354" y="763" on="1"/>
        <pt x="285" y="763" on="1"/>
        <pt x="252" y="763" on="0"/>
        <pt x="256" y="794" on="1"/>
        <pt x="267" y="863" on="1"/>
        <pt x="271" y="896" on="0"/>
      </contour>
      <contour>
        <pt x="692" y="690" on="1"/>
        <pt x="632" y="277" on="1"/>
        <pt x="609" y="114" on="0"/>
        <pt x="471" y="-14" on="0"/>
        <pt x="161" y="-14" on="0"/>
        <pt x="31" y="126" on="0"/>
        <pt x="52" y="284" on="1"/>
        <pt x="110" y="690" on="1"/>
        <pt x="298" y="690" on="1"/>
        <pt x="239" y="277" on="1"/>
        <pt x="226" y="191" on="0"/>
        <pt x="258" y="130" on="0"/>
        <pt x="319" y="130" on="1"/>
        <pt x="382" y="130" on="0"/>
        <pt x="432" y="194" on="0"/>
        <pt x="446" y="284" on="1"/>
        <pt x="504" y="690" on="1"/>
      </contour>
    </TTGlyph>
    <TTGlyph name="Ugrave" xMin="52" yMin="-14" xMax="692" yMax="946">
      <contour>
        <pt x="502" y="797" on="1"/>
        <pt x="444" y="721" on="1"/>
        <pt x="208" y="831" on="1"/>
        <pt x="281" y="946" on="1"/>
      </contour>
      <contour>
        <pt x="692" y="690" on="1"/>
        <pt x="632" y="277" on="1"/>
        <pt x="609" y="114" on="0"/>
        <pt x="471" y="-14" on="0"/>
        <pt x="161" y="-14" on="0"/>
        <pt x="31" y="126" on="0"/>
        <pt x="52" y="284" on="1"/>
        <pt x="110" y="690" on="1"/>
        <pt x="298" y="690" on="1"/>
        <pt x="239" y="277" on="1"/>
        <pt x="226" y="191" on="0"/>
        <pt x="258" y="130" on="0"/>
        <pt x="319" y="130" on="1"/>
        <pt x="382" y="130" on="0"/>
        <pt x="432" y="194" on="0"/>
        <pt x="446" y="284" on="1"/>
        <pt x="504" y="690" on="1"/>
      </contour>
    </TTGlyph>
    <TTGlyph name="Uhungarumlaut" xMin="52" yMin="-14" xMax="692" yMax="956">
      <contour>
        <pt x="678" y="883" on="1"/>
        <pt x="501" y="722" on="1"/>
        <pt x="428" y="768" on="1"/>
        <pt x="573" y="956" on="1"/>
      </contour>
      <contour>
        <pt x="475" y="883" on="1"/>
        <pt x="298" y="722" on="1"/>
        <pt x="224" y="769" on="1"/>
        <pt x="370" y="956" on="1"/>
      </contour>
      <contour>
        <pt x="692" y="690" on="1"/>
        <pt x="632" y="277" on="1"/>
        <pt x="609" y="114" on="0"/>
        <pt x="471" y="-14" on="0"/>
        <pt x="161" y="-14" on="0"/>
        <pt x="31" y="126" on="0"/>
        <pt x="52" y="284" on="1"/>
        <pt x="110" y="690" on="1"/>
        <pt x="298" y="690" on="1"/>
        <pt x="239" y="277" on="1"/>
        <pt x="226" y="191" on="0"/>
        <pt x="258" y="130" on="0"/>
        <pt x="319" y="130" on="1"/>
        <pt x="382" y="130" on="0"/>
        <pt x="432" y="194" on="0"/>
        <pt x="446" y="284" on="1"/>
        <pt x="504" y="690" on="1"/>
      </contour>
    </TTGlyph>
    <TTGlyph name="Umacron" xMin="52" yMin="-14" xMax="692" yMax="885">
      <contour>
        <pt x="565" y="774" on="1"/>
        <pt x="254" y="774" on="1"/>
        <pt x="269" y="885" on="1"/>
        <pt x="580" y="885" on="1"/>
      </contour>
      <contour>
        <pt x="692" y="690" on="1"/>
        <pt x="632" y="277" on="1"/>
        <pt x="609" y="114" on="0"/>
        <pt x="471" y="-14" on="0"/>
        <pt x="161" y="-14" on="0"/>
        <pt x="31" y="126" on="0"/>
        <pt x="52" y="284" on="1"/>
        <pt x="110" y="690" on="1"/>
        <pt x="298" y="690" on="1"/>
        <pt x="239" y="277" on="1"/>
        <pt x="226" y="191" on="0"/>
        <pt x="258" y="130" on="0"/>
        <pt x="319" y="130" on="1"/>
        <pt x="382" y="130" on="0"/>
        <pt x="432" y="194" on="0"/>
        <pt x="446" y="284" on="1"/>
        <pt x="504" y="690" on="1"/>
      </contour>
    </TTGlyph>
    <TTGlyph name="Uogonek" xMin="52" yMin="-220" xMax="692" yMax="690">
      <contour>
        <pt x="692" y="690" on="1"/>
        <pt x="632" y="277" on="1"/>
        <pt x="610" y="121" on="0"/>
        <pt x="483" y="-9" on="0"/>
        <pt x="344" y="-13" on="1"/>
        <pt x="304" y="-58" on="0"/>
        <pt x="283" y="-106" on="1"/>
        <pt x="274" y="-127" on="0"/>
        <pt x="294" y="-140" on="0"/>
        <pt x="323" y="-133" on="1"/>
        <pt x="338" y="-199" on="1"/>
        <pt x="291" y="-216" on="0"/>
        <pt x="215" y="-223" on="0"/>
        <pt x="171" y="-204" on="0"/>
        <pt x="143" y="-172" on="0"/>
        <pt x="147" y="-129" on="0"/>
        <pt x="156" y="-107" on="1"/>
        <pt x="179" y="-60" on="0"/>
        <pt x="257" y="-11" on="1"/>
        <pt x="135" y="1" on="0"/>
        <pt x="33" y="142" on="0"/>
        <pt x="52" y="284" on="1"/>
        <pt x="110" y="690" on="1"/>
        <pt x="298" y="690" on="1"/>
        <pt x="239" y="277" on="1"/>
        <pt x="226" y="191" on="0"/>
        <pt x="258" y="130" on="0"/>
        <pt x="319" y="130" on="1"/>
        <pt x="382" y="130" on="0"/>
        <pt x="432" y="194" on="0"/>
        <pt x="446" y="284" on="1"/>
        <pt x="504" y="690" on="1"/>
      </contour>
    </TTGlyph>
    <TTGlyph name="Uring" xMin="52" yMin="-14" xMax="692" yMax="951">
      <contour>
        <pt x="425" y="951" on="1"/>
        <pt x="480" y="951" on="0"/>
        <pt x="551" y="879" on="0"/>
        <pt x="544" y="826" on="1"/>
        <pt x="538" y="779" on="0"/>
        <pt x="468" y="716" on="0"/>
        <pt x="415" y="716" on="1"/>
        <pt x="359" y="716" on="0"/>
        <pt x="291" y="788" on="0"/>
        <pt x="298" y="840" on="1"/>
        <pt x="303" y="887" on="0"/>
        <pt x="372" y="951" on="0"/>
      </contour>
      <contour>
        <pt x="445" y="882" on="0"/>
        <pt x="403" y="882" on="0"/>
        <pt x="376" y="856" on="0"/>
        <pt x="374" y="836" on="1"/>
        <pt x="371" y="813" on="0"/>
        <pt x="395" y="785" on="0"/>
        <pt x="439" y="785" on="0"/>
        <pt x="466" y="813" on="0"/>
        <pt x="468" y="836" on="1"/>
        <pt x="469" y="857" on="0"/>
      </contour>
      <contour>
        <pt x="692" y="690" on="1"/>
        <pt x="632" y="277" on="1"/>
        <pt x="609" y="114" on="0"/>
        <pt x="471" y="-14" on="0"/>
        <pt x="161" y="-14" on="0"/>
        <pt x="31" y="126" on="0"/>
        <pt x="52" y="284" on="1"/>
        <pt x="110" y="690" on="1"/>
        <pt x="298" y="690" on="1"/>
        <pt x="239" y="277" on="1"/>
        <pt x="226" y="191" on="0"/>
        <pt x="258" y="130" on="0"/>
        <pt x="319" y="130" on="1"/>
        <pt x="382" y="130" on="0"/>
        <pt x="432" y="194" on="0"/>
        <pt x="446" y="284" on="1"/>
        <pt x="504" y="690" on="1"/>
      </contour>
    </TTGlyph>
    <TTGlyph name="V" xMin="57" yMin="0" xMax="704" yMax="690">
      <contour>
        <pt x="704" y="690" on="1"/>
        <pt x="437" y="47" on="1"/>
        <pt x="418" y="0" on="0"/>
        <pt x="370" y="0" on="1"/>
        <pt x="204" y="0" on="1"/>
        <pt x="180" y="0" on="0"/>
        <pt x="147" y="31" on="0"/>
        <pt x="144" y="54" on="1"/>
        <pt x="57" y="690" on="1"/>
        <pt x="246" y="690" on="1"/>
        <pt x="284" y="224" on="1"/>
        <pt x="287" y="177" on="0"/>
        <pt x="286" y="138" on="1"/>
        <pt x="312" y="138" on="1"/>
        <pt x="320" y="175" on="0"/>
        <pt x="337" y="222" on="1"/>
        <pt x="507" y="690" on="1"/>
      </contour>
    </TTGlyph>
    <TTGlyph name="W" xMin="76" yMin="0" xMax="1015" yMax="690">
      <contour>
        <pt x="1015" y="690" on="1"/>
        <pt x="829" y="47" on="1"/>
        <pt x="815" y="0" on="0"/>
        <pt x="762" y="0" on="1"/>
        <pt x="597" y="0" on="1"/>
        <pt x="573" y="0" on="0"/>
        <pt x="535" y="32" on="0"/>
        <pt x="534" y="55" on="1"/>
        <pt x="534" y="459" on="1"/>
        <pt x="537" y="551" on="0"/>
        <pt x="537" y="556" on="1"/>
        <pt x="518" y="556" on="1"/>
        <pt x="507" y="498" on="0"/>
        <pt x="497" y="460" on="1"/>
        <pt x="381" y="48" on="1"/>
        <pt x="367" y="0" on="0"/>
        <pt x="314" y="0" on="1"/>
        <pt x="146" y="0" on="1"/>
        <pt x="121" y="0" on="0"/>
        <pt x="84" y="32" on="0"/>
        <pt x="85" y="54" on="1"/>
        <pt x="76" y="690" on="1"/>
        <pt x="262" y="690" on="1"/>
        <pt x="247" y="238" on="1"/>
        <pt x="246" y="220" on="0"/>
        <pt x="242" y="147" on="0"/>
        <pt x="241" y="130" on="1"/>
        <pt x="260" y="130" on="1"/>
        <pt x="273" y="195" on="0"/>
        <pt x="288" y="246" on="1"/>
        <pt x="401" y="637" on="1"/>
        <pt x="415" y="690" on="0"/>
        <pt x="469" y="690" on="1"/>
        <pt x="610" y="690" on="1"/>
        <pt x="635" y="690" on="0"/>
        <pt x="668" y="656" on="0"/>
        <pt x="669" y="630" on="1"/>
        <pt x="677" y="237" on="1"/>
        <pt x="679" y="183" on="0"/>
        <pt x="677" y="130" on="1"/>
        <pt x="696" y="130" on="1"/>
        <pt x="705" y="190" on="0"/>
        <pt x="719" y="243" on="1"/>
        <pt x="829" y="690" on="1"/>
      </contour>
    </TTGlyph>
    <TTGlyph name="Wacute" xMin="76" yMin="0" xMax="1015" yMax="950">
      <contour>
        <pt x="760" y="822" on="1"/>
        <pt x="507" y="721" on="1"/>
        <pt x="464" y="797" on="1"/>
        <pt x="698" y="950" on="1"/>
      </contour>
      <contour>
        <pt x="1015" y="690" on="1"/>
        <pt x="829" y="47" on="1"/>
        <pt x="815" y="0" on="0"/>
        <pt x="762" y="0" on="1"/>
        <pt x="597" y="0" on="1"/>
        <pt x="573" y="0" on="0"/>
        <pt x="535" y="32" on="0"/>
        <pt x="534" y="55" on="1"/>
        <pt x="534" y="459" on="1"/>
        <pt x="537" y="551" on="0"/>
        <pt x="537" y="556" on="1"/>
        <pt x="518" y="556" on="1"/>
        <pt x="507" y="498" on="0"/>
        <pt x="497" y="460" on="1"/>
        <pt x="381" y="48" on="1"/>
        <pt x="367" y="0" on="0"/>
        <pt x="314" y="0" on="1"/>
        <pt x="146" y="0" on="1"/>
        <pt x="121" y="0" on="0"/>
        <pt x="84" y="32" on="0"/>
        <pt x="85" y="54" on="1"/>
        <pt x="76" y="690" on="1"/>
        <pt x="262" y="690" on="1"/>
        <pt x="247" y="238" on="1"/>
        <pt x="246" y="220" on="0"/>
        <pt x="242" y="147" on="0"/>
        <pt x="241" y="130" on="1"/>
        <pt x="260" y="130" on="1"/>
        <pt x="273" y="195" on="0"/>
        <pt x="288" y="246" on="1"/>
        <pt x="401" y="637" on="1"/>
        <pt x="415" y="690" on="0"/>
        <pt x="469" y="690" on="1"/>
        <pt x="610" y="690" on="1"/>
        <pt x="635" y="690" on="0"/>
        <pt x="668" y="656" on="0"/>
        <pt x="669" y="630" on="1"/>
        <pt x="677" y="237" on="1"/>
        <pt x="679" y="183" on="0"/>
        <pt x="677" y="130" on="1"/>
        <pt x="696" y="130" on="1"/>
        <pt x="705" y="190" on="0"/>
        <pt x="719" y="243" on="1"/>
        <pt x="829" y="690" on="1"/>
      </contour>
    </TTGlyph>
    <TTGlyph name="Wcircumflex" xMin="76" yMin="0" xMax="1015" yMax="920">
      <contour>
        <pt x="753" y="780" on="1"/>
        <pt x="702" y="720" on="1"/>
        <pt x="563" y="815" on="1"/>
        <pt x="555" y="815" on="1"/>
        <pt x="394" y="720" on="1"/>
        <pt x="351" y="785" on="1"/>
        <pt x="501" y="920" on="1"/>
        <pt x="624" y="920" on="1"/>
      </contour>
      <contour>
        <pt x="1015" y="690" on="1"/>
        <pt x="829" y="47" on="1"/>
        <pt x="815" y="0" on="0"/>
        <pt x="762" y="0" on="1"/>
        <pt x="597" y="0" on="1"/>
        <pt x="573" y="0" on="0"/>
        <pt x="535" y="32" on="0"/>
        <pt x="534" y="55" on="1"/>
        <pt x="534" y="459" on="1"/>
        <pt x="537" y="551" on="0"/>
        <pt x="537" y="556" on="1"/>
        <pt x="518" y="556" on="1"/>
        <pt x="507" y="498" on="0"/>
        <pt x="497" y="460" on="1"/>
        <pt x="381" y="48" on="1"/>
        <pt x="367" y="0" on="0"/>
        <pt x="314" y="0" on="1"/>
        <pt x="146" y="0" on="1"/>
        <pt x="121" y="0" on="0"/>
        <pt x="84" y="32" on="0"/>
        <pt x="85" y="54" on="1"/>
        <pt x="76" y="690" on="1"/>
        <pt x="262" y="690" on="1"/>
        <pt x="247" y="238" on="1"/>
        <pt x="246" y="220" on="0"/>
        <pt x="242" y="147" on="0"/>
        <pt x="241" y="130" on="1"/>
        <pt x="260" y="130" on="1"/>
        <pt x="273" y="195" on="0"/>
        <pt x="288" y="246" on="1"/>
        <pt x="401" y="637" on="1"/>
        <pt x="415" y="690" on="0"/>
        <pt x="469" y="690" on="1"/>
        <pt x="610" y="690" on="1"/>
        <pt x="635" y="690" on="0"/>
        <pt x="668" y="656" on="0"/>
        <pt x="669" y="630" on="1"/>
        <pt x="677" y="237" on="1"/>
        <pt x="679" y="183" on="0"/>
        <pt x="677" y="130" on="1"/>
        <pt x="696" y="130" on="1"/>
        <pt x="705" y="190" on="0"/>
        <pt x="719" y="243" on="1"/>
        <pt x="829" y="690" on="1"/>
      </contour>
    </TTGlyph>
    <TTGlyph name="Wdieresis" xMin="76" yMin="0" xMax="1015" yMax="896">
      <contour>
        <pt x="627" y="896" on="1"/>
        <pt x="694" y="896" on="1"/>
        <pt x="729" y="896" on="0"/>
        <pt x="723" y="864" on="1"/>
        <pt x="713" y="794" on="1"/>
        <pt x="709" y="763" on="0"/>
        <pt x="679" y="763" on="1"/>
        <pt x="610" y="763" on="1"/>
        <pt x="577" y="763" on="0"/>
        <pt x="581" y="794" on="1"/>
        <pt x="592" y="863" on="1"/>
        <pt x="596" y="896" on="0"/>
      </contour>
      <contour>
        <pt x="447" y="896" on="1"/>
        <pt x="511" y="896" on="1"/>
        <pt x="546" y="896" on="0"/>
        <pt x="540" y="864" on="1"/>
        <pt x="530" y="794" on="1"/>
        <pt x="526" y="763" on="0"/>
        <pt x="496" y="763" on="1"/>
        <pt x="427" y="763" on="1"/>
        <pt x="393" y="763" on="0"/>
        <pt x="399" y="794" on="1"/>
        <pt x="409" y="862" on="1"/>
        <pt x="413" y="896" on="0"/>
      </contour>
      <contour>
        <pt x="1015" y="690" on="1"/>
        <pt x="829" y="47" on="1"/>
        <pt x="815" y="0" on="0"/>
        <pt x="762" y="0" on="1"/>
        <pt x="597" y="0" on="1"/>
        <pt x="573" y="0" on="0"/>
        <pt x="535" y="32" on="0"/>
        <pt x="534" y="55" on="1"/>
        <pt x="534" y="459" on="1"/>
        <pt x="537" y="551" on="0"/>
        <pt x="537" y="556" on="1"/>
        <pt x="518" y="556" on="1"/>
        <pt x="507" y="498" on="0"/>
        <pt x="497" y="460" on="1"/>
        <pt x="381" y="48" on="1"/>
        <pt x="367" y="0" on="0"/>
        <pt x="314" y="0" on="1"/>
        <pt x="146" y="0" on="1"/>
        <pt x="121" y="0" on="0"/>
        <pt x="84" y="32" on="0"/>
        <pt x="85" y="54" on="1"/>
        <pt x="76" y="690" on="1"/>
        <pt x="262" y="690" on="1"/>
        <pt x="247" y="238" on="1"/>
        <pt x="246" y="220" on="0"/>
        <pt x="242" y="147" on="0"/>
        <pt x="241" y="130" on="1"/>
        <pt x="260" y="130" on="1"/>
        <pt x="273" y="195" on="0"/>
        <pt x="288" y="246" on="1"/>
        <pt x="401" y="637" on="1"/>
        <pt x="415" y="690" on="0"/>
        <pt x="469" y="690" on="1"/>
        <pt x="610" y="690" on="1"/>
        <pt x="635" y="690" on="0"/>
        <pt x="668" y="656" on="0"/>
        <pt x="669" y="630" on="1"/>
        <pt x="677" y="237" on="1"/>
        <pt x="679" y="183" on="0"/>
        <pt x="677" y="130" on="1"/>
        <pt x="696" y="130" on="1"/>
        <pt x="705" y="190" on="0"/>
        <pt x="719" y="243" on="1"/>
        <pt x="829" y="690" on="1"/>
      </contour>
    </TTGlyph>
    <TTGlyph name="Wgrave" xMin="76" yMin="0" xMax="1015" yMax="946">
      <contour>
        <pt x="645" y="797" on="1"/>
        <pt x="586" y="721" on="1"/>
        <pt x="350" y="831" on="1"/>
        <pt x="424" y="946" on="1"/>
      </contour>
      <contour>
        <pt x="1015" y="690" on="1"/>
        <pt x="829" y="47" on="1"/>
        <pt x="815" y="0" on="0"/>
        <pt x="762" y="0" on="1"/>
        <pt x="597" y="0" on="1"/>
        <pt x="573" y="0" on="0"/>
        <pt x="535" y="32" on="0"/>
        <pt x="534" y="55" on="1"/>
        <pt x="534" y="459" on="1"/>
        <pt x="537" y="551" on="0"/>
        <pt x="537" y="556" on="1"/>
        <pt x="518" y="556" on="1"/>
        <pt x="507" y="498" on="0"/>
        <pt x="497" y="460" on="1"/>
        <pt x="381" y="48" on="1"/>
        <pt x="367" y="0" on="0"/>
        <pt x="314" y="0" on="1"/>
        <pt x="146" y="0" on="1"/>
        <pt x="121" y="0" on="0"/>
        <pt x="84" y="32" on="0"/>
        <pt x="85" y="54" on="1"/>
        <pt x="76" y="690" on="1"/>
        <pt x="262" y="690" on="1"/>
        <pt x="247" y="238" on="1"/>
        <pt x="246" y="220" on="0"/>
        <pt x="242" y="147" on="0"/>
        <pt x="241" y="130" on="1"/>
        <pt x="260" y="130" on="1"/>
        <pt x="273" y="195" on="0"/>
        <pt x="288" y="246" on="1"/>
        <pt x="401" y="637" on="1"/>
        <pt x="415" y="690" on="0"/>
        <pt x="469" y="690" on="1"/>
        <pt x="610" y="690" on="1"/>
        <pt x="635" y="690" on="0"/>
        <pt x="668" y="656" on="0"/>
        <pt x="669" y="630" on="1"/>
        <pt x="677" y="237" on="1"/>
        <pt x="679" y="183" on="0"/>
        <pt x="677" y="130" on="1"/>
        <pt x="696" y="130" on="1"/>
        <pt x="705" y="190" on="0"/>
        <pt x="719" y="243" on="1"/>
        <pt x="829" y="690" on="1"/>
      </contour>
    </TTGlyph>
    <TTGlyph name="X" xMin="-40" yMin="0" xMax="698" yMax="690">
      <contour>
        <pt x="490" y="353" on="1"/>
        <pt x="612" y="0" on="1"/>
        <pt x="426" y="0" on="1"/>
        <pt x="338" y="300" on="1"/>
        <pt x="162" y="0" on="1"/>
        <pt x="-40" y="0" on="1"/>
        <pt x="184" y="353" on="1"/>
        <pt x="74" y="690" on="1"/>
        <pt x="257" y="690" on="1"/>
        <pt x="337" y="410" on="1"/>
        <pt x="340" y="410" on="1"/>
        <pt x="505" y="690" on="1"/>
        <pt x="698" y="690" on="1"/>
      </contour>
    </TTGlyph>
    <TTGlyph name="Y" xMin="50" yMin="0" xMax="690" yMax="690">
      <contour>
        <pt x="396" y="217" on="1"/>
        <pt x="366" y="0" on="1"/>
        <pt x="177" y="0" on="1"/>
        <pt x="209" y="226" on="1"/>
        <pt x="50" y="690" on="1"/>
        <pt x="238" y="690" on="1"/>
        <pt x="302" y="453" on="1"/>
        <pt x="312" y="408" on="0"/>
        <pt x="312" y="358" on="1"/>
        <pt x="325" y="358" on="1"/>
        <pt x="331" y="400" on="0"/>
        <pt x="357" y="453" on="1"/>
        <pt x="489" y="690" on="1"/>
        <pt x="690" y="690" on="1"/>
      </contour>
    </TTGlyph>
    <TTGlyph name="Yacute" xMin="50" yMin="0" xMax="690" yMax="951">
      <contour>
        <pt x="330" y="721" on="1"/>
        <pt x="288" y="797" on="1"/>
        <pt x="522" y="951" on="1"/>
        <pt x="583" y="822" on="1"/>
      </contour>
      <contour>
        <pt x="396" y="217" on="1"/>
        <pt x="366" y="0" on="1"/>
        <pt x="177" y="0" on="1"/>
        <pt x="209" y="226" on="1"/>
        <pt x="50" y="690" on="1"/>
        <pt x="238" y="690" on="1"/>
        <pt x="302" y="453" on="1"/>
        <pt x="312" y="408" on="0"/>
        <pt x="312" y="358" on="1"/>
        <pt x="325" y="358" on="1"/>
        <pt x="331" y="400" on="0"/>
        <pt x="357" y="453" on="1"/>
        <pt x="489" y="690" on="1"/>
        <pt x="690" y="690" on="1"/>
      </contour>
    </TTGlyph>
    <TTGlyph name="Ycircumflex" xMin="50" yMin="0" xMax="690" yMax="920">
      <contour>
        <pt x="218" y="721" on="1"/>
        <pt x="175" y="785" on="1"/>
        <pt x="324" y="920" on="1"/>
        <pt x="447" y="920" on="1"/>
        <pt x="576" y="781" on="1"/>
        <pt x="526" y="720" on="1"/>
        <pt x="386" y="816" on="1"/>
        <pt x="378" y="816" on="1"/>
      </contour>
      <contour>
        <pt x="396" y="217" on="1"/>
        <pt x="366" y="0" on="1"/>
        <pt x="177" y="0" on="1"/>
        <pt x="209" y="226" on="1"/>
        <pt x="50" y="690" on="1"/>
        <pt x="238" y="690" on="1"/>
        <pt x="302" y="453" on="1"/>
        <pt x="312" y="408" on="0"/>
        <pt x="312" y="358" on="1"/>
        <pt x="325" y="358" on="1"/>
        <pt x="331" y="400" on="0"/>
        <pt x="357" y="453" on="1"/>
        <pt x="489" y="690" on="1"/>
        <pt x="690" y="690" on="1"/>
      </contour>
    </TTGlyph>
    <TTGlyph name="Ydieresis" xMin="50" yMin="0" xMax="690" yMax="896">
      <contour>
        <pt x="502" y="763" on="1"/>
        <pt x="433" y="763" on="1"/>
        <pt x="400" y="763" on="0"/>
        <pt x="404" y="794" on="1"/>
        <pt x="415" y="863" on="1"/>
        <pt x="420" y="896" on="0"/>
        <pt x="450" y="896" on="1"/>
        <pt x="517" y="896" on="1"/>
        <pt x="552" y="896" on="0"/>
        <pt x="546" y="864" on="1"/>
        <pt x="536" y="795" on="1"/>
        <pt x="532" y="763" on="0"/>
      </contour>
      <contour>
        <pt x="319" y="763" on="1"/>
        <pt x="251" y="763" on="1"/>
        <pt x="216" y="763" on="0"/>
        <pt x="222" y="794" on="1"/>
        <pt x="232" y="863" on="1"/>
        <pt x="236" y="896" on="0"/>
        <pt x="270" y="896" on="1"/>
        <pt x="334" y="896" on="1"/>
        <pt x="368" y="896" on="0"/>
        <pt x="364" y="864" on="1"/>
        <pt x="353" y="794" on="1"/>
        <pt x="349" y="763" on="0"/>
      </contour>
      <contour>
        <pt x="396" y="217" on="1"/>
        <pt x="366" y="0" on="1"/>
        <pt x="177" y="0" on="1"/>
        <pt x="209" y="226" on="1"/>
        <pt x="50" y="690" on="1"/>
        <pt x="238" y="690" on="1"/>
        <pt x="302" y="453" on="1"/>
        <pt x="312" y="408" on="0"/>
        <pt x="312" y="358" on="1"/>
        <pt x="325" y="358" on="1"/>
        <pt x="331" y="400" on="0"/>
        <pt x="357" y="453" on="1"/>
        <pt x="489" y="690" on="1"/>
        <pt x="690" y="690" on="1"/>
      </contour>
    </TTGlyph>
    <TTGlyph name="Ygrave" xMin="50" yMin="0" xMax="690" yMax="946">
      <contour>
        <pt x="409" y="721" on="1"/>
        <pt x="174" y="831" on="1"/>
        <pt x="247" y="946" on="1"/>
        <pt x="468" y="797" on="1"/>
      </contour>
      <contour>
        <pt x="396" y="217" on="1"/>
        <pt x="366" y="0" on="1"/>
        <pt x="177" y="0" on="1"/>
        <pt x="209" y="226" on="1"/>
        <pt x="50" y="690" on="1"/>
        <pt x="238" y="690" on="1"/>
        <pt x="302" y="453" on="1"/>
        <pt x="312" y="408" on="0"/>
        <pt x="312" y="358" on="1"/>
        <pt x="325" y="358" on="1"/>
        <pt x="331" y="400" on="0"/>
        <pt x="357" y="453" on="1"/>
        <pt x="489" y="690" on="1"/>
        <pt x="690" y="690" on="1"/>
      </contour>
    </TTGlyph>
    <TTGlyph name="Z" xMin="-7" yMin="0" xMax="603" yMax="690">
      <contour>
        <pt x="584" y="554" on="1"/>
        <pt x="227" y="136" on="1"/>
        <pt x="534" y="136" on="1"/>
        <pt x="515" y="0" on="1"/>
        <pt x="-7" y="0" on="1"/>
        <pt x="11" y="136" on="1"/>
        <pt x="369" y="554" on="1"/>
        <pt x="80" y="554" on="1"/>
        <pt x="99" y="690" on="1"/>
        <pt x="603" y="690" on="1"/>
      </contour>
    </TTGlyph>
    <TTGlyph name="Zacute" xMin="-7" yMin="0" xMax="603" yMax="951">
      <contour>
        <pt x="312" y="721" on="1"/>
        <pt x="269" y="797" on="1"/>
        <pt x="503" y="951" on="1"/>
        <pt x="565" y="822" on="1"/>
      </contour>
      <contour>
        <pt x="584" y="554" on="1"/>
        <pt x="227" y="136" on="1"/>
        <pt x="534" y="136" on="1"/>
        <pt x="515" y="0" on="1"/>
        <pt x="-7" y="0" on="1"/>
        <pt x="11" y="136" on="1"/>
        <pt x="369" y="554" on="1"/>
        <pt x="80" y="554" on="1"/>
        <pt x="99" y="690" on="1"/>
        <pt x="603" y="690" on="1"/>
      </contour>
    </TTGlyph>
    <TTGlyph name="Zcaron" xMin="-7" yMin="0" xMax="603" yMax="939">
      <contour>
        <pt x="315" y="738" on="1"/>
        <pt x="165" y="880" on="1"/>
        <pt x="219" y="939" on="1"/>
        <pt x="357" y="853" on="1"/>
        <pt x="365" y="853" on="1"/>
        <pt x="529" y="936" on="1"/>
        <pt x="567" y="869" on="1"/>
        <pt x="396" y="738" on="1"/>
      </contour>
      <contour>
        <pt x="584" y="554" on="1"/>
        <pt x="227" y="136" on="1"/>
        <pt x="534" y="136" on="1"/>
        <pt x="515" y="0" on="1"/>
        <pt x="-7" y="0" on="1"/>
        <pt x="11" y="136" on="1"/>
        <pt x="369" y="554" on="1"/>
        <pt x="80" y="554" on="1"/>
        <pt x="99" y="690" on="1"/>
        <pt x="603" y="690" on="1"/>
      </contour>
    </TTGlyph>
    <TTGlyph name="Zdotaccent" xMin="-7" yMin="0" xMax="603" yMax="901">
      <contour>
        <pt x="389" y="752" on="1"/>
        <pt x="334" y="752" on="1"/>
        <pt x="277" y="752" on="0"/>
        <pt x="285" y="806" on="1"/>
        <pt x="291" y="855" on="1"/>
        <pt x="298" y="901" on="0"/>
        <pt x="345" y="901" on="1"/>
        <pt x="397" y="901" on="1"/>
        <pt x="422" y="901" on="0"/>
        <pt x="449" y="874" on="0"/>
        <pt x="447" y="849" on="1"/>
        <pt x="441" y="799" on="1"/>
        <pt x="435" y="752" on="0"/>
      </contour>
      <contour>
        <pt x="584" y="554" on="1"/>
        <pt x="227" y="136" on="1"/>
        <pt x="534" y="136" on="1"/>
        <pt x="515" y="0" on="1"/>
        <pt x="-7" y="0" on="1"/>
        <pt x="11" y="136" on="1"/>
        <pt x="369" y="554" on="1"/>
        <pt x="80" y="554" on="1"/>
        <pt x="99" y="690" on="1"/>
        <pt x="603" y="690" on="1"/>
      </contour>
    </TTGlyph>
    <TTGlyph name="a" xMin="30" yMin="-12" xMax="579" yMax="511">
      <contour>
        <pt x="511" y="0" on="1"/>
        <pt x="370" y="0" on="1"/>
        <pt x="370" y="94" on="1"/>
        <pt x="300" y="-6" on="0"/>
        <pt x="172" y="-12" on="1"/>
        <pt x="73" y="-17" on="0"/>
        <pt x="9" y="119" on="0"/>
        <pt x="30" y="260" on="1"/>
        <pt x="41" y="329" on="0"/>
        <pt x="81" y="423" on="0"/>
        <pt x="128" y="476" on="0"/>
        <pt x="207" y="504" on="0"/>
        <pt x="278" y="511" on="0"/>
        <pt x="335" y="511" on="1"/>
        <pt x="387" y="511" on="0"/>
        <pt x="543" y="491" on="0"/>
        <pt x="579" y="480" on="1"/>
      </contour>
      <contour>
        <pt x="385" y="386" on="1"/>
        <pt x="326" y="387" on="1"/>
        <pt x="273" y="387" on="0"/>
        <pt x="226" y="342" on="0"/>
        <pt x="215" y="263" on="1"/>
        <pt x="202" y="177" on="0"/>
        <pt x="212" y="129" on="0"/>
        <pt x="243" y="130" on="1"/>
        <pt x="297" y="133" on="0"/>
        <pt x="361" y="217" on="1"/>
      </contour>
    </TTGlyph>
    <TTGlyph name="aacute" xMin="30" yMin="-12" xMax="579" yMax="765">
      <contour>
        <pt x="304" y="536" on="1"/>
        <pt x="262" y="612" on="1"/>
        <pt x="496" y="765" on="1"/>
        <pt x="557" y="637" on="1"/>
      </contour>
      <contour>
        <pt x="511" y="0" on="1"/>
        <pt x="370" y="0" on="1"/>
        <pt x="370" y="94" on="1"/>
        <pt x="300" y="-6" on="0"/>
        <pt x="172" y="-12" on="1"/>
        <pt x="73" y="-17" on="0"/>
        <pt x="9" y="119" on="0"/>
        <pt x="30" y="260" on="1"/>
        <pt x="41" y="329" on="0"/>
        <pt x="81" y="423" on="0"/>
        <pt x="128" y="476" on="0"/>
        <pt x="207" y="504" on="0"/>
        <pt x="278" y="511" on="0"/>
        <pt x="335" y="511" on="1"/>
        <pt x="387" y="511" on="0"/>
        <pt x="543" y="491" on="0"/>
        <pt x="579" y="480" on="1"/>
      </contour>
      <contour>
        <pt x="385" y="386" on="1"/>
        <pt x="326" y="387" on="1"/>
        <pt x="273" y="387" on="0"/>
        <pt x="226" y="342" on="0"/>
        <pt x="215" y="263" on="1"/>
        <pt x="202" y="177" on="0"/>
        <pt x="212" y="129" on="0"/>
        <pt x="243" y="130" on="1"/>
        <pt x="297" y="133" on="0"/>
        <pt x="361" y="217" on="1"/>
      </contour>
    </TTGlyph>
    <TTGlyph name="abreve" xMin="30" yMin="-12" xMax="579" yMax="726">
      <contour>
        <pt x="457" y="726" on="1"/>
        <pt x="540" y="712" on="1"/>
        <pt x="540" y="645" on="0"/>
        <pt x="438" y="553" on="0"/>
        <pt x="353" y="553" on="1"/>
        <pt x="266" y="553" on="0"/>
        <pt x="176" y="652" on="0"/>
        <pt x="196" y="719" on="1"/>
        <pt x="282" y="724" on="1"/>
        <pt x="278" y="693" on="0"/>
        <pt x="315" y="666" on="0"/>
        <pt x="359" y="666" on="1"/>
        <pt x="451" y="666" on="0"/>
      </contour>
      <contour>
        <pt x="511" y="0" on="1"/>
        <pt x="370" y="0" on="1"/>
        <pt x="370" y="94" on="1"/>
        <pt x="300" y="-6" on="0"/>
        <pt x="172" y="-12" on="1"/>
        <pt x="73" y="-17" on="0"/>
        <pt x="9" y="119" on="0"/>
        <pt x="30" y="260" on="1"/>
        <pt x="41" y="329" on="0"/>
        <pt x="81" y="423" on="0"/>
        <pt x="128" y="476" on="0"/>
        <pt x="207" y="504" on="0"/>
        <pt x="278" y="511" on="0"/>
        <pt x="335" y="511" on="1"/>
        <pt x="387" y="511" on="0"/>
        <pt x="543" y="491" on="0"/>
        <pt x="579" y="480" on="1"/>
      </contour>
      <contour>
        <pt x="385" y="386" on="1"/>
        <pt x="326" y="387" on="1"/>
        <pt x="273" y="387" on="0"/>
        <pt x="226" y="342" on="0"/>
        <pt x="215" y="263" on="1"/>
        <pt x="202" y="177" on="0"/>
        <pt x="212" y="129" on="0"/>
        <pt x="243" y="130" on="1"/>
        <pt x="297" y="133" on="0"/>
        <pt x="361" y="217" on="1"/>
      </contour>
    </TTGlyph>
    <TTGlyph name="acircumflex" xMin="30" yMin="-12" xMax="579" yMax="735">
      <contour>
        <pt x="192" y="535" on="1"/>
        <pt x="149" y="600" on="1"/>
        <pt x="298" y="735" on="1"/>
        <pt x="421" y="735" on="1"/>
        <pt x="550" y="595" on="1"/>
        <pt x="500" y="534" on="1"/>
        <pt x="360" y="630" on="1"/>
        <pt x="352" y="630" on="1"/>
      </contour>
      <contour>
        <pt x="511" y="0" on="1"/>
        <pt x="370" y="0" on="1"/>
        <pt x="370" y="94" on="1"/>
        <pt x="300" y="-6" on="0"/>
        <pt x="172" y="-12" on="1"/>
        <pt x="73" y="-17" on="0"/>
        <pt x="9" y="119" on="0"/>
        <pt x="30" y="260" on="1"/>
        <pt x="41" y="329" on="0"/>
        <pt x="81" y="423" on="0"/>
        <pt x="128" y="476" on="0"/>
        <pt x="207" y="504" on="0"/>
        <pt x="278" y="511" on="0"/>
        <pt x="335" y="511" on="1"/>
        <pt x="387" y="511" on="0"/>
        <pt x="543" y="491" on="0"/>
        <pt x="579" y="480" on="1"/>
      </contour>
      <contour>
        <pt x="385" y="386" on="1"/>
        <pt x="326" y="387" on="1"/>
        <pt x="273" y="387" on="0"/>
        <pt x="226" y="342" on="0"/>
        <pt x="215" y="263" on="1"/>
        <pt x="202" y="177" on="0"/>
        <pt x="212" y="129" on="0"/>
        <pt x="243" y="130" on="1"/>
        <pt x="297" y="133" on="0"/>
        <pt x="361" y="217" on="1"/>
      </contour>
    </TTGlyph>
    <TTGlyph name="acute" xMin="93" yMin="517" xMax="388" yMax="746">
      <contour>
        <pt x="388" y="618" on="1"/>
        <pt x="135" y="517" on="1"/>
        <pt x="93" y="593" on="1"/>
        <pt x="327" y="746" on="1"/>
      </contour>
    </TTGlyph>
    <TTGlyph name="adieresis" xMin="30" yMin="-12" xMax="579" yMax="710">
      <contour>
        <pt x="293" y="577" on="1"/>
        <pt x="225" y="577" on="1"/>
        <pt x="190" y="577" on="0"/>
        <pt x="196" y="609" on="1"/>
        <pt x="206" y="677" on="1"/>
        <pt x="210" y="710" on="0"/>
        <pt x="244" y="710" on="1"/>
        <pt x="308" y="710" on="1"/>
        <pt x="343" y="710" on="0"/>
        <pt x="337" y="679" on="1"/>
        <pt x="327" y="608" on="1"/>
        <pt x="323" y="577" on="0"/>
      </contour>
      <contour>
        <pt x="476" y="577" on="1"/>
        <pt x="407" y="577" on="1"/>
        <pt x="373" y="577" on="0"/>
        <pt x="378" y="609" on="1"/>
        <pt x="389" y="678" on="1"/>
        <pt x="393" y="710" on="0"/>
        <pt x="424" y="710" on="1"/>
        <pt x="491" y="710" on="1"/>
        <pt x="526" y="710" on="0"/>
        <pt x="520" y="679" on="1"/>
        <pt x="510" y="609" on="1"/>
        <pt x="506" y="577" on="0"/>
      </contour>
      <contour>
        <pt x="511" y="0" on="1"/>
        <pt x="370" y="0" on="1"/>
        <pt x="370" y="94" on="1"/>
        <pt x="300" y="-6" on="0"/>
        <pt x="172" y="-12" on="1"/>
        <pt x="73" y="-17" on="0"/>
        <pt x="9" y="119" on="0"/>
        <pt x="30" y="260" on="1"/>
        <pt x="41" y="329" on="0"/>
        <pt x="81" y="423" on="0"/>
        <pt x="128" y="476" on="0"/>
        <pt x="207" y="504" on="0"/>
        <pt x="278" y="511" on="0"/>
        <pt x="335" y="511" on="1"/>
        <pt x="387" y="511" on="0"/>
        <pt x="543" y="491" on="0"/>
        <pt x="579" y="480" on="1"/>
      </contour>
      <contour>
        <pt x="385" y="386" on="1"/>
        <pt x="326" y="387" on="1"/>
        <pt x="273" y="387" on="0"/>
        <pt x="226" y="342" on="0"/>
        <pt x="215" y="263" on="1"/>
        <pt x="202" y="177" on="0"/>
        <pt x="212" y="129" on="0"/>
        <pt x="243" y="130" on="1"/>
        <pt x="297" y="133" on="0"/>
        <pt x="361" y="217" on="1"/>
      </contour>
    </TTGlyph>
    <TTGlyph name="ae" xMin="31" yMin="-12" xMax="884" yMax="511">
      <contour>
        <pt x="821" y="141" on="1"/>
        <pt x="833" y="28" on="1"/>
        <pt x="745" y="-12" on="0"/>
        <pt x="609" y="-12" on="1"/>
        <pt x="417" y="-12" on="0"/>
        <pt x="373" y="101" on="1"/>
        <pt x="305" y="-4" on="0"/>
        <pt x="172" y="-12" on="1"/>
        <pt x="74" y="-17" on="0"/>
        <pt x="11" y="119" on="0"/>
        <pt x="31" y="260" on="1"/>
        <pt x="39" y="318" on="0"/>
        <pt x="64" y="402" on="0"/>
        <pt x="103" y="456" on="0"/>
        <pt x="142" y="489" on="0"/>
        <pt x="204" y="506" on="0"/>
        <pt x="258" y="511" on="0"/>
        <pt x="300" y="511" on="1"/>
        <pt x="418" y="511" on="0"/>
        <pt x="515" y="494" on="1"/>
        <pt x="570" y="511" on="0"/>
        <pt x="654" y="511" on="1"/>
        <pt x="794" y="511" on="0"/>
        <pt x="897" y="422" on="0"/>
        <pt x="884" y="332" on="1"/>
        <pt x="874" y="265" on="0"/>
        <pt x="780" y="210" on="0"/>
        <pt x="678" y="202" on="1"/>
        <pt x="541" y="192" on="1"/>
        <pt x="542" y="154" on="0"/>
        <pt x="581" y="129" on="0"/>
        <pt x="628" y="129" on="1"/>
        <pt x="722" y="129" on="0"/>
      </contour>
      <contour>
        <pt x="552" y="287" on="1"/>
        <pt x="637" y="296" on="1"/>
        <pt x="674" y="299" on="0"/>
        <pt x="706" y="320" on="0"/>
        <pt x="709" y="350" on="1"/>
        <pt x="711" y="374" on="0"/>
        <pt x="688" y="389" on="0"/>
        <pt x="651" y="388" on="1"/>
        <pt x="602" y="387" on="0"/>
        <pt x="563" y="348" on="0"/>
      </contour>
      <contour>
        <pt x="244" y="130" on="1"/>
        <pt x="296" y="133" on="0"/>
        <pt x="358" y="214" on="1"/>
        <pt x="358" y="220" on="0"/>
        <pt x="359" y="233" on="0"/>
        <pt x="361" y="250" on="0"/>
        <pt x="361" y="255" on="1"/>
        <pt x="370" y="333" on="0"/>
        <pt x="393" y="386" on="1"/>
        <pt x="325" y="387" on="1"/>
        <pt x="270" y="387" on="0"/>
        <pt x="228" y="343" on="0"/>
        <pt x="217" y="263" on="1"/>
        <pt x="204" y="177" on="0"/>
        <pt x="213" y="129" on="0"/>
      </contour>
    </TTGlyph>
    <TTGlyph name="agrave" xMin="30" yMin="-12" xMax="579" yMax="761">
      <contour>
        <pt x="383" y="536" on="1"/>
        <pt x="147" y="645" on="1"/>
        <pt x="221" y="761" on="1"/>
        <pt x="442" y="611" on="1"/>
      </contour>
      <contour>
        <pt x="511" y="0" on="1"/>
        <pt x="370" y="0" on="1"/>
        <pt x="370" y="94" on="1"/>
        <pt x="300" y="-6" on="0"/>
        <pt x="172" y="-12" on="1"/>
        <pt x="73" y="-17" on="0"/>
        <pt x="9" y="119" on="0"/>
        <pt x="30" y="260" on="1"/>
        <pt x="41" y="329" on="0"/>
        <pt x="81" y="423" on="0"/>
        <pt x="128" y="476" on="0"/>
        <pt x="207" y="504" on="0"/>
        <pt x="278" y="511" on="0"/>
        <pt x="335" y="511" on="1"/>
        <pt x="387" y="511" on="0"/>
        <pt x="543" y="491" on="0"/>
        <pt x="579" y="480" on="1"/>
      </contour>
      <contour>
        <pt x="385" y="386" on="1"/>
        <pt x="326" y="387" on="1"/>
        <pt x="273" y="387" on="0"/>
        <pt x="226" y="342" on="0"/>
        <pt x="215" y="263" on="1"/>
        <pt x="202" y="177" on="0"/>
        <pt x="212" y="129" on="0"/>
        <pt x="243" y="130" on="1"/>
        <pt x="297" y="133" on="0"/>
        <pt x="361" y="217" on="1"/>
      </contour>
    </TTGlyph>
    <TTGlyph name="amacron" xMin="30" yMin="-12" xMax="579" yMax="699">
      <contour>
        <pt x="504" y="588" on="1"/>
        <pt x="194" y="588" on="1"/>
        <pt x="209" y="699" on="1"/>
        <pt x="520" y="699" on="1"/>
      </contour>
      <contour>
        <pt x="511" y="0" on="1"/>
        <pt x="370" y="0" on="1"/>
        <pt x="370" y="94" on="1"/>
        <pt x="300" y="-6" on="0"/>
        <pt x="172" y="-12" on="1"/>
        <pt x="73" y="-17" on="0"/>
        <pt x="9" y="119" on="0"/>
        <pt x="30" y="260" on="1"/>
        <pt x="41" y="329" on="0"/>
        <pt x="81" y="423" on="0"/>
        <pt x="128" y="476" on="0"/>
        <pt x="207" y="504" on="0"/>
        <pt x="278" y="511" on="0"/>
        <pt x="335" y="511" on="1"/>
        <pt x="387" y="511" on="0"/>
        <pt x="543" y="491" on="0"/>
        <pt x="579" y="480" on="1"/>
      </contour>
      <contour>
        <pt x="385" y="386" on="1"/>
        <pt x="326" y="387" on="1"/>
        <pt x="273" y="387" on="0"/>
        <pt x="226" y="342" on="0"/>
        <pt x="215" y="263" on="1"/>
        <pt x="202" y="177" on="0"/>
        <pt x="212" y="129" on="0"/>
        <pt x="243" y="130" on="1"/>
        <pt x="297" y="133" on="0"/>
        <pt x="361" y="217" on="1"/>
      </contour>
    </TTGlyph>
    <TTGlyph name="ampersand" xMin="23" yMin="-13" xMax="750" yMax="703">
      <contour>
        <pt x="733" y="295" on="1"/>
        <pt x="653" y="295" on="1"/>
        <pt x="639" y="226" on="0"/>
        <pt x="613" y="173" on="1"/>
        <pt x="522" y="-13" on="0"/>
        <pt x="257" y="-13" on="1"/>
        <pt x="122" y="-13" on="0"/>
        <pt x="11" y="82" on="0"/>
        <pt x="23" y="183" on="1"/>
        <pt x="32" y="259" on="0"/>
        <pt x="110" y="351" on="0"/>
        <pt x="181" y="355" on="1"/>
        <pt x="182" y="361" on="1"/>
        <pt x="130" y="365" on="0"/>
        <pt x="80" y="461" on="0"/>
        <pt x="92" y="527" on="1"/>
        <pt x="102" y="583" on="0"/>
        <pt x="149" y="655" on="0"/>
        <pt x="227" y="691" on="0"/>
        <pt x="311" y="703" on="0"/>
        <pt x="374" y="703" on="1"/>
        <pt x="472" y="703" on="0"/>
        <pt x="546" y="680" on="1"/>
        <pt x="517" y="556" on="1"/>
        <pt x="445" y="569" on="0"/>
        <pt x="380" y="569" on="1"/>
        <pt x="324" y="569" on="0"/>
        <pt x="282" y="540" on="0"/>
        <pt x="275" y="492" on="1"/>
        <pt x="269" y="446" on="0"/>
        <pt x="297" y="413" on="0"/>
        <pt x="338" y="413" on="1"/>
        <pt x="514" y="413" on="1"/>
        <pt x="518" y="452" on="0"/>
        <pt x="518" y="507" on="1"/>
        <pt x="670" y="507" on="1"/>
        <pt x="670" y="460" on="0"/>
        <pt x="667" y="413" on="1"/>
        <pt x="750" y="413" on="1"/>
      </contour>
      <contour>
        <pt x="496" y="295" on="1"/>
        <pt x="321" y="295" on="1"/>
        <pt x="275" y="295" on="0"/>
        <pt x="229" y="257" on="0"/>
        <pt x="223" y="207" on="1"/>
        <pt x="218" y="165" on="0"/>
        <pt x="252" y="132" on="0"/>
        <pt x="299" y="132" on="1"/>
        <pt x="420" y="132" on="0"/>
        <pt x="470" y="228" on="1"/>
        <pt x="487" y="257" on="0"/>
      </contour>
    </TTGlyph>
    <TTGlyph name="aogonek" xMin="30" yMin="-211" xMax="579" yMax="511">
      <contour>
        <pt x="579" y="480" on="1"/>
        <pt x="511" y="0" on="1"/>
        <pt x="470" y="-44" on="0"/>
        <pt x="447" y="-97" on="1"/>
        <pt x="438" y="-118" on="0"/>
        <pt x="458" y="-131" on="0"/>
        <pt x="487" y="-124" on="1"/>
        <pt x="502" y="-190" on="1"/>
        <pt x="455" y="-207" on="0"/>
        <pt x="379" y="-214" on="0"/>
        <pt x="335" y="-195" on="0"/>
        <pt x="306" y="-163" on="0"/>
        <pt x="310" y="-120" on="0"/>
        <pt x="319" y="-98" on="1"/>
        <pt x="348" y="-46" on="0"/>
        <pt x="424" y="0" on="1"/>
        <pt x="370" y="0" on="1"/>
        <pt x="370" y="94" on="1"/>
        <pt x="300" y="-6" on="0"/>
        <pt x="172" y="-12" on="1"/>
        <pt x="73" y="-17" on="0"/>
        <pt x="9" y="119" on="0"/>
        <pt x="30" y="260" on="1"/>
        <pt x="41" y="329" on="0"/>
        <pt x="81" y="423" on="0"/>
        <pt x="128" y="476" on="0"/>
        <pt x="207" y="504" on="0"/>
        <pt x="278" y="511" on="0"/>
        <pt x="335" y="511" on="1"/>
        <pt x="387" y="511" on="0"/>
        <pt x="543" y="491" on="0"/>
      </contour>
      <contour>
        <pt x="385" y="386" on="1"/>
        <pt x="326" y="387" on="1"/>
        <pt x="273" y="387" on="0"/>
        <pt x="226" y="342" on="0"/>
        <pt x="215" y="263" on="1"/>
        <pt x="202" y="177" on="0"/>
        <pt x="212" y="129" on="0"/>
        <pt x="243" y="130" on="1"/>
        <pt x="297" y="133" on="0"/>
        <pt x="361" y="217" on="1"/>
      </contour>
    </TTGlyph>
    <TTGlyph name="approxequal" xMin="37" yMin="104" xMax="546" yMax="475">
      <contour>
        <pt x="175" y="305" on="1"/>
        <pt x="65" y="312" on="1"/>
        <pt x="56" y="398" on="0"/>
        <pt x="133" y="481" on="0"/>
        <pt x="201" y="475" on="1"/>
        <pt x="228" y="473" on="0"/>
        <pt x="372" y="432" on="0"/>
        <pt x="389" y="430" on="1"/>
        <pt x="413" y="427" on="0"/>
        <pt x="431" y="449" on="0"/>
        <pt x="434" y="474" on="1"/>
        <pt x="546" y="466" on="1"/>
        <pt x="553" y="384" on="0"/>
        <pt x="483" y="301" on="0"/>
        <pt x="409" y="304" on="1"/>
        <pt x="381" y="305" on="0"/>
        <pt x="239" y="347" on="0"/>
        <pt x="220" y="348" on="1"/>
        <pt x="196" y="351" on="0"/>
        <pt x="179" y="331" on="0"/>
      </contour>
      <contour>
        <pt x="148" y="105" on="1"/>
        <pt x="37" y="112" on="1"/>
        <pt x="30" y="198" on="0"/>
        <pt x="106" y="281" on="0"/>
        <pt x="174" y="275" on="1"/>
        <pt x="201" y="273" on="0"/>
        <pt x="345" y="232" on="0"/>
        <pt x="379" y="228" on="0"/>
        <pt x="398" y="239" on="0"/>
        <pt x="405" y="257" on="0"/>
        <pt x="407" y="274" on="1"/>
        <pt x="518" y="266" on="1"/>
        <pt x="526" y="184" on="0"/>
        <pt x="456" y="100" on="0"/>
        <pt x="382" y="104" on="1"/>
        <pt x="353" y="105" on="0"/>
        <pt x="210" y="146" on="0"/>
        <pt x="192" y="148" on="1"/>
        <pt x="168" y="150" on="0"/>
        <pt x="151" y="130" on="0"/>
      </contour>
    </TTGlyph>
    <TTGlyph name="aring" xMin="30" yMin="-12" xMax="579" yMax="765">
      <contour>
        <pt x="355" y="530" on="1"/>
        <pt x="299" y="530" on="0"/>
        <pt x="230" y="603" on="0"/>
        <pt x="237" y="655" on="1"/>
        <pt x="243" y="702" on="0"/>
        <pt x="312" y="765" on="0"/>
        <pt x="365" y="765" on="1"/>
        <pt x="419" y="765" on="0"/>
        <pt x="490" y="693" on="0"/>
        <pt x="483" y="641" on="1"/>
        <pt x="478" y="594" on="0"/>
        <pt x="408" y="530" on="0"/>
      </contour>
      <contour>
        <pt x="313" y="650" on="1"/>
        <pt x="311" y="627" on="0"/>
        <pt x="335" y="599" on="0"/>
        <pt x="356" y="599" on="1"/>
        <pt x="378" y="599" on="0"/>
        <pt x="406" y="628" on="0"/>
        <pt x="408" y="651" on="1"/>
        <pt x="409" y="671" on="0"/>
        <pt x="384" y="697" on="0"/>
        <pt x="363" y="697" on="1"/>
        <pt x="343" y="697" on="0"/>
        <pt x="315" y="670" on="0"/>
      </contour>
      <contour>
        <pt x="511" y="0" on="1"/>
        <pt x="370" y="0" on="1"/>
        <pt x="370" y="94" on="1"/>
        <pt x="300" y="-6" on="0"/>
        <pt x="172" y="-12" on="1"/>
        <pt x="73" y="-17" on="0"/>
        <pt x="9" y="119" on="0"/>
        <pt x="30" y="260" on="1"/>
        <pt x="41" y="329" on="0"/>
        <pt x="81" y="423" on="0"/>
        <pt x="128" y="476" on="0"/>
        <pt x="207" y="504" on="0"/>
        <pt x="278" y="511" on="0"/>
        <pt x="335" y="511" on="1"/>
        <pt x="387" y="511" on="0"/>
        <pt x="543" y="491" on="0"/>
        <pt x="579" y="480" on="1"/>
      </contour>
      <contour>
        <pt x="385" y="386" on="1"/>
        <pt x="326" y="387" on="1"/>
        <pt x="273" y="387" on="0"/>
        <pt x="226" y="342" on="0"/>
        <pt x="215" y="263" on="1"/>
        <pt x="202" y="177" on="0"/>
        <pt x="212" y="129" on="0"/>
        <pt x="243" y="130" on="1"/>
        <pt x="297" y="133" on="0"/>
        <pt x="361" y="217" on="1"/>
      </contour>
    </TTGlyph>
    <TTGlyph name="asciicircum" xMin="52" yMin="371" xMax="473" yMax="641">
      <contour>
        <pt x="473" y="408" on="1"/>
        <pt x="400" y="371" on="1"/>
        <pt x="288" y="532" on="1"/>
        <pt x="280" y="532" on="1"/>
        <pt x="120" y="371" on="1"/>
        <pt x="52" y="408" on="1"/>
        <pt x="226" y="641" on="1"/>
        <pt x="357" y="641" on="1"/>
      </contour>
    </TTGlyph>
    <TTGlyph name="asciitilde" xMin="42" yMin="207" xMax="462" yMax="370">
      <contour>
        <pt x="118" y="208" on="1"/>
        <pt x="42" y="215" on="1"/>
        <pt x="40" y="293" on="0"/>
        <pt x="94" y="370" on="0"/>
        <pt x="137" y="370" on="1"/>
        <pt x="169" y="369" on="0"/>
        <pt x="335" y="323" on="0"/>
        <pt x="336" y="323" on="1"/>
        <pt x="362" y="318" on="0"/>
        <pt x="382" y="341" on="0"/>
        <pt x="386" y="368" on="1"/>
        <pt x="462" y="361" on="1"/>
        <pt x="463" y="284" on="0"/>
        <pt x="413" y="206" on="0"/>
        <pt x="368" y="207" on="1"/>
        <pt x="334" y="208" on="0"/>
        <pt x="172" y="253" on="0"/>
        <pt x="167" y="254" on="1"/>
        <pt x="142" y="258" on="0"/>
        <pt x="122" y="236" on="0"/>
      </contour>
    </TTGlyph>
    <TTGlyph name="asterisk" xMin="63" yMin="333" xMax="458" yMax="692">
      <contour>
        <pt x="295" y="520" on="1"/>
        <pt x="387" y="391" on="1"/>
        <pt x="305" y="333" on="1"/>
        <pt x="255" y="453" on="1"/>
        <pt x="171" y="333" on="1"/>
        <pt x="97" y="391" on="1"/>
        <pt x="226" y="519" on="1"/>
        <pt x="234" y="692" on="1"/>
        <pt x="334" y="692" on="1"/>
      </contour>
      <contour>
        <pt x="212" y="568" on="1"/>
        <pt x="209" y="525" on="1"/>
        <pt x="182" y="500" on="1"/>
        <pt x="63" y="525" on="1"/>
        <pt x="102" y="619" on="1"/>
      </contour>
      <contour>
        <pt x="458" y="523" on="1"/>
        <pt x="335" y="497" on="1"/>
        <pt x="313" y="524" on="1"/>
        <pt x="322" y="567" on="1"/>
        <pt x="439" y="618" on="1"/>
      </contour>
    </TTGlyph>
    <TTGlyph name="at" xMin="35" yMin="-12" xMax="781" yMax="654">
      <contour>
        <pt x="85" y="528" on="1"/>
        <pt x="94" y="644" on="1"/>
        <pt x="244" y="652" on="0"/>
        <pt x="429" y="654" on="1"/>
        <pt x="513" y="655" on="0"/>
        <pt x="621" y="647" on="0"/>
        <pt x="711" y="620" on="0"/>
        <pt x="756" y="576" on="0"/>
        <pt x="782" y="498" on="0"/>
        <pt x="780" y="396" on="0"/>
        <pt x="769" y="320" on="1"/>
        <pt x="759" y="250" on="0"/>
        <pt x="742" y="162" on="0"/>
        <pt x="713" y="80" on="0"/>
        <pt x="676" y="35" on="0"/>
        <pt x="619" y="1" on="0"/>
        <pt x="544" y="-12" on="0"/>
        <pt x="491" y="-12" on="1"/>
        <pt x="363" y="-12" on="0"/>
        <pt x="332" y="80" on="1"/>
        <pt x="267" y="-12" on="0"/>
        <pt x="174" y="-12" on="1"/>
        <pt x="-5" y="-12" on="0"/>
        <pt x="35" y="231" on="1"/>
        <pt x="47" y="303" on="0"/>
        <pt x="89" y="395" on="0"/>
        <pt x="155" y="440" on="0"/>
        <pt x="224" y="455" on="0"/>
        <pt x="277" y="455" on="1"/>
        <pt x="375" y="455" on="0"/>
        <pt x="534" y="427" on="1"/>
        <pt x="490" y="148" on="1"/>
        <pt x="485" y="111" on="0"/>
        <pt x="513" y="111" on="1"/>
        <pt x="558" y="111" on="0"/>
        <pt x="589" y="186" on="0"/>
        <pt x="611" y="325" on="1"/>
        <pt x="610" y="327" on="0"/>
        <pt x="611" y="328" on="1"/>
        <pt x="618" y="368" on="0"/>
        <pt x="625" y="420" on="0"/>
        <pt x="621" y="466" on="0"/>
        <pt x="617" y="491" on="0"/>
        <pt x="590" y="513" on="0"/>
        <pt x="570" y="521" on="0"/>
        <pt x="514" y="527" on="0"/>
        <pt x="471" y="528" on="0"/>
        <pt x="427" y="528" on="1"/>
      </contour>
      <contour>
        <pt x="356" y="338" on="1"/>
        <pt x="302" y="339" on="1"/>
        <pt x="253" y="339" on="0"/>
        <pt x="211" y="300" on="0"/>
        <pt x="198" y="224" on="1"/>
        <pt x="189" y="154" on="0"/>
        <pt x="202" y="122" on="0"/>
        <pt x="232" y="122" on="1"/>
        <pt x="260" y="122" on="0"/>
        <pt x="306" y="162" on="0"/>
        <pt x="334" y="206" on="1"/>
      </contour>
    </TTGlyph>
    <TTGlyph name="atilde" xMin="30" yMin="-12" xMax="579" yMax="725">
      <contour>
        <pt x="241" y="565" on="1"/>
        <pt x="166" y="572" on="1"/>
        <pt x="165" y="648" on="0"/>
        <pt x="218" y="726" on="0"/>
        <pt x="262" y="725" on="1"/>
        <pt x="293" y="724" on="0"/>
        <pt x="407" y="681" on="0"/>
        <pt x="418" y="679" on="1"/>
        <pt x="443" y="674" on="0"/>
        <pt x="465" y="696" on="0"/>
        <pt x="468" y="723" on="1"/>
        <pt x="543" y="716" on="1"/>
        <pt x="545" y="639" on="0"/>
        <pt x="494" y="563" on="0"/>
        <pt x="449" y="564" on="1"/>
        <pt x="416" y="565" on="0"/>
        <pt x="300" y="608" on="0"/>
        <pt x="290" y="610" on="1"/>
        <pt x="265" y="614" on="0"/>
        <pt x="245" y="592" on="0"/>
      </contour>
      <contour>
        <pt x="511" y="0" on="1"/>
        <pt x="370" y="0" on="1"/>
        <pt x="370" y="94" on="1"/>
        <pt x="300" y="-6" on="0"/>
        <pt x="172" y="-12" on="1"/>
        <pt x="73" y="-17" on="0"/>
        <pt x="9" y="119" on="0"/>
        <pt x="30" y="260" on="1"/>
        <pt x="41" y="329" on="0"/>
        <pt x="81" y="423" on="0"/>
        <pt x="128" y="476" on="0"/>
        <pt x="207" y="504" on="0"/>
        <pt x="278" y="511" on="0"/>
        <pt x="335" y="511" on="1"/>
        <pt x="387" y="511" on="0"/>
        <pt x="543" y="491" on="0"/>
        <pt x="579" y="480" on="1"/>
      </contour>
      <contour>
        <pt x="385" y="386" on="1"/>
        <pt x="326" y="387" on="1"/>
        <pt x="273" y="387" on="0"/>
        <pt x="226" y="342" on="0"/>
        <pt x="215" y="263" on="1"/>
        <pt x="202" y="177" on="0"/>
        <pt x="212" y="129" on="0"/>
        <pt x="243" y="130" on="1"/>
        <pt x="297" y="133" on="0"/>
        <pt x="361" y="217" on="1"/>
      </contour>
    </TTGlyph>
    <TTGlyph name="b" xMin="13" yMin="-12" xMax="565" yMax="700">
      <contour>
        <pt x="289" y="700" on="1"/>
        <pt x="270" y="555" on="1"/>
        <pt x="264" y="489" on="0"/>
        <pt x="240" y="428" on="1"/>
        <pt x="325" y="510" on="0"/>
        <pt x="425" y="510" on="1"/>
        <pt x="516" y="510" on="0"/>
        <pt x="586" y="384" on="0"/>
        <pt x="565" y="245" on="1"/>
        <pt x="546" y="117" on="0"/>
        <pt x="424" y="-12" on="0"/>
        <pt x="288" y="-12" on="1"/>
        <pt x="224" y="-12" on="0"/>
        <pt x="55" y="10" on="0"/>
        <pt x="13" y="28" on="1"/>
        <pt x="107" y="700" on="1"/>
      </contour>
      <contour>
        <pt x="238" y="318" on="1"/>
        <pt x="208" y="116" on="1"/>
        <pt x="249" y="113" on="0"/>
        <pt x="270" y="114" on="1"/>
        <pt x="324" y="116" on="0"/>
        <pt x="368" y="171" on="0"/>
        <pt x="381" y="258" on="1"/>
        <pt x="390" y="326" on="0"/>
        <pt x="378" y="367" on="0"/>
        <pt x="350" y="367" on="1"/>
        <pt x="302" y="367" on="0"/>
      </contour>
    </TTGlyph>
    <TTGlyph name="backslash" xMin="72" yMin="-76" xMax="497" yMax="690">
      <contour>
        <pt x="497" y="-76" on="1"/>
        <pt x="361" y="-76" on="1"/>
        <pt x="72" y="690" on="1"/>
        <pt x="207" y="690" on="1"/>
      </contour>
    </TTGlyph>
    <TTGlyph name="bar" xMin="6" yMin="-169" xMax="267" yMax="781">
      <contour>
        <pt x="133" y="-169" on="1"/>
        <pt x="6" y="-169" on="1"/>
        <pt x="140" y="781" on="1"/>
        <pt x="267" y="781" on="1"/>
      </contour>
    </TTGlyph>
    <TTGlyph name="braceleft" xMin="25" yMin="-166" xMax="383" yMax="767">
      <contour>
        <pt x="383" y="767" on="1"/>
        <pt x="371" y="657" on="1"/>
        <pt x="332" y="657" on="0"/>
        <pt x="300" y="637" on="0"/>
        <pt x="296" y="605" on="1"/>
        <pt x="276" y="467" on="1"/>
        <pt x="268" y="400" on="0"/>
        <pt x="215" y="336" on="0"/>
        <pt x="147" y="326" on="1"/>
        <pt x="257" y="295" on="0"/>
        <pt x="241" y="186" on="1"/>
        <pt x="215" y="-3" on="1"/>
        <pt x="211" y="-30" on="0"/>
        <pt x="236" y="-54" on="0"/>
        <pt x="274" y="-54" on="1"/>
        <pt x="268" y="-166" on="1"/>
        <pt x="142" y="-184" on="0"/>
        <pt x="28" y="-99" on="0"/>
        <pt x="40" y="-19" on="1"/>
        <pt x="72" y="211" on="1"/>
        <pt x="73" y="219" on="0"/>
        <pt x="73" y="233" on="0"/>
        <pt x="72" y="242" on="0"/>
        <pt x="66" y="250" on="0"/>
        <pt x="63" y="255" on="0"/>
        <pt x="51" y="261" on="0"/>
        <pt x="46" y="264" on="0"/>
        <pt x="29" y="270" on="0"/>
        <pt x="25" y="272" on="1"/>
        <pt x="39" y="386" on="1"/>
        <pt x="59" y="392" on="0"/>
        <pt x="73" y="398" on="0"/>
        <pt x="92" y="413" on="0"/>
        <pt x="99" y="436" on="0"/>
        <pt x="102" y="456" on="1"/>
        <pt x="126" y="628" on="1"/>
        <pt x="137" y="709" on="0"/>
        <pt x="262" y="786" on="0"/>
      </contour>
    </TTGlyph>
    <TTGlyph name="braceright" xMin="-30" yMin="-164" xMax="340" yMax="769">
      <contour>
        <pt x="87" y="657" on="1"/>
        <pt x="92" y="769" on="1"/>
        <pt x="218" y="787" on="0"/>
        <pt x="333" y="701" on="0"/>
        <pt x="322" y="622" on="1"/>
        <pt x="297" y="449" on="1"/>
        <pt x="295" y="439" on="0"/>
        <pt x="295" y="423" on="0"/>
        <pt x="294" y="412" on="0"/>
        <pt x="300" y="403" on="0"/>
        <pt x="301" y="398" on="0"/>
        <pt x="313" y="393" on="0"/>
        <pt x="317" y="391" on="0"/>
        <pt x="336" y="385" on="0"/>
        <pt x="340" y="384" on="1"/>
        <pt x="325" y="270" on="1"/>
        <pt x="305" y="262" on="0"/>
        <pt x="292" y="256" on="0"/>
        <pt x="270" y="241" on="0"/>
        <pt x="261" y="220" on="0"/>
        <pt x="259" y="204" on="1"/>
        <pt x="226" y="-25" on="1"/>
        <pt x="202" y="-199" on="0"/>
        <pt x="-30" y="-164" on="1"/>
        <pt x="-18" y="-54" on="1"/>
        <pt x="21" y="-54" on="0"/>
        <pt x="52" y="-35" on="0"/>
        <pt x="56" y="-4" on="1"/>
        <pt x="84" y="193" on="1"/>
        <pt x="93" y="250" on="0"/>
        <pt x="147" y="312" on="0"/>
        <pt x="217" y="330" on="1"/>
        <pt x="157" y="339" on="0"/>
        <pt x="117" y="409" on="0"/>
        <pt x="127" y="474" on="1"/>
        <pt x="147" y="612" on="1"/>
        <pt x="151" y="638" on="0"/>
        <pt x="126" y="657" on="0"/>
      </contour>
    </TTGlyph>
    <TTGlyph name="bracketleft" xMin="16" yMin="-165" xMax="394" yMax="768">
      <contour>
        <pt x="379" y="656" on="1"/>
        <pt x="315" y="656" on="1"/>
        <pt x="289" y="656" on="0"/>
        <pt x="285" y="632" on="1"/>
        <pt x="191" y="-33" on="1"/>
        <pt x="190" y="-53" on="0"/>
        <pt x="208" y="-53" on="1"/>
        <pt x="279" y="-53" on="1"/>
        <pt x="263" y="-165" on="1"/>
        <pt x="99" y="-165" on="1"/>
        <pt x="4" y="-165" on="0"/>
        <pt x="16" y="-71" on="1"/>
        <pt x="122" y="681" on="1"/>
        <pt x="128" y="722" on="0"/>
        <pt x="180" y="768" on="0"/>
        <pt x="220" y="768" on="1"/>
        <pt x="394" y="768" on="1"/>
      </contour>
    </TTGlyph>
    <TTGlyph name="bracketright" xMin="-36" yMin="-165" xMax="341" yMax="768">
      <contour>
        <pt x="95" y="768" on="1"/>
        <pt x="259" y="768" on="1"/>
        <pt x="300" y="768" on="0"/>
        <pt x="346" y="714" on="0"/>
        <pt x="341" y="674" on="1"/>
        <pt x="235" y="-78" on="1"/>
        <pt x="230" y="-119" on="0"/>
        <pt x="178" y="-165" on="0"/>
        <pt x="138" y="-165" on="1"/>
        <pt x="-36" y="-165" on="1"/>
        <pt x="-20" y="-53" on="1"/>
        <pt x="43" y="-53" on="1"/>
        <pt x="69" y="-53" on="0"/>
        <pt x="72" y="-29" on="1"/>
        <pt x="166" y="636" on="1"/>
        <pt x="169" y="656" on="0"/>
        <pt x="150" y="656" on="1"/>
        <pt x="79" y="656" on="1"/>
      </contour>
    </TTGlyph>
    <TTGlyph name="breve" xMin="92" yMin="540" xMax="436" yMax="713">
      <contour>
        <pt x="353" y="713" on="1"/>
        <pt x="436" y="699" on="1"/>
        <pt x="437" y="632" on="0"/>
        <pt x="335" y="540" on="0"/>
        <pt x="249" y="540" on="1"/>
        <pt x="162" y="540" on="0"/>
        <pt x="73" y="639" on="0"/>
        <pt x="92" y="706" on="1"/>
        <pt x="178" y="710" on="1"/>
        <pt x="174" y="679" on="0"/>
        <pt x="211" y="652" on="0"/>
        <pt x="255" y="652" on="1"/>
        <pt x="347" y="652" on="0"/>
      </contour>
    </TTGlyph>
    <TTGlyph name="brevecy" xMin="92" yMin="540" xMax="435" yMax="704">
      <contour>
        <pt x="324" y="704" on="1"/>
        <pt x="435" y="704" on="1"/>
        <pt x="436" y="634" on="0"/>
        <pt x="334" y="540" on="0"/>
        <pt x="252" y="540" on="1"/>
        <pt x="162" y="540" on="0"/>
        <pt x="72" y="635" on="0"/>
        <pt x="92" y="704" on="1"/>
        <pt x="207" y="704" on="1"/>
        <pt x="196" y="659" on="0"/>
        <pt x="223" y="625" on="0"/>
        <pt x="255" y="625" on="1"/>
        <pt x="321" y="625" on="0"/>
      </contour>
    </TTGlyph>
    <TTGlyph name="brokenbar" xMin="7" yMin="-169" xMax="268" yMax="781">
      <contour>
        <pt x="211" y="381" on="1"/>
        <pt x="84" y="381" on="1"/>
        <pt x="141" y="781" on="1"/>
        <pt x="268" y="781" on="1"/>
      </contour>
      <contour>
        <pt x="134" y="-169" on="1"/>
        <pt x="7" y="-169" on="1"/>
        <pt x="63" y="231" on="1"/>
        <pt x="190" y="231" on="1"/>
      </contour>
    </TTGlyph>
    <TTGlyph name="bullet" xMin="59" yMin="143" xMax="310" yMax="392">
      <contour>
        <pt x="190" y="392" on="1"/>
        <pt x="211" y="392" on="1"/>
        <pt x="273" y="392" on="0"/>
        <pt x="318" y="339" on="0"/>
        <pt x="310" y="275" on="1"/>
        <pt x="307" y="260" on="1"/>
        <pt x="297" y="191" on="0"/>
        <pt x="247" y="143" on="0"/>
        <pt x="183" y="143" on="1"/>
        <pt x="160" y="143" on="1"/>
        <pt x="96" y="143" on="0"/>
        <pt x="50" y="198" on="0"/>
        <pt x="59" y="266" on="1"/>
        <pt x="62" y="282" on="1"/>
        <pt x="71" y="346" on="0"/>
        <pt x="123" y="392" on="0"/>
      </contour>
    </TTGlyph>
    <TTGlyph name="c" xMin="27" yMin="-12" xMax="515" yMax="511">
      <contour>
        <pt x="454" y="141" on="1"/>
        <pt x="467" y="24" on="1"/>
        <pt x="384" y="-12" on="0"/>
        <pt x="259" y="-12" on="1"/>
        <pt x="124" y="-12" on="0"/>
        <pt x="7" y="115" on="0"/>
        <pt x="27" y="256" on="1"/>
        <pt x="46" y="394" on="0"/>
        <pt x="169" y="511" on="0"/>
        <pt x="304" y="511" on="1"/>
        <pt x="431" y="511" on="0"/>
        <pt x="515" y="475" on="1"/>
        <pt x="490" y="364" on="1"/>
        <pt x="327" y="365" on="1"/>
        <pt x="271" y="365" on="0"/>
        <pt x="225" y="317" on="0"/>
        <pt x="216" y="250" on="1"/>
        <pt x="206" y="177" on="0"/>
        <pt x="237" y="133" on="0"/>
        <pt x="292" y="133" on="1"/>
        <pt x="385" y="133" on="0"/>
      </contour>
    </TTGlyph>
    <TTGlyph name="cacute" xMin="27" yMin="-12" xMax="529" yMax="765">
      <contour>
        <pt x="529" y="637" on="1"/>
        <pt x="276" y="536" on="1"/>
        <pt x="234" y="612" on="1"/>
        <pt x="468" y="765" on="1"/>
      </contour>
      <contour>
        <pt x="454" y="141" on="1"/>
        <pt x="467" y="24" on="1"/>
        <pt x="384" y="-12" on="0"/>
        <pt x="259" y="-12" on="1"/>
        <pt x="124" y="-12" on="0"/>
        <pt x="7" y="115" on="0"/>
        <pt x="27" y="256" on="1"/>
        <pt x="46" y="394" on="0"/>
        <pt x="169" y="511" on="0"/>
        <pt x="304" y="511" on="1"/>
        <pt x="431" y="511" on="0"/>
        <pt x="515" y="475" on="1"/>
        <pt x="490" y="364" on="1"/>
        <pt x="327" y="365" on="1"/>
        <pt x="271" y="365" on="0"/>
        <pt x="225" y="317" on="0"/>
        <pt x="216" y="250" on="1"/>
        <pt x="206" y="177" on="0"/>
        <pt x="237" y="133" on="0"/>
        <pt x="292" y="133" on="1"/>
        <pt x="385" y="133" on="0"/>
      </contour>
    </TTGlyph>
    <TTGlyph name="caron" xMin="86" yMin="549" xMax="488" yMax="750">
      <contour>
        <pt x="488" y="680" on="1"/>
        <pt x="317" y="549" on="1"/>
        <pt x="236" y="549" on="1"/>
        <pt x="86" y="692" on="1"/>
        <pt x="140" y="750" on="1"/>
        <pt x="278" y="664" on="1"/>
        <pt x="286" y="664" on="1"/>
        <pt x="450" y="747" on="1"/>
      </contour>
    </TTGlyph>
    <TTGlyph name="ccaron" xMin="27" yMin="-12" xMax="532" yMax="753">
      <contour>
        <pt x="532" y="684" on="1"/>
        <pt x="361" y="553" on="1"/>
        <pt x="280" y="553" on="1"/>
        <pt x="130" y="695" on="1"/>
        <pt x="184" y="753" on="1"/>
        <pt x="321" y="668" on="1"/>
        <pt x="329" y="668" on="1"/>
        <pt x="494" y="751" on="1"/>
      </contour>
      <contour>
        <pt x="454" y="141" on="1"/>
        <pt x="467" y="24" on="1"/>
        <pt x="384" y="-12" on="0"/>
        <pt x="259" y="-12" on="1"/>
        <pt x="124" y="-12" on="0"/>
        <pt x="7" y="115" on="0"/>
        <pt x="27" y="256" on="1"/>
        <pt x="46" y="394" on="0"/>
        <pt x="169" y="511" on="0"/>
        <pt x="304" y="511" on="1"/>
        <pt x="431" y="511" on="0"/>
        <pt x="515" y="475" on="1"/>
        <pt x="490" y="364" on="1"/>
        <pt x="327" y="365" on="1"/>
        <pt x="271" y="365" on="0"/>
        <pt x="225" y="317" on="0"/>
        <pt x="216" y="250" on="1"/>
        <pt x="206" y="177" on="0"/>
        <pt x="237" y="133" on="0"/>
        <pt x="292" y="133" on="1"/>
        <pt x="385" y="133" on="0"/>
      </contour>
    </TTGlyph>
    <TTGlyph name="ccedilla" xMin="27" yMin="-253" xMax="515" yMax="511">
      <contour>
        <pt x="454" y="141" on="1"/>
        <pt x="467" y="24" on="1"/>
        <pt x="384" y="-12" on="0"/>
        <pt x="259" y="-12" on="1"/>
        <pt x="124" y="-12" on="0"/>
        <pt x="7" y="115" on="0"/>
        <pt x="27" y="256" on="1"/>
        <pt x="46" y="394" on="0"/>
        <pt x="169" y="511" on="0"/>
        <pt x="304" y="511" on="1"/>
        <pt x="431" y="511" on="0"/>
        <pt x="515" y="475" on="1"/>
        <pt x="490" y="364" on="1"/>
        <pt x="327" y="365" on="1"/>
        <pt x="271" y="365" on="0"/>
        <pt x="225" y="317" on="0"/>
        <pt x="216" y="250" on="1"/>
        <pt x="206" y="177" on="0"/>
        <pt x="237" y="133" on="0"/>
        <pt x="292" y="133" on="1"/>
        <pt x="385" y="133" on="0"/>
      </contour>
      <contour>
        <pt x="146" y="-113" on="1"/>
        <pt x="162" y="-47" on="1"/>
        <pt x="248" y="-37" on="0"/>
        <pt x="328" y="-64" on="0"/>
        <pt x="319" y="-119" on="1"/>
        <pt x="306" y="-195" on="0"/>
        <pt x="176" y="-265" on="0"/>
        <pt x="86" y="-253" on="1"/>
        <pt x="107" y="-182" on="1"/>
        <pt x="195" y="-182" on="0"/>
        <pt x="205" y="-130" on="1"/>
        <pt x="205" y="-127" on="0"/>
        <pt x="206" y="-121" on="0"/>
        <pt x="201" y="-117" on="0"/>
        <pt x="195" y="-115" on="0"/>
        <pt x="180" y="-114" on="0"/>
        <pt x="161" y="-113" on="0"/>
      </contour>
    </TTGlyph>
    <TTGlyph name="cdotaccent" xMin="27" yMin="-12" xMax="515" yMax="716">
      <contour>
        <pt x="310" y="716" on="1"/>
        <pt x="362" y="716" on="1"/>
        <pt x="387" y="716" on="0"/>
        <pt x="414" y="689" on="0"/>
        <pt x="412" y="664" on="1"/>
        <pt x="406" y="613" on="1"/>
        <pt x="400" y="567" on="0"/>
        <pt x="353" y="567" on="1"/>
        <pt x="298" y="567" on="1"/>
        <pt x="242" y="567" on="0"/>
        <pt x="250" y="620" on="1"/>
        <pt x="256" y="669" on="1"/>
        <pt x="264" y="716" on="0"/>
      </contour>
      <contour>
        <pt x="454" y="141" on="1"/>
        <pt x="467" y="24" on="1"/>
        <pt x="384" y="-12" on="0"/>
        <pt x="259" y="-12" on="1"/>
        <pt x="124" y="-12" on="0"/>
        <pt x="7" y="115" on="0"/>
        <pt x="27" y="256" on="1"/>
        <pt x="46" y="394" on="0"/>
        <pt x="169" y="511" on="0"/>
        <pt x="304" y="511" on="1"/>
        <pt x="431" y="511" on="0"/>
        <pt x="515" y="475" on="1"/>
        <pt x="490" y="364" on="1"/>
        <pt x="327" y="365" on="1"/>
        <pt x="271" y="365" on="0"/>
        <pt x="225" y="317" on="0"/>
        <pt x="216" y="250" on="1"/>
        <pt x="206" y="177" on="0"/>
        <pt x="237" y="133" on="0"/>
        <pt x="292" y="133" on="1"/>
        <pt x="385" y="133" on="0"/>
      </contour>
    </TTGlyph>
    <TTGlyph name="cedilla" xMin="-46" yMin="-241" xMax="187" yMax="-31">
      <contour>
        <pt x="14" y="-101" on="1"/>
        <pt x="30" y="-35" on="1"/>
        <pt x="82" y="-30" on="0"/>
        <pt x="157" y="-32" on="0"/>
        <pt x="194" y="-69" on="0"/>
        <pt x="187" y="-107" on="1"/>
        <pt x="174" y="-184" on="0"/>
        <pt x="45" y="-253" on="0"/>
        <pt x="-46" y="-241" on="1"/>
        <pt x="-25" y="-170" on="1"/>
        <pt x="63" y="-170" on="0"/>
        <pt x="74" y="-118" on="1"/>
        <pt x="75" y="-112" on="0"/>
        <pt x="73" y="-106" on="0"/>
        <pt x="60" y="-102" on="0"/>
        <pt x="36" y="-101" on="0"/>
      </contour>
    </TTGlyph>
    <TTGlyph name="cent" xMin="41" yMin="0" xMax="524" yMax="690">
      <contour>
        <pt x="498" y="463" on="1"/>
        <pt x="337" y="463" on="1"/>
        <pt x="284" y="463" on="0"/>
        <pt x="240" y="416" on="0"/>
        <pt x="231" y="348" on="1"/>
        <pt x="221" y="276" on="0"/>
        <pt x="250" y="231" on="0"/>
        <pt x="303" y="231" on="1"/>
        <pt x="396" y="231" on="0"/>
        <pt x="463" y="239" on="1"/>
        <pt x="475" y="123" on="1"/>
        <pt x="410" y="93" on="0"/>
        <pt x="302" y="87" on="1"/>
        <pt x="280" y="0" on="1"/>
        <pt x="145" y="0" on="1"/>
        <pt x="170" y="98" on="1"/>
        <pt x="11" y="140" on="0"/>
        <pt x="41" y="355" on="1"/>
        <pt x="60" y="489" on="0"/>
        <pt x="175" y="606" on="0"/>
        <pt x="299" y="609" on="1"/>
        <pt x="319" y="690" on="1"/>
        <pt x="455" y="690" on="1"/>
        <pt x="431" y="599" on="1"/>
        <pt x="488" y="589" on="0"/>
        <pt x="524" y="573" on="1"/>
      </contour>
    </TTGlyph>
    <TTGlyph name="circumflex" xMin="78" yMin="535" xMax="480" yMax="735">
      <contour>
        <pt x="480" y="595" on="1"/>
        <pt x="429" y="535" on="1"/>
        <pt x="290" y="630" on="1"/>
        <pt x="282" y="630" on="1"/>
        <pt x="121" y="535" on="1"/>
        <pt x="78" y="600" on="1"/>
        <pt x="228" y="735" on="1"/>
        <pt x="351" y="735" on="1"/>
      </contour>
    </TTGlyph>
    <TTGlyph name="colon" xMin="3" yMin="1" xMax="218" yMax="457">
      <contour>
        <pt x="119" y="457" on="1"/>
        <pt x="158" y="457" on="1"/>
        <pt x="190" y="457" on="0"/>
        <pt x="222" y="423" on="0"/>
        <pt x="218" y="391" on="1"/>
        <pt x="211" y="347" on="1"/>
        <pt x="204" y="287" on="0"/>
        <pt x="142" y="287" on="1"/>
        <pt x="104" y="287" on="1"/>
        <pt x="35" y="287" on="0"/>
        <pt x="43" y="354" on="1"/>
        <pt x="49" y="398" on="1"/>
        <pt x="58" y="457" on="0"/>
      </contour>
      <contour>
        <pt x="79" y="171" on="1"/>
        <pt x="117" y="171" on="1"/>
        <pt x="149" y="171" on="0"/>
        <pt x="182" y="136" on="0"/>
        <pt x="177" y="104" on="1"/>
        <pt x="171" y="60" on="1"/>
        <pt x="164" y="1" on="0"/>
        <pt x="102" y="1" on="1"/>
        <pt x="63" y="1" on="1"/>
        <pt x="-5" y="1" on="0"/>
        <pt x="3" y="67" on="1"/>
        <pt x="9" y="111" on="1"/>
        <pt x="18" y="171" on="0"/>
      </contour>
    </TTGlyph>
    <TTGlyph name="comma" xMin="9" yMin="-158" xMax="182" yMax="170">
      <contour>
        <pt x="90" y="170" on="1"/>
        <pt x="124" y="170" on="1"/>
        <pt x="160" y="170" on="0"/>
        <pt x="187" y="139" on="0"/>
        <pt x="182" y="103" on="1"/>
        <pt x="173" y="39" on="1"/>
        <pt x="166" y="-10" on="0"/>
        <pt x="120" y="-120" on="0"/>
        <pt x="91" y="-158" on="1"/>
        <pt x="15" y="-130" on="1"/>
        <pt x="36" y="-78" on="0"/>
        <pt x="56" y="3" on="1"/>
        <pt x="28" y="2" on="0"/>
        <pt x="6" y="30" on="0"/>
        <pt x="9" y="59" on="1"/>
        <pt x="16" y="108" on="1"/>
        <pt x="22" y="143" on="0"/>
        <pt x="55" y="170" on="0"/>
      </contour>
    </TTGlyph>
    <TTGlyph name="copyright" xMin="44" yMin="-14" xMax="768" yMax="704">
      <contour>
        <pt x="437" y="704" on="1"/>
        <pt x="604" y="704" on="0"/>
        <pt x="787" y="503" on="0"/>
        <pt x="768" y="338" on="1"/>
        <pt x="751" y="179" on="0"/>
        <pt x="540" y="-14" on="0"/>
        <pt x="376" y="-14" on="1"/>
        <pt x="210" y="-14" on="0"/>
        <pt x="25" y="184" on="0"/>
        <pt x="44" y="352" on="1"/>
        <pt x="63" y="512" on="0"/>
        <pt x="276" y="704" on="0"/>
      </contour>
      <contour>
        <pt x="441" y="622" on="1"/>
        <pt x="311" y="622" on="0"/>
        <pt x="145" y="469" on="0"/>
        <pt x="132" y="338" on="1"/>
        <pt x="121" y="214" on="0"/>
        <pt x="246" y="68" on="0"/>
        <pt x="372" y="68" on="1"/>
        <pt x="499" y="68" on="0"/>
        <pt x="668" y="220" on="0"/>
        <pt x="681" y="352" on="1"/>
        <pt x="693" y="475" on="0"/>
        <pt x="567" y="622" on="0"/>
      </contour>
      <contour>
        <pt x="530" y="259" on="1"/>
        <pt x="538" y="164" on="1"/>
        <pt x="477" y="145" on="0"/>
        <pt x="402" y="145" on="1"/>
        <pt x="286" y="145" on="0"/>
        <pt x="203" y="237" on="0"/>
        <pt x="218" y="353" on="1"/>
        <pt x="232" y="463" on="0"/>
        <pt x="330" y="547" on="0"/>
        <pt x="440" y="547" on="1"/>
        <pt x="506" y="547" on="0"/>
        <pt x="570" y="531" on="1"/>
        <pt x="556" y="436" on="1"/>
        <pt x="534" y="436" on="0"/>
        <pt x="456" y="437" on="0"/>
        <pt x="432" y="437" on="1"/>
        <pt x="391" y="437" on="0"/>
        <pt x="361" y="403" on="0"/>
        <pt x="354" y="347" on="1"/>
        <pt x="347" y="292" on="0"/>
        <pt x="365" y="257" on="0"/>
        <pt x="399" y="256" on="1"/>
        <pt x="459" y="253" on="0"/>
      </contour>
    </TTGlyph>
    <TTGlyph name="currency" xMin="28" yMin="101" xMax="565" yMax="605">
      <contour>
        <pt x="565" y="517" on="1"/>
        <pt x="489" y="448" on="1"/>
        <pt x="507" y="400" on="0"/>
        <pt x="493" y="290" on="0"/>
        <pt x="461" y="244" on="1"/>
        <pt x="525" y="174" on="1"/>
        <pt x="445" y="101" on="1"/>
        <pt x="381" y="172" on="1"/>
        <pt x="329" y="146" on="0"/>
        <pt x="276" y="146" on="1"/>
        <pt x="218" y="146" on="0"/>
        <pt x="170" y="175" on="1"/>
        <pt x="100" y="112" on="1"/>
        <pt x="28" y="192" on="1"/>
        <pt x="101" y="258" on="1"/>
        <pt x="83" y="304" on="0"/>
        <pt x="97" y="414" on="0"/>
        <pt x="131" y="462" on="1"/>
        <pt x="67" y="532" on="1"/>
        <pt x="148" y="605" on="1"/>
        <pt x="212" y="533" on="1"/>
        <pt x="260" y="558" on="0"/>
        <pt x="313" y="558" on="1"/>
        <pt x="374" y="558" on="0"/>
        <pt x="419" y="530" on="1"/>
        <pt x="493" y="597" on="1"/>
      </contour>
      <contour>
        <pt x="192" y="353" on="1"/>
        <pt x="185" y="306" on="0"/>
        <pt x="238" y="248" on="0"/>
        <pt x="282" y="248" on="1"/>
        <pt x="329" y="248" on="0"/>
        <pt x="392" y="305" on="0"/>
        <pt x="398" y="353" on="1"/>
        <pt x="405" y="401" on="0"/>
        <pt x="354" y="458" on="0"/>
        <pt x="309" y="458" on="1"/>
        <pt x="260" y="458" on="0"/>
        <pt x="198" y="401" on="0"/>
      </contour>
    </TTGlyph>
    <TTGlyph name="d" xMin="30" yMin="-12" xMax="612" yMax="700">
      <contour>
        <pt x="612" y="700" on="1"/>
        <pt x="513" y="0" on="1"/>
        <pt x="370" y="0" on="1"/>
        <pt x="368" y="84" on="1"/>
        <pt x="268" y="-12" on="0"/>
        <pt x="173" y="-12" on="1"/>
        <pt x="-6" y="-12" on="0"/>
        <pt x="30" y="260" on="1"/>
        <pt x="40" y="336" on="0"/>
        <pt x="79" y="437" on="0"/>
        <pt x="138" y="490" on="0"/>
        <pt x="203" y="511" on="0"/>
        <pt x="246" y="511" on="1"/>
        <pt x="331" y="511" on="0"/>
        <pt x="406" y="497" on="1"/>
        <pt x="406" y="556" on="0"/>
        <pt x="413" y="599" on="1"/>
        <pt x="430" y="700" on="1"/>
      </contour>
      <contour>
        <pt x="385" y="394" on="1"/>
        <pt x="324" y="394" on="1"/>
        <pt x="266" y="394" on="0"/>
        <pt x="226" y="348" on="0"/>
        <pt x="215" y="263" on="1"/>
        <pt x="204" y="195" on="0"/>
        <pt x="214" y="138" on="0"/>
        <pt x="246" y="140" on="1"/>
        <pt x="295" y="141" on="0"/>
        <pt x="358" y="192" on="1"/>
      </contour>
    </TTGlyph>
    <TTGlyph name="dagger" xMin="37" yMin="-110" xMax="481" yMax="691">
      <contour>
        <pt x="255" y="-110" on="1"/>
        <pt x="110" y="-110" on="1"/>
        <pt x="191" y="401" on="1"/>
        <pt x="203" y="484" on="1"/>
        <pt x="223" y="691" on="1"/>
        <pt x="368" y="691" on="1"/>
        <pt x="330" y="484" on="1"/>
        <pt x="319" y="401" on="1"/>
      </contour>
      <contour>
        <pt x="37" y="368" on="1"/>
        <pt x="55" y="497" on="1"/>
        <pt x="184" y="497" on="1"/>
        <pt x="169" y="387" on="1"/>
      </contour>
      <contour>
        <pt x="481" y="497" on="1"/>
        <pt x="464" y="368" on="1"/>
        <pt x="337" y="387" on="1"/>
        <pt x="352" y="497" on="1"/>
      </contour>
    </TTGlyph>
    <TTGlyph name="daggerdbl" xMin="10" yMin="-110" xMax="494" yMax="691">
      <contour>
        <pt x="345" y="496" on="1"/>
        <pt x="288" y="95" on="1"/>
        <pt x="268" y="-110" on="1"/>
        <pt x="123" y="-110" on="1"/>
        <pt x="161" y="95" on="1"/>
        <pt x="217" y="496" on="1"/>
        <pt x="236" y="691" on="1"/>
        <pt x="381" y="691" on="1"/>
      </contour>
      <contour>
        <pt x="181" y="387" on="1"/>
        <pt x="50" y="368" on="1"/>
        <pt x="68" y="497" on="1"/>
        <pt x="197" y="497" on="1"/>
      </contour>
      <contour>
        <pt x="476" y="368" on="1"/>
        <pt x="349" y="387" on="1"/>
        <pt x="365" y="497" on="1"/>
        <pt x="494" y="497" on="1"/>
      </contour>
      <contour>
        <pt x="154" y="194" on="1"/>
        <pt x="139" y="84" on="1"/>
        <pt x="10" y="84" on="1"/>
        <pt x="28" y="213" on="1"/>
      </contour>
      <contour>
        <pt x="436" y="84" on="1"/>
        <pt x="307" y="84" on="1"/>
        <pt x="323" y="194" on="1"/>
        <pt x="454" y="213" on="1"/>
      </contour>
    </TTGlyph>
</ttFont>
